/* XPM */
static char *_00f2eada2644d428cdc940edb35521cZqHSkEBYwdDltC1M[] = {
/* columns rows colors chars-per-pixel */
"50 50 88 1 ",
"  c #747468",
". c #7B7C6D",
"X c #7E7F71",
"o c #84816A",
"O c #828375",
"+ c #8E8A76",
"@ c #858579",
"# c #8A897D",
"$ c #95917B",
"% c #9B977E",
"& c #9B997E",
"* c #8E8E82",
"= c #908E81",
"- c #8E9083",
"; c #939385",
": c #9B9680",
"> c #979885",
", c #9F9D87",
"< c #95968A",
"1 c #989688",
"2 c #97988C",
"3 c #9A9A8D",
"4 c #9D9D92",
"5 c #A09F84",
"6 c #A19D8D",
"7 c #A19F93",
"8 c #9FA094",
"9 c #A0A18E",
"0 c #AAA88D",
"q c #A2A396",
"w c #A9A693",
"e c #A7A896",
"r c #AAAA96",
"t c #A4A59A",
"y c #A7A89C",
"u c #AAAA9D",
"i c #B0AD96",
"p c #B1AE9B",
"a c #AFB09E",
"s c #B2B19E",
"d c #BAB89D",
"f c #ACADA2",
"g c #B0ACA0",
"h c #AFB0A5",
"j c #AFB0A8",
"k c #B2B2A6",
"l c #BAB7A4",
"z c #B7B8A7",
"x c #B8B9A6",
"c c #B8B9A7",
"v c #B2B2AA",
"b c #B4B3A8",
"n c #B3B4A8",
"m c #B4B5A8",
"M c #B5B5A9",
"N c #B3B2AD",
"B c #B5B5AC",
"V c #B9B5A9",
"C c #B7B8AA",
"Z c #B7B9AE",
"A c #B8BAAC",
"S c #BBBBAF",
"D c #BCBAAD",
"F c #BCBDAF",
"G c #B7B6B1",
"H c #BBBAB3",
"J c #BCBBB3",
"K c #BDBEB0",
"L c #BCBDB2",
"P c #BDBCB5",
"I c #C1BFB3",
"U c #BFC0AD",
"Y c #BFC0B4",
"T c #C0C0B4",
"R c #C2C3B5",
"E c #C4C4B7",
"W c #C1C0B8",
"Q c #C4C5BA",
"! c #C7C7BB",
"~ c #C6C6BD",
"^ c #C8C7BF",
"/ c #C8C9BC",
"( c #C9C9BE",
") c #C8C8BF",
"_ c #CBCCC2",
"` c #CFD1C6",
"' c #D1D1C6",
"] c #D4D5CA",
/* pixels */
".34;.;qr:o%reO;ar43kSu$&SHy>hWf*fkm33kfq*tuf;*qu4 ",
"12O23q;3w,%,uur3qmkuubi0gPCakvkmSttukq;tfu4uuu4<t3",
"=X;uq*3ul+:qRy<qkKqquIw5VWFeufRf4tkm33tmt;4kf3;4fq",
"k2;.Cuf*rpiq2Ehk;SRmu6ldD4SUmt4/ff#kkf43Ruu*kft**S",
"7rtOXkkb#wpD4<mmk*kSIu6iIJ;xF~3<mSu@kmS<3fkt#tkk@*",
"4t24quuruwrrmnmfqkkSuFlsSnmnFkSkKhyfnKtfyufukvPyut",
"t;<fuq<mz9,uRkr4mkuqkRswrSmktmHmhtnhntfZhfqSBNtyff",
"u4qtSquqRqkqnKyk<QtktmrwaqRqmrPRff3Rvk8KZyft/fv3mm",
"Skk*tKku<Smm*mRCq;Rmk;rpzt3RSR4KKB42~nk*HZZ4t~BfOm",
"4mmu4fSSutSmnuCSfuuKkk,wUkyqSSmfKYkqfWKftKKmfNWSu<",
"mu3fmmqkSSftSSStkmSffSxsqnSmffSKKtkvPmfBYYtkWWvumH",
"t3uSk3ukY8ffQkfkmRtkkRrqaSYqff/BtfkKtkmWkfmPQyfmQk",
"Rmf<RKm3uKFf<QSm<kQmu<xmm;mKKyq_Kk#kQKtt_YR4Q~Syt/",
"2SRf3SRY8uSRu3SKm3fKRu2mRC<hKWttPSk<kPYytR~K4KWWt8",
"hFqkmKmfFSFuSKRkfSSRkKSSmkPSKhPBRkkmSKtHKfZKPK~mPk",
"u4tRSutmFyrSQKuuKKkumRmukRRmfZWPBfKSftvPmyhQYHyHQK",
"SuyuQuS3RkYff_kS3_mStkFmSq_mRtP_KK4_hntYQhnf_fKuQK",
"SmS8qKSn4RSK3fKKf3RKS3sRUk4QKW4KQWf8QHS3KWKft/YK4P",
"qKmnqkSCKrYmmfSKkkk/mSqmRSff~HHfQQHfh/KnyZKZfkQKZt",
"mntkmSuSSkquKKStSSKkmRSmuKSRvmKPKfKHKffKnntBSShkYY",
"rqrSKuSk_3uk/Ktmk'ufu/aumSQfvu_muvK/tfh/ftkYQthn`Z",
"QSk*RQKqrRSZ4/YRqf/Kk4RYS4mQKu8/KK4H~my8PSS4WRHhn`",
"qRRk4KRK4uQ/v8R~H4fQ/k3K/R4kQRt8YQZ2hYR88KYm<mK_hy",
"mmtkSRfkSSShYW/BmPPRkSSRmBKRKySSYhhZKZtBkKfkBvKBKZ",
"fquQmufR/uuK`KfZ~WffS/hum/PfuS/nfh/KytHQftf~BtfK~k",
"/Kfu_SK4QRRfk_KP4_PHtkRKS4/KK8C_KZ4_fn4KPvkt'BBu~Q",
"mQ/f4~QP3HW/tfQQB<RPKqCQQn4~YQ3mQQf<PKK2hYYf4_BP4P",
"k/mZZQQmSm/ZSS_QBSfPmYmQRnmB_ZZfWPZfhQnntnPKffWHSy",
"KkfYYSfRWPfZQRKhRPBuSRKCkKYYBKYKKhWKHfBHnffBSHfBKK",
"khfY/tHf'vPk_QfSk_fSfRnumm/fSf'HhBZ_tnh_kfmWWtmm`h",
"_PZ4K_Pft'RS8QQHtv_Pm2SYS3v_Ym4'QK2v_Kfq`YK4R~Yfy'",
"tQ/P8Y_Rfk/QSq~~RfkPYk3K/KqB/~ftQ/H4vQ/f8R/S<PWWyt",
"PSfRQ/fBWWKkKR/fmRKkhYSKhSR/HZKYQfHKSZhKKYfSHHBkSm",
"mym_StBW_khK_KukmQffn/nfmQRhhW_Bfn/KttK~htn~JfyK/k",
"_Pnt`HKqR_Rkf_KS4mRKtyQKm4/KPyZ_KZq/vmtSQSmt_GHuQR",
"fW_n4KQQ3HQ~tqRQK-hQQqqR/m<R/_qnQ/h<PKQ4ZY/f4~WR4P",
"P/vKZPSSPm~mKmRKmSmQmYnQKKmK/SKn~KSfmRmZfKYKfG^Smf",
"YfB/PkuQRkfSQPmkWKKfK/Skm/SBkP~KZBQBSuSKBBkRRWfKWS",
"WHvK_fSu'mSfRWkSf_BKf~Rmmk/fKf/HZZB_fSf_vvvP~fHm_u",
"/Q/tm/RmtQKR3KRKut_QK3RQRqu/WH4_QR4k_Hvt_RPtP_Wmt_",
"B_~KfR/RmkQYSqSSKfm_/StK/RuB__SuPWS4v~/vuR/K4S/Qft",
"QKkWWQmQRKmmYkutKWQKHRQKkQR~HHRPHfHKPmvHPWmHHWKBWH",
"vvH_QfKQ_fkm'KymQ_fSK_mumQKfHK_ffvWKtfP_mkS~PvHW_j",
"'WHt_/QuK/Rmu'QRtQ_~fu/RS3K~~tk_Km3WHPuH~HBt_PWtWQ",
"kW_Kf~/QuSQ_kt~_RtR/_ftRQK3PQ_tuP~m3SWQtvP_vtWPW4v",
"R~SQ__KSRRRBRP/SRWW_PQK/SKKP~SPvQSHBHRkBmRPHBH_HHt",
"HmW_Wkm//mfH_Kvm_QHmQ_RmS/KfvPWSvv~SmfRHvfSWPHvPPJ",
"/PKm]KQf'RKvH_BHf]KQf/~SKu_vKt/Smvf/fSf_fmvP_vPf_j",
"KR~ff_~~tQQ~tB//Bt_WWtK~/vt/WP4WRRtfRKKtHPIfH_PjtW",
"vWHWB/_RPm_RKf~~QBB_RPf__~vS_RBtRRKtv~PvuQ_PtB_Hft"
};
