/* XPM */
static char *e5d89384968747e0a2068e207abd37a8vZE4rzWwgmnnhD1r[] = {
/* columns rows colors chars-per-pixel */
"50 50 245 2 ",
"   c None",
".  c #097E06",
"X  c #137E00",
"o  c #058401",
"O  c #0B8502",
"+  c #068D01",
"@  c #0C8B01",
"#  c #0F860B",
"$  c #148501",
"%  c #148B01",
"&  c #1B8C02",
"*  c #188809",
"=  c #0E9201",
"-  c #0D9B02",
";  c #089606",
":  c #159301",
">  c #1C9301",
",  c #149A04",
"<  c #1B9B04",
"1  c #1F990D",
"2  c #19960E",
"3  c #1A8E14",
"4  c #1D9C12",
"5  c #189718",
"6  c #0F9210",
"7  c #228A02",
"8  c #249401",
"9  c #249B01",
"0  c #2B9B02",
"q  c #22950B",
"w  c #219C0B",
"e  c #299B0B",
"r  c #239A12",
"t  c #2B9714",
"y  c #3A990F",
"u  c #1CA403",
"i  c #19AA04",
"p  c #18A808",
"a  c #1DB30B",
"s  c #1BB809",
"d  c #1DA313",
"f  c #1DAA19",
"g  c #1EB714",
"h  c #08A400",
"j  c #24AB02",
"k  c #2CAA02",
"l  c #23A40B",
"z  c #28A607",
"x  c #33A30C",
"c  c #3DAA0C",
"v  c #33A908",
"b  c #2DB104",
"n  c #25B20A",
"m  c #2CBA0C",
"M  c #26B708",
"N  c #35B40C",
"B  c #39B80A",
"V  c #2BA512",
"C  c #25AC11",
"Z  c #2BAA12",
"A  c #27A719",
"S  c #33A614",
"D  c #33AB13",
"F  c #33AC19",
"G  c #3AAB1A",
"H  c #38A814",
"J  c #25B413",
"K  c #2BBA1A",
"L  c #28B615",
"P  c #32B313",
"I  c #3BB315",
"U  c #35BA14",
"Y  c #34B31C",
"T  c #33BB1C",
"R  c #3CBB1B",
"E  c #3EBC11",
"W  c #329A21",
"Q  c #35A727",
"!  c #2CB522",
"~  c #35B623",
"^  c #3DB221",
"/  c #3EBA24",
"(  c #37B827",
")  c #37AB2C",
"_  c #409D07",
"`  c #46A908",
"'  c #41B30E",
"]  c #45B908",
"[  c #45A916",
"{  c #45BC15",
"}  c #43B51B",
"|  c #44BC1B",
" . c #4AB717",
".. c #55BA1B",
"X. c #5ABF09",
"o. c #73BD1C",
"O. c #6DB515",
"+. c #4AA526",
"@. c #45BD23",
"#. c #4DBA24",
"$. c #44B625",
"%. c #52BE21",
"&. c #57BA2A",
"*. c #43BA33",
"=. c #5DBE35",
"-. c #5EAD3A",
";. c #63B835",
":. c #75BD35",
">. c #6FB628",
",. c #38C50D",
"<. c #2AC114",
"1. c #35C215",
"2. c #38C517",
"3. c #3CC32A",
"4. c #39C623",
"5. c #2FC122",
"6. c #43C313",
"7. c #43C31B",
"8. c #4CC31C",
"9. c #4AC91E",
"0. c #48C816",
"q. c #54C31A",
"w. c #5CC21C",
"e. c #5BCC1B",
"r. c #55C816",
"t. c #4ECE15",
"y. c #68C50C",
"u. c #67CB19",
"i. c #76CA19",
"p. c #63D11D",
"a. c #66DB1D",
"s. c #73D11D",
"d. c #7BD51D",
"f. c #4CC323",
"g. c #43C922",
"h. c #4CCB26",
"j. c #46CE2B",
"k. c #47C327",
"l. c #53C223",
"z. c #54CB28",
"x. c #59C829",
"c. c #5CD42C",
"v. c #58D425",
"b. c #4BCA33",
"n. c #4BC533",
"m. c #58C935",
"M. c #5CD335",
"N. c #54DC38",
"B. c #4AD12D",
"V. c #63CD24",
"C. c #6DCD25",
"Z. c #62CD29",
"A. c #67C728",
"S. c #69D32A",
"D. c #74D42D",
"F. c #76D72A",
"G. c #66CB34",
"H. c #6BC43C",
"J. c #77C839",
"K. c #68D636",
"L. c #7BD437",
"P. c #7ADD34",
"I. c #75D638",
"U. c #78CE21",
"Y. c #7BE432",
"T. c #55B642",
"R. c #69B843",
"E. c #77B248",
"W. c #65AF50",
"Q. c #57D044",
"!. c #66C848",
"~. c #77C648",
"^. c #68DE4B",
"/. c #7AD242",
"(. c #78DA49",
"). c #78C654",
"_. c #7EDA53",
"`. c #67E645",
"'. c #78EA4B",
"]. c #79E55C",
"[. c #7EC267",
"{. c #81B934",
"}. c #87CA2A",
"|. c #8ADD2A",
" X c #83D724",
".X c #83CD3C",
"XX c #87C738",
"oX c #92CD37",
"OX c #8CDD3B",
"+X c #87D737",
"@X c #96D938",
"#X c #93D42D",
"$X c #87E22E",
"%X c #98E82B",
"&X c #85E639",
"*X c #97EB3B",
"=X c #A4E93B",
"-X c #A1F130",
";X c #89B848",
":X c #91BD55",
">X c #86CC44",
",X c #8AC346",
"<X c #95CB46",
"1X c #86D645",
"2X c #98D745",
"3X c #96CB5E",
"4X c #8ED758",
"5X c #A5D559",
"6X c #A1D34E",
"7X c #86E54A",
"8X c #98E748",
"9X c #8BE958",
"0X c #98E855",
"qX c #95F549",
"wX c #A5F948",
"eX c #B1FD5A",
"rX c #AEEF53",
"tX c #9CD263",
"yX c #8DC972",
"uX c #90CE69",
"iX c #A0CD6C",
"pX c #A0D364",
"aX c #A4D373",
"sX c #B1DA75",
"dX c #94F669",
"fX c #AAE96E",
"gX c #A6FD78",
"hX c #BDFF7A",
"jX c #BDF860",
"kX c #AAD489",
"lX c #ADD48B",
"zX c #A9FA89",
"xX c #B7EB8E",
"cX c #BEDEA1",
"vX c #C9FA95",
"bX c #D2F498",
"nX c #C5E68F",
"mX c #D9FBA5",
"MX c #DEFCBA",
"NX c #D8FBBA",
"BX c #CEF5B3",
"VX c #E0FFB8",
"CX c #DEFBC6",
"ZX c #E4FEC6",
"AX c #EBFFD7",
/* pixels */
"                                                                                                    ",
"                                                                                                    ",
"                                                                                                    ",
"                                          ~.J.:.XX:.~.).R.                                          ",
"                                        /.L.fXfX.XL. .G./.~.3X                                      ",
"                                    ).(.P.P.0XvX0X..K.6.e.I.>XpX                                    ",
"                                    =.{ e.p.D.1X/.I.e.t.0.e.8XXX                                    ",
"                                  W.$.9.] r.r.V.9X(.S.t.,.0.P.2X,X                                  ",
"                                [.T.3.4.b v.v.6.{ B l.I n 2.K.OX+XXX                                ",
"                              [.!.zXB.a 2.U g.N z k I : , C #.P.eXO.                                ",
"                            yX;.Q.N.J <.L ~ w $ $ 9 I : o @ V K.qX Xo.                              ",
"                            -.x.U m <.J 5.d * 7 H c c.h.8 O o l F.s.wX                              ",
"                          yX;.8.m 1.T L L n & K.L.A.Z.c.b z @ % q.$Xd.#X                            ",
"                          ).'.,.M 1.j.K a - v 8 `  .' 9.6.6.l < 8 &Xy.|.                            ",
"                          ~.'.B 9.n 2.J h - u v #.m.8.9.9.2.U z 8 l.u.|.                            ",
"                        3X0Xc.2.h.g.<.a K u P P 1 w z E 7.6.v.{ 9 c r.u.i.                          ",
"                        >XD.8.7.t.,.s J @.G : + 2 @ K.K.8.z S.q. .& ] p. X                          ",
"                        0XC. .R 0.,.M 5.S & @ + ; o 8 [ x.' 0 V.K.8 b 0.$X                          ",
"                        >Xu.%.'.m <.j U Z % < ~ o 5 $ X 0 f.8 z.K.' j 6.s.2X                        ",
"                      kXJ.D.%.dX1.M j j.A , n.q 3 . # * & D 9 b.@.v u B C..X                        ",
"                      kX.XF. .`.N.M U Z ; d $.& # # 3 % @ Y ~ ~ F l i B C.1XxX                      ",
"                    AXiXJ.*Xw.f.T n R u f ! < $ * # * A C T / V Y l p U C.0XxX                      ",
"                    AXaXXXwXP.' P C , P J i D & $ @ 1 ( K J | 0 / @ i k &X.XaXC                     ",
"                    ZXiX}.i.&X..Y = @ C m 1.9 x : 4 < @ p i q.` D , n k &X2XtXN                     ",
"                    ZX:X}.%X&XZ.F @ o C m 9.% I : 3.w = - , C.C.} = n 6.F.}.fXV                     ",
"                    VX;X#X%X*XS.: @ < T m 1.: @.P j.b.l 3.: 1X.X} < u v.i.@X5Xm                     ",
"                    MX;X=X-X*XA.$ O < 4.K J > M.g.g.l l b.e gX1Xl.7.b r.U.@X6Xm                     ",
"                    MX;X=X%XOX_ & @ < T K p : z.9.N < w V $.gX_.} c.E e.OXrX<Xb                     ",
"                    ZX;X@X%X8Xy $ O < J g i : | B ' V % e m.].$.| 7.k q.OXjX6Xb                     ",
"                    ZX:X#XwXhX~.3 o , L g i : x.q.0 f.k.(.dXS F } 9 k V.+XrX2Xn                     ",
"                      iXoXrXhX4XW # 2 g g a @ ..u.u.e.q.%.K.u p R > N Z.o.2X<Xb                     ",
"                      kXoX=X>X+.* # 6 6 p 4.: x P.u.w.I. .9 = , Z > c.V.8XrX5X                      ",
"                      cX}.%X+X[ t 3 5 4 p 4.l $ &.9X4X_.[ 8 @ / $ x V.$XeX<XsX                      ",
"                      cX}.%XP...Q Q * F : h.7.> 7 H.xXgX&.8 } D > } V.wXOX<XnX                      ",
"                      BXoX%Xs. .q . 1 R < v.a.] 8 8 } x.z.f.z.z : $. .C.OX<X                        ",
"                      CX{.*X$Xw.& & O P 8.e.a.a.{ } v I } f.j = : n.c u.+XpX                        ",
"                        ;XeXeXD.e r o Y 8.8.e.S.l.G G S I @.d + d V c I.>X                          ",
"                        iXXX8X&X#.S 1 q I | 8.z.x e $.^ D l 4 A A 1 './.3X                          ",
"                          E.>.L.7X(.y & ^ F / ^ F V & : Z Y V 1 O > G.;.kX                          ",
"                            ,X0X+XS.I.=.& r Q A : w F b.b.: q e S #.H.uX                            ",
"                              :.D.Y.7X9X+.t 3 ) ) 4 = d J Y r & c /.~.                              ",
"                              E.A.p.I.G.=.!.Q Q *.4 Q.! , < *.8 G.>X                                ",
"                                &.v.v.{ I ^.].) % > V $ & 8 x G.J.                                  ",
"                                   .{ B I k.b.^.k.9 } !.).~.H.J.                                    ",
"                                    ..0.7.Y T `.M.M.(.zXBXNXvX                                      ",
"                                        $./ h.{ ] w.J.tXMXZX                                        ",
"                                            ] X.y.|.}.oX,X                                          ",
"                                                                                                    ",
"                                                                                                    ",
"                                                                                                    "
};
