/* XPM */
static char *xpm_[] = {
/* columns rows colors chars-per-pixel */
"64 64 210 2 ",
"   c #030101",
".  c #0B0101",
"X  c #0E0D0D",
"o  c #130404",
"O  c #1C0001",
"+  c #120C0C",
"@  c #1A0C0C",
"#  c #0E1403",
"$  c #18190A",
"%  c #121212",
"&  c #1D1111",
"*  c #1B1B1B",
"=  c #2A0304",
"-  c #250E0F",
";  c #340001",
":  c #390203",
">  c #271304",
",  c #261819",
"<  c #371B1C",
"1  c #3A1C1C",
"2  c #1D2609",
"3  c #1C2111",
"4  c #212616",
"5  c #24291A",
"6  c #31331B",
"7  c #212121",
"8  c #2B2B2B",
"9  c #313725",
"0  c #363B2B",
"q  c #393E2D",
"w  c #313131",
"e  c #440001",
"r  c #5F0001",
"t  c #660002",
"y  c #690103",
"u  c #6F0C0E",
"i  c #7A0002",
"p  c #79090C",
"a  c #6E1516",
"s  c #701012",
"d  c #523C32",
"f  c #7D3333",
"g  c #3B412E",
"h  c #3D4828",
"j  c #3D4332",
"k  c #56790E",
"l  c #414635",
"z  c #484A4A",
"x  c #5E5E5E",
"c  c #586343",
"v  c #6C7657",
"b  c #646464",
"n  c #6B6B6B",
"m  c #6C7162",
"M  c #707566",
"N  c #767B6B",
"B  c #7A7E6E",
"V  c #757574",
"C  c #7E7272",
"Z  c #7C7C7C",
"A  c #8D0003",
"S  c #980306",
"D  c #AE0004",
"F  c #A2070B",
"G  c #B70408",
"H  c #AD0C13",
"J  c #8C393B",
"K  c #B4232B",
"L  c #C40005",
"P  c #CD0005",
"I  c #C6060B",
"U  c #D40107",
"Y  c #DE0006",
"T  c #D10A10",
"R  c #E40006",
"E  c #EB0006",
"W  c #E9040B",
"Q  c #F40006",
"!  c #FB0007",
"~  c #F6040B",
"^  c #FB020A",
"/  c #FA080F",
"(  c #F60A10",
")  c #FA0B12",
"_  c #E21419",
"`  c #FB151B",
"'  c #FB1B21",
"]  c #F21E2A",
"[  c #FB182A",
"{  c #FB2D35",
"}  c #F9343C",
"|  c #8F5E5D",
" . c #8D7877",
".. c #F15257",
"X. c #F55E63",
"o. c #FB6B70",
"O. c #5E8312",
"+. c #628E05",
"@. c #658B0B",
"#. c #638D0B",
"$. c #669206",
"%. c #6A9607",
"&. c #6D9907",
"*. c #66920B",
"=. c #6A950C",
"-. c #6D9A0C",
";. c #759B0E",
":. c #719D0D",
">. c #658F10",
",. c #688A1D",
"<. c #679113",
"1. c #6B9513",
"2. c #6E9A13",
"3. c #6D941B",
"4. c #6D9919",
"5. c #729D14",
"6. c #71971E",
"7. c #779A18",
"8. c #729D1B",
"9. c #6EA20F",
"0. c #74A20F",
"q. c #78A60F",
"w. c #6FA210",
"e. c #75A215",
"r. c #79A515",
"t. c #77A817",
"y. c #7BA915",
"u. c #76A21B",
"i. c #79A51C",
"p. c #77A81C",
"a. c #7CA91A",
"s. c #7DAA1C",
"d. c #7DAA1E",
"f. c #6A8D22",
"g. c #719721",
"h. c #749B22",
"j. c #779D26",
"k. c #799E2B",
"l. c #749333",
"z. c #7A9C33",
"x. c #77A121",
"c. c #7AA521",
"v. c #7AA522",
"b. c #7EA921",
"n. c #7EA922",
"m. c #7FAA25",
"M. c #7CA62A",
"N. c #7FA92A",
"B. c #7EA233",
"V. c #7C856A",
"C. c #7B8171",
"Z. c #81A818",
"A. c #81AD1D",
"S. c #80AD1E",
"D. c #82A523",
"F. c #81AE22",
"G. c #80AB24",
"H. c #82AD24",
"J. c #89AD27",
"K. c #80A72B",
"L. c #82AC2B",
"P. c #89AC2B",
"I. c #84B023",
"U. c #89B626",
"Y. c #86B12A",
"T. c #89B42C",
"R. c #84AC32",
"E. c #86AB36",
"W. c #86B130",
"Q. c #8AB234",
"!. c #8BB13B",
"~. c #8EB440",
"^. c #90B543",
"/. c #828777",
"(. c #919B7B",
"). c #848585",
"_. c #8D8D8C",
"`. c #9C9B8C",
"'. c #979797",
"]. c #9D9D9C",
"[. c #9FA78F",
"{. c #A1A594",
"}. c #A4AB96",
"|. c #AAB297",
" X c #A2A2A2",
".X c #AAAAAA",
"XX c #AEB1A7",
"oX c #BBB5A6",
"OX c #BBBBBB",
"+X c #FA989B",
"@X c #FDA7A9",
"#X c #FDB4B6",
"$X c #C7D2AF",
"%X c #CACFBE",
"&X c #C2C2C2",
"*X c #CCCBCB",
"=X c #CDD3C2",
"-X c #D5D5D5",
";X c #DDDDDD",
":X c #FCC6C7",
">X c #FDCFD0",
",X c #E0DEDE",
"<X c #FED3D6",
"1X c #FEDADC",
"2X c #E3E3E3",
"3X c #EDEDED",
"4X c #FEE4E5",
"5X c #F4F4F4",
"6X c #FFF4F4",
"7X c #FDFCFC",
/* pixels */
"1.3.8.L.L.e.5.=.1.4.d.G.H.r.d.d.H.t.d.d.-.2.2.5.e.n.5.u.i.L.n.4.1.3.8.L.Y.e.2.2.=.3.v.n.H.a.d.d.n.i.i.y.-.2.5.e.u.a.e.u.x.L.L.4.",
"1.x.u.L.N.*.$.-.5.8.v.Y.H.u.d.a.I.y.d.a.-.:.:.5.5.i.2.5.d.I.v.2.4.x.x.N.N.*.*.2.5.8.i.Y.H.e.a.a.H.y.d.a.-.-.-.5.2.i.-.2.x.T.v.4.",
"i.v.4.h.u.u.u.n.5.5.u.L.d.d.5.-.a.A.y.y.e.9.0.r.5.i.e.e.e.a.d.2.u.v.8.8.u.8.e.d.5.5.e.H.n.n.5.2.y.A.a.r.e.q.:.e.5.i.e.q.r.D.L.2.",
"m.N.M.x.8.x.8.x.5.r.v.n.v.d.5.%.y.y.q.q.y.r.q.q.e.r.r.e.q.e.A.i.m.M.M.h.8.x.u.i.u.u.n.H.n.d.-.&.y.y.r.y.y.r.y.e.e.e.r.r.e.e.A.e.",
"L.m.i.4.5.N.M.M.u.d.d.u.v.5.-.*.e.-.0.q.q.:.&.%.e.5.-.e.q.y.d.n.Y.m.u.4.8.N.M.M.u.d.d.u.v.e.%.*.r.0.0.q.q.&.&.%.e.5.:.0.r.D.Z.u.",
"m.n.u.*.<.v.v.8.1.r.i.5.i.u.d.d.I.0.0.q.0.&.$.&.d.-.%.q.a.a.5.u.v.n.u.=.1.x.v.8.2.i.i.2.u.u.H.d.A.0.0.r.0.-.%.%.a.-.%.0.A.y.8.-.",
"u.n.R.M.u.m.8.2.2.G.L.2.1.#.5.e.y.:.e.:.:.y.5.5.u.5.2.i.A.y.e.q.e.N.R.x.x.n.8.2.2.n.L.2.2.#.5.5.y.:.r.-.0.a.:.e.e.5.;.r.A.A.7.0.",
"1.8.M.N.M.L.a.e.u.L.L.x.8.#.5.8.r.Z.U.e.5.r.&.:.-.8.e.i.e.d.A.y.2.8.M.M.N.L.i.e.5.L.L.v.8.#.8.5.t.s.U.q.0.e.%.2.5.8.5.r.r.D.H.d.",
"=.1.<.8.x.v.u.v.u.i.x.8.8.8.u.8.5.d.d.i.a.e.5.1.2.i.d.u.e.I.Y.n.2.1.#.4.x.m.u.v.u.i.x.4.8.4.v.8.e.d.d.i.i.e.2.2.-.i.d.e.0.J.L.d.",
"5.5.#.2.x.x.8.M.v.d.i.u.M.v.u.1.2.N.n.5.i.u.H.4.1.u.n.e.r.H.u.5.5.u.$.4.x.x.4.M.N.i.v.8.M.m.8.=.1.H.d.2.a.i.m.2.*.u.n.e.a.P.u.-.",
"v.v.m.u.v.v.8.M.M.G.1.v.R.L.x.u.m.T.4.5.2.2.T.u.u.v.u.r.d.A.8.4.v.v.m.u.v.m.x.v.M.m.1.v.R.L.h.i.m.Y.2.e.-.1.L.i.x.v.u.e.H.D.8.e.",
"m.m.L.v.u.x.u.x.8.i.u.R.M.v.N.8.1.i.1.+.=.1.8.*.8.i.5.=.-.-.%.5.v.n.L.n.x.x.u.x.8.v.x.T.v.m.N.8.1.x.4.#.=.1.8.=.5.v.e.%.;.1.=.2.",
"m.L.v.8.u.x.d.i.4.v.N.L.m.v.M.4.*.8.4.#.2.8.2.=.2.u.5.u.u.y.i.y.d.L.v.8.h.v.v.v.2.v.L.L.M.v.M.2.1.8.4.#.2.8.2.*.4.8.5.e.8.D.j.r.",
"u.v.4.1.u.x.u.m.x.N.v.h.N.u.u.u.u.8.n.8.u.5.u.v.u.u.8.1.5.i.a.i.u.v.2.1.8.u.u.v.x.M.M.h.N.h.x.v.u.u.v.5.u.5.i.i.i.u.e.&.5.D.K.u.",
"v.n.8.5.4.1.3.v.x.v.v.u.v.2.x.N.v.u.Y.u.8.2.v.H.i.n.n.r.i.i.L.M.i.n.5.5.8.1.3.x.x.v.v.8.v.2.v.m.x.i.Y.u.5.2.v.N.v.n.m.r.v.M.P.n.",
"v.H.5.e.<.#.<.M.g.4.8.u.8.8.u.2.u.K.v.v.u.8.u.u.e.H.d.H.d.5.v.n.m.n.e.e.2.#.<.N.8.3.4.u.u.4.u.2.u.N.v.u.u.u.i.u.e.n.H.H.D.7.x.a.",
"v.T.L.8.8.2.8.N.4.4.x.4.4.u.u.1.8.n.1.u.i.i.5.=.=.i.2.e.i.=.5.i.v.T.G.8.8.5.8.L.4.2.8.8.2.u.u.2.8.H.2.u.u.i.5.1.=.i.-.e.i.1.6.i.",
"-.i.m.8.N.d.u.n.u.N.N.2.*.5.d.G.4.5.2.e.2.2.5.-.=.e.*.5.!.K.R.R.B.!.~.E.^.R.8.H.x.M.n.1.*.2.v.n.4.5.2.5.&.e.5.-.*.e.=.2.d.8.7.u.",
"#.2.i.d.H.5.i.i.8.N.m.8.-.-.r.H.r.e.i.y.r.:.i.u.H.a.e.T.$X=X=X=X=X=X=X=X%X[.K.u.x.L.v.u.-.-.e.I.i.5.i.i.e.2.i.e.m.a.e.y.r.Z.e.2.",
"1.1.2.d.d.e.n.u.8.N.x.u.-.+.-.d.a.e.e.A.I.i.A.i.n.n.a.4.0 7 7 7 7 , 7 7 4 5 h.8.8.N.x.e.-.%.:.n.d.e.r.A.I.i.d.a.H.I.a.t.:.;.:.2.",
"4.2.2.2.*.u.d.v.x.L.L.i.-.+.%.r.d.e.:.e.d.d.H.x.6.6.8.,.6 O O O o O O O O > f.g.g.z.k.i.-.+.%.r.d.e.5.r.d.a.A.d.e.e.y.a.&.0.&.%.",
"u.u.e.-.2.e.-.n.x.4.v.i.e.-.e.a.H.i.5.5.r.a.x.c l l j d H L L L L L L L L G d j j j h g.5.5.;.a.I.r.:.e.i.d.a.d.-.0.0.Z.r.y.0.%.",
"v.8.4.e.e.e.$.u.8.#.8.v.n.n.m.H.A.a.e.d.Q.R.k.q % o o - T ( ! ! Q ! Q Q ^ Y = + o + $ z.R.Q.L.H.d.d.e.i.A.a.e.y.-.r.r.r.y.I.y.e.",
"G.v.5.i.=.2.-.5.u.u.x.u.i.H.H.u.e.e.5.L.$X|.oXJ y t t u ..X.../ ^ ! ! ! ^ E i t y t a oX|.$X!.u.e.e.e.e.a.r.:.r.0.e.r.y.r.d.d.y.",
"v.x.i.H.e.8.r.2.8.v.v.h.5.i.u.1.-.e.-.h.}.8 1 I W R R ] >X1X+X` ! ! ! ! ! ! E E E R P < 8 /.k.1.=.5.2.%.a.e.0.y.y.q.9.q.t.a.A.e.",
"8.5.i.n.d.e.u.2.2.8.M.v.5.8.2.*.*.2.5.v.{.* O P ^ ) ` } 1X6X@X} ' ^ ! ! ! ! ! ! ! ! Y O % C.g.=.$.e.e.:.a.e.:.r.s.y.r.9.&.A.A.4.",
"M.i.v.v.u.i.n.i.<.8.8.n.m.i.*.*.*.5.r.Q.{.% O P ) ..:X<X7X7X4X>X#X[ / ^ ! ! ! ! ! ! U = % C.3.=.*.e.i.d.d.y.e.-.y.d.y.s.r.A.r.*.",
"x.u.v.u.5.H.H.i.#.1.1.L.m.u.2.i.5.8.k.!.{., = P ) o.4X6X7X7X6X6X1X[ ^ ^ ! ! ! ! ! ! Y = & B z.K.u.5.5.r.r.y.y.:.y.s.d.s.5.-.=.4.",
"8.N.v.8.=.5.u.d.n.u.2.x.i.v.i.v.5.6.[.{. .s i Y ) ..@X#X6X6X1X#X+X[ ! ! ! ! ! ! ! ! E i u | `.(.3.=.2.e.a.H.H.e.d.a.d.n.5.%.%.7.",
"N.M.n.v.5.d.i.u.n.x.v.v.v.i.5.u.*.@.l , s R E Q ! / ` } 1X6X@X{ ` ^ ! ! ! ! ! ! ! ! Q E Y S , 4 O.+.%.e.I.Y.U.H.n.y.a.n.v.8.=.u.",
"N.4.v.m.n.n.u.i.L.v.M.u.T.T.n.2.#.@.0 + y E ! ! ! ! ! ' :X1X+X_ R R Y E ! ! ! ! ! ! ! ! E A o # k $.5.u.i.H.I.G.a.e.5.v.L.J.7.8.",
"u.>.x.m.i.e.5.i.L.N.m.m.Y.n.i.a.d.3.q o y E ! ! ! ! ! ^ { } K e : : e S Q ! ! ! ! ! ! ^ Q A o # 1.e.2.u.e.u.i.d.i.i.8.v.i.L.i.2.",
"4.<.u.m.L.e.5.-.1.8.v.H.H.y.d.d.n.g.g o t Y Q ^ ! ! ! ! ~ E F - + + @ p E Q ! ! ! ! ! Q R A o # 6.e.a.i.2.5.2.u.u.d.e.u.u.H.H.4.",
"<.x.x.L.H.@.%.1.5.8.n.L.H.u.i.i.I.8.g + e S D E ! ! ! E G F J C V b b f F D E ! ! ! Q D S r . # 6.a.A.a.&.0.:.5.2.u.4.2.i.P.d.4.",
"u.v.8.g.u.8.8.n.5.2.u.H.n.n.0.-.a.x.q . . o ; P ! ! ^ R e - C ;X3X2X-X .- ; R ! ! ! Y ; o .   # 5.A.y.y.q.-.0.e.0.i.e.9.e.y.H.9.",
"m.R.M.x.8.v.x.v.u.e.d.n.d.n.-.&.y.8.q X X * 1 I Y Y Y P ; + Z 3X5X-X&XZ X O L Y Y Y I 1 * %   # 1.y.r.r.y.q.r.e.e.e.i.t.e.e.d.e.",
"N.m.i.4.8.n.M.v.u.d.H.e.v.r.1.*.r.1.q % x *X*Xd : ; ; ;   X n 2X-X&X&XZ %   = ; ; ; 1 &X-XZ X # <.;.:.q.q.:.%.%.e.2.2.e.y.r.Z.e.",
"H.n.u.1.1.M.v.8.1.d.e.5.i.8.b.s.A.1.g * n 2X;Xz % % % + % * b -X&X&X-XZ * X + + X X 8 -X2X_.* 3 8.-.0.r.0.:.=.-.v.0.=.e.A.Z.0.5.",
"u.N.L.v.8.v.5.1.-.m.L.8.1.#.5.u.r.6./.v ). X X).Z Z Z Z Z Z Z ).Z Z Z V b x x x x x n '. X_.m v u.:.r.:.:.y.:.e.i.2.;.i.H.Z.0.7.",
"-.8.M.N.K.L.a.e.e.L.L.x.8.#.5.5.e.G.Q.K.{.8 w *X3X3X3X3X3X2X].7 X % * n *XOXOXOXOXOX*Xw 8 C.l.h.e.H.T.5.-.r.&.-.-.u.e.i.e.Z.A.d.",
"=.<.#.4.u.v.u.v.u.v.u.4.8.8.x.8.5.A.d.R.{.% * *X5X7X7X7X7X5X.Xw 7 7 8 n &X&X&X&X&X*X-X7 % C.B.4.5.d.d.i.i.e.-.2.2.i.m.e.w.I.I.n.",
"4.u.$.4.v.v.8.M.v.n.v.u.M.v.8.1.5.L.D.k.{.* *  X*X;X7X7X7X7X5X,X,X,X;X-X&X&X&X&XOX&X-X7 % C.k.=.2.H.n.5.i.i.H.4.=.8.x.i.s.I.i.w.",
"v.n.m.i.v.v.h.N.N.m.1.v.K.L.x.u.d.Y.5.M.}.7 7 '.OX-X5X5X7X7X7X7X7X7X5X2X&X&XOXOXOX&X*Xw 7 C.M.i.n.Y.5.5.2.2.Y.v.x.i.u.u.m.d.;.e.",
"v.m.L.v.i.v.8.u.8.v.u.T.v.N.m.8.1.u.1.g.oXN M V V ).]..X;X2X2X2X2X2X2X-X&X&XZ V V V Z N C.[.E.u.1.u.1.#.=.1.4.=.8.v.4.2.-.=.%.-.",
"m.L.M.8.8.x.d.i.4.M.N.L.N.v.n.2.=.8.4.#.M.h.f.0 % % % 8 .X*X*X*X*X*X*X*X*X-X8 % X X 3 l.B.B.N.4.1.8.2.#.4.5.2.*.4.u.2.4.5.Z.8.i.",
"u.v.4.1.h.u.i.n.u.N.M.8.L.h.u.v.x.8.n.5.e.4.4.9 # # # 5 ].*X;X-X;X-X-X-X-XXX5 # # # 2 f.N.x.x.x.u.8.G.5.u.5.i.v.e.i.u.2.1.Z.D.v.",
"v.n.5.8.4.<.<.v.h.v.u.u.v.2.x.m.v.x.L.u.2.2.x.M.3.3.3.,.0 7 7 7 7 7 7 * 7 7 k f.f.f.3.4.n.2.i.n.v.u.L.u.4.2.i.L.v.n.m.x.x.a.H.d.",
"v.H.5.e.2.#.<.M.8.3.8.u.8.4.x.2.u.L.v.u.i.u.8.u.e.d.d.h.9 % + % % % % % % 3 O.B.4.4.4.u.u.4.u.4.8.L.x.i.u.i.u.i.e.n.m.I.G.e.i.d.",
"i.Y.L.5.8.2.8.L.4.3.8.8.2.u.8.2.e.m.1.u.u.i.5.1.=.i.5.h.V.B N C.B V.B N B v g.L.8.1.8.5.2.u.u.2.8.n.1.u.i.i.5.2.=.i.5.u.i.=.5.i.",
"2.x.N.u.L.d.8.n.u.M.N.2.*.5.i.n.2.4.5.5.2.5.5.-.-.5.=.2.M.8.u.h.g.z.N.k.E.M.u.v.x.M.M.2.&.2.d.n.4.e.2.5.2.2.5.=.=.5.*.9.i.:.5.u.",
"*.2.v.n.H.5.i.u.u.N.m.8.-.-.i.H.i.w.i.y.i.-.a.e.I.d.e.a.e.y.i.-.*.1.i.n.H.5.d.i.u.L.M.u.2.-.r.H.i.e.d.i.a.-.d.e.n.a.2.a.r.y.e.-.",
"1.=.2.i.a.8.H.u.8.L.x.e.-.$.-.d.a.e.t.H.H.e.A.i.d.m.s.r.:.-.5.=.1.=.5.v.i.e.d.u.8.M.8.e.-.$.-.a.i.e.e.A.I.e.d.a.I.H.d.y.:.;.:.-.",
"5.5.5.=.=.e.v.d.v.N.L.i.-.+.%.r.d.e.-.e.S.s.H.a.r.r.e.a.q.-.=.=.2.2.2.-.&.u.i.v.v.L.H.i.=.+.%.i.d.e.:.r.n.d.H.a.e.t.y.a.:.&.&.&.",
"8.u.5.2.5.e.-.m.u.4.M.i.e.5.-.a.I.i.5.q.y.y.s.d.-.-.0.A.r.i.5.2.8.u.u.-.e.e.2.n.x.3.v.i.e.-.e.a.A.y.-.e.i.d.a.y.&.0.w.p.r.y.;.%.",
"v.u.5.e.e.e.%.u.8.#.8.i.d.n.H.H.n.i.e.y.d.s.e.r.-.0.y.y.y.I.d.u.v.8.2.5.e.5.$.u.8.#.8.v.n.H.d.H.H.d.e.a.A.a.0.t.-.q.y.y.a.A.y.e.",
"m.x.8.u.=.5.-.2.u.x.v.u.i.H.I.i.e.r.e.e.a.y.2.y.0.r.r.y.y.H.n.x.v.u.u.i.=.5.2.4.8.u.x.u.n.H.H.i.e.e.e.e.a.r.-.d.0.e.r.d.y.A.i.y.",
"v.u.d.H.e.8.r.1.4.M.v.u.4.u.i.=.=.5.5.%.i.e.:.a.y.e.0.e.e.m.m.u.v.v.i.H.u.u.e.2.8.v.x.u.8.u.u.-.%.e.-.%.r.e.9.y.r.e.9.t.e.A.d.u.",
"8.8.u.G.n.e.e.5.4.u.v.v.8.8.2.*.$.5.5.:.y.e.-.r.a.y.y.-.:.H.n.2.8.3.v.n.d.5.5.2.2.h.M.v.8.4.2.*.*.2.e.5.A.r.:.e.y.a.t.-.9.I.a.2.",
"L.x.v.v.e.a.n.u.#.8.8.v.m.v.=.*.*.e.i.d.d.i.r.:.y.A.y.a.e.m.u.1.n.x.v.i.e.i.m.i.*.8.8.n.n.i.*.=.*.5.i.d.d.i.e.q.y.A.y.d.8.A.e.*.",
"8.x.v.e.5.G.Y.e.*.1.4.N.n.u.2.x.e.e.2.i.y.y.y.-.r.A.d.d.5.2.2.4.8.v.v.u.8.n.H.i.<.1.4.N.v.u.2.v.u.8.5.e.t.r.y.-.y.A.a.n.5.2.-.4.",
"8.v.v.u.=.5.e.H.v.x.2.i.i.d.i.i.%.=.2.e.a.H.d.i.y.d.I.d.5.=.@.h.8.L.x.8.&.e.e.n.n.u.4.x.v.v.u.i.-.=.2.e.a.H.H.e.p.a.n.n.5.=.$.8.",
"K.M.v.v.5.d.u.v.H.x.x.v.v.v.e.8.=.#.=.5.A.Y.U.H.d.y.t.I.H.5.<.8.M.v.v.d.u.d.r.u.N.x.x.v.v.i.i.5.=.+.%.e.d.U.U.I.d.a.t.m.m.7.1.8.",
"L.8.v.H.d.d.u.u.L.v.N.u.Y.T.n.2.$.$.5.u.n.I.H.I.d.e.0.n.Y.L.3.8.M.8.M.m.v.d.u.v.L.v.n.i.Y.Y.n.2.$.%.5.u.v.H.I.I.d.e.5.m.L.P.7.3.",
"h.>.x.G.i.5.5.v.Q.m.N.H.Y.n.i.a.d.e.2.e.e.i.u.n.i.u.5.d.v.L.M.8.8.<.v.d.r.5.e.d.T.m.m.I.Y.d.i.i.d.5.2.u.u.e.i.n.i.i.u.v.v.J.v.4."
};
