/* XPM */
static char *f23a08284f9a4f3b8885b8e9a6f00abatXYlmfXRHjg6UFSp[] = {
/* columns rows colors chars-per-pixel */
"50 50 154 2 ",
"   c None",
".  c #2D3A0E",
"X  c #27340C",
"o  c #2D3511",
"O  c #2E3912",
"+  c #2E3819",
"@  c #303717",
"#  c #323A16",
"$  c #38381D",
"%  c #3C3922",
"&  c #433D29",
"*  c #423930",
"=  c #374016",
"-  c #3D451B",
";  c #3B4425",
":  c #4A531D",
">  c #4F581E",
",  c #41462E",
"<  c #434A2D",
"1  c #55433A",
"2  c #646629",
"3  c #7C7C2D",
"4  c #5C4742",
"5  c #6B4D4C",
"6  c #6F4F50",
"7  c #765456",
"8  c #79545A",
"9  c #67675F",
"0  c #676C57",
"q  c #76785A",
"w  c #717560",
"e  c #74776A",
"r  c #815B5E",
"t  c #815960",
"y  c #7F8157",
"u  c #82862B",
"i  c #898F2C",
"p  c #848433",
"a  c #868930",
"s  c #8B8C33",
"d  c #909033",
"f  c #9B9D35",
"g  c #99993C",
"h  c #9EA134",
"j  c #B9BC2F",
"k  c #A2A535",
"l  c #ACAC34",
"z  c #A4A439",
"x  c #A3A83A",
"c  c #AEAD3B",
"v  c #B2B335",
"b  c #BCBC35",
"n  c #B4B43C",
"m  c #B6BC3A",
"M  c #BBBC3A",
"N  c #BEC235",
"B  c #BEC13C",
"V  c #D4D52F",
"C  c #DDDE2F",
"Z  c #CACB36",
"A  c #C3C73D",
"S  c #C7CB3B",
"D  c #CDCE38",
"F  c #C1C336",
"G  c #CFD236",
"H  c #CED13C",
"J  c #D3D436",
"K  c #D7D936",
"L  c #DADB33",
"P  c #D3D53D",
"I  c #DCDC39",
"U  c #E1DF32",
"Y  c #DFE02B",
"T  c #ECEC27",
"R  c #E4E52D",
"E  c #E7E82D",
"W  c #EEED2B",
"Q  c #F0EE27",
"!  c #F0EF2B",
"~  c #EFF02C",
"^  c #F3F226",
"/  c #F3F22A",
"(  c #E3E334",
")  c #E8E732",
"_  c #EAEA33",
"`  c #E2E238",
"'  c #F3F233",
"]  c #F3F239",
"[  c #9D9F4C",
"{  c #9FA04B",
"}  c #AAAC49",
"|  c #B3B241",
" . c #BDBE43",
".. c #B4B75C",
"X. c #B1B255",
"o. c #898B62",
"O. c #A6AB7C",
"+. c #BEBF76",
"@. c #B3B47D",
"#. c #BDBD7E",
"$. c #C5C742",
"%. c #C9CC42",
"&. c #C5C84E",
"*. c #CDCE4A",
"=. c #CED143",
"-. c #D2D340",
";. c #D2D24E",
":. c #CDCE50",
">. c #C1C259",
",. c #EAEB48",
"<. c #F1F14E",
"1. c #F5F453",
"2. c #C4C565",
"3. c #C9CB67",
"4. c #C0C171",
"5. c #C6C87D",
"6. c #F4F36A",
"7. c #F5F472",
"8. c #F4F57A",
"9. c #A0A385",
"0. c #B0B396",
"q. c #B7B5AB",
"w. c #C2C184",
"e. c #C6C887",
"r. c #C3C389",
"t. c #F4F584",
"y. c #CACDA0",
"u. c #CDCDAE",
"i. c #C5C3A9",
"p. c #CFD1B7",
"a. c #D3D4B4",
"s. c #D3D3BC",
"d. c #D9D9BD",
"f. c #D6D6C1",
"g. c #DAD9C0",
"h. c #DCDBCD",
"j. c #E0DFCD",
"k. c #E5E4D4",
"l. c #EAE9D7",
"z. c #EFEFDE",
"x. c #EAE9DD",
"c. c #F6F6E7",
"v. c #FDFCE7",
"b. c #FEFDE7",
"n. c #FEFDE6",
"m. c #FEFEE7",
"M. c #FCFDE5",
"N. c #FAFAE6",
"B. c #F6F5E8",
"V. c #FCFBE8",
"C. c #FFFDE8",
"Z. c #FFFEE8",
"A. c #FDFCEA",
"S. c #F8F8E8",
/* pixels */
"                                                                                                    ",
"                                                                                                    ",
"                                                                                                    ",
"                                                                                                    ",
"                                                                2 m d                               ",
"                                                    g | | f u s / / P                               ",
"                                            2 D ,.6.8.8.8.1./ R C / ^ I                             ",
"                                        a J / ] 7.t.t.8.7.1./ / ^ / ^ / J                           ",
"                                      b / / / ] 6.6.<.] ' / / / / ^ / Y B                           ",
"                                    R / / / / / / / / / / / / / T / / / ! s                         ",
"                                  ..} ` ^ / / / / / / / / / / / / / / / ^ / p                       ",
"                            9 k.h.x.l.#.E ^ / / / / ^ ^ / / / / / / / / / / (                       ",
"                            c.b.h.l.b.V.r.' / / / / W / / / / T / / / / / / ^ h                     ",
"                          h.b.b.b.b.b.b.k.J T / _ ` ` W / ^ / / / / / T / / T ]                     ",
"                          N.b.Z.Z.Z.b.b.S.M _ 4.d.k.k.a.2.! ^ ^ / / / / / / ^ ^ v                   ",
"                          N.b.b.b.Z.b.b.z.A r.Z.b.b.b.q.B.@.L / / / / / / / / ^ L                   ",
"                        g p.b.b.b.b.b.b.u.:.z.b.b.Z.b.h.Z.c.X.^ / / / / / / / / /                   ",
"                        A >.j.Z.b.z.u.f.;.+.Z.b.Z.b.Z.b.b.b.0.I / / / / / / / / / p                 ",
"                      h / E P w.a.O./ M ' r.Z.b.Z.Z.Z.Z.Z.b.a.] / / T / / / / / / B                 ",
"                      _ / / / / T ) A / / 2.V.b.b.Z.Z.b.b.b.y.^ / / / / / / / / / L                 ",
"                    x T ^ ) / / / ^ / / / ` g.b.Z.b.Z.b.b.b.3./ / / / / / / / / / `                 ",
"                    V / J P i : o.[ I ^ / ^ =.s.b.b.b.b.V.i.R / / / / / / / T / / )                 ",
"                    W W H u . . O ; 0 @.M W ^ I 5.a.h.s.e.` / / / / ! / / / T / / _                 ",
"                  a / K I O . . . . . + 0 q *./ / _ ` _ ( J / / / ! / / / / / / / (                 ",
"                  J ^ P M X . . . . . . . O < u E L H H L / / / / / / / / / / / / `                 ",
"                  W / L P = . . . . @ 4 & o . . x J ^ / / ^ / / / / / / / / / / / P                 ",
"                  / / / m M > # e , O % 6 8 $ . : $./ / / / / T / / / / / / ^ / / m                 ",
"                l / / / / D -._ K &.y < o 1 t % # %._ / / / / / / / / / / / T ^ / 3                 ",
"                b / ^ / / / / / / / / { w ; 5 7 - H _ / / ^ / / / / / / / / / ^ /                   ",
"                J / ! / / / / / / / ^ W  .9.* r v A / / W / / / / / / / / / / / (                   ",
"                U ^ / / / ^ / / / / / / G %.k M S L ^ / / / / / / / / / / / / ^ F                   ",
"                L / / / / / ^ / / / / / / _ L K W / ^ / / / / / / / / / / / / ^ 3                   ",
"                D / / / / / / / / / / / / / / / / / / / / / / / / / / / / / / _                     ",
"                j ^ T / / / / / / / / / / / / / / W / / / / / / / / / / / / / f                     ",
"                l / / / / / / / / / / / / / / / / / / / / / / T / / / / / / W                       ",
"                f / / / / / / / / / / / / / / / / / / / / / / / / / / / / / Z                       ",
"                  / / / / / / / / / / / / / / / / / / / / / / / / / / / / '                         ",
"                  ( / / / ! ^ / / / / / / / / / / / / / / / / / / / / / ^ b                         ",
"                  k / / / ^ / / / T / / / / / / / / / / T / / / / / / / _                           ",
"                    ) ^ ^ / / / / / / / / / / / / / / / / / / / / / ^ / 3                           ",
"                    a I ! / / / / / / / / / / / / / / / / / / / / / / l                             ",
"                      s K ^ / / / / / / / T / / / / / / / / / / / / v                               ",
"                        v / / / / / / / / / / / / / / Q / / / / / N                                 ",
"                        n ^ / / T / / / / / / / / / / / / / ^ / b                                   ",
"                        H / / / / / / / / / / ~ / / / / / / W f                                     ",
"                        l / / / / / / / / / / W ^ / / / T Z                                         ",
"                          _ / ^ ^ / ~ / ^ / / ^ / / _ l                                             ",
"                          p D L b       h n c n z                                                   ",
"                                                                                                    ",
"                                                                                                    "
};
