/* XPM */
static char *_9a6a9b816234e36bcd4dffa2c655163IioG87rPU7HMGUNw[] = {
/* columns rows colors chars-per-pixel */
"50 50 201 2 ",
"   c None",
".  c #030303",
"X  c #0A0505",
"o  c #070B05",
"O  c #080B07",
"+  c #0C0C0C",
"@  c #140C0C",
"#  c #1A0D0D",
"$  c #100405",
"%  c #0B1405",
"&  c #0D1905",
"*  c #0C130A",
"=  c #0E180A",
"-  c #121A05",
";  c #11140C",
":  c #111B0C",
">  c #0F0F10",
",  c #150E11",
"<  c #141412",
"1  c #1C1314",
"2  c #151B13",
"3  c #1B1C1B",
"4  c #1B1E16",
"5  c #250F0F",
"6  c #231413",
"7  c #221C1C",
"8  c #291717",
"9  c #351C1B",
"0  c #311816",
"q  c #14210A",
"w  c #162112",
"e  c #1A2413",
"r  c #1A2A16",
"t  c #1D221B",
"y  c #1E2A1A",
"u  c #1C3115",
"i  c #1F3218",
"p  c #24231E",
"a  c #222C1D",
"s  c #39221D",
"d  c #31211C",
"f  c #24331B",
"g  c #26381C",
"h  c #2A3B1D",
"j  c #253717",
"k  c #2B1F21",
"l  c #232324",
"z  c #2A2324",
"x  c #2A2B25",
"c  c #2C2C2B",
"v  c #272A26",
"b  c #312E2D",
"n  c #392625",
"m  c #253222",
"M  c #2A3527",
"N  c #2B3D22",
"B  c #2B362B",
"V  c #2A392B",
"C  c #31322C",
"Z  c #303C2B",
"A  c #343828",
"S  c #323232",
"D  c #3A3331",
"F  c #3B3D35",
"G  c #3D3D3C",
"H  c #2E3535",
"J  c #411F1F",
"K  c #47231E",
"L  c #4C2B2B",
"P  c #472827",
"I  c #54302C",
"U  c #462D30",
"Y  c #552F30",
"T  c #4B3532",
"R  c #4B3737",
"E  c #563737",
"W  c #4B322D",
"Q  c #683B3D",
"!  c #2A411B",
"~  c #344E1F",
"^  c #3E6018",
"/  c #2D4225",
"(  c #324326",
")  c #354C25",
"_  c #35442C",
"`  c #354C2B",
"'  c #3A4B2D",
"]  c #38472B",
"[  c #3A5124",
"{  c #3B542B",
"}  c #364332",
"|  c #3B4630",
" . c #3A4932",
".. c #3C433A",
"X. c #3E5131",
"o. c #497B18",
"O. c #455B2E",
"+. c #43433E",
"@. c #48443F",
"#. c #57423D",
"$. c #445C33",
"%. c #465738",
"&. c #76423B",
"*. c #4A6E2D",
"=. c #456529",
"-. c #516F2F",
";. c #467721",
":. c #4B752D",
">. c #476632",
",. c #4A6532",
"<. c #4D6C34",
"1. c #4B6539",
"2. c #546D3C",
"3. c #516C35",
"4. c #4D7233",
"5. c #587637",
"6. c #53732C",
"7. c #413F40",
"8. c #623D40",
"9. c #394241",
"0. c #434344",
"q. c #494543",
"w. c #424B4A",
"e. c #4A4949",
"r. c #5A4647",
"t. c #4A5443",
"y. c #59584D",
"u. c #5C5953",
"i. c #784A4A",
"p. c #72534E",
"a. c #615E58",
"s. c #725150",
"d. c #556749",
"f. c #5F6656",
"g. c #65635C",
"h. c #63715C",
"j. c #5B6464",
"k. c #6A6463",
"l. c #686665",
"z. c #726B66",
"x. c #75726D",
"c. c #757969",
"v. c #786E70",
"b. c #6B7678",
"n. c #7E7A73",
"m. c #70777B",
"M. c #6A7463",
"N. c #854D4D",
"B. c #99574C",
"V. c #8C5154",
"C. c #9D5659",
"Z. c #975856",
"A. c #A2574A",
"S. c #A55747",
"D. c #A55759",
"F. c #80625C",
"G. c #837C77",
"H. c #8E6C64",
"J. c #A37669",
"K. c #58861E",
"L. c #65981D",
"P. c #588827",
"I. c #5E8930",
"U. c #5C8132",
"Y. c #618B2F",
"T. c #649724",
"R. c #639822",
"E. c #6B962F",
"W. c #648C34",
"Q. c #628139",
"!. c #6A8E39",
"~. c #608533",
"^. c #679531",
"/. c #6B9239",
"(. c #648441",
"). c #72806C",
"_. c #7D8773",
"`. c #84887B",
"'. c #707A81",
"]. c #7F8789",
"[. c #9C928A",
"{. c #949787",
"}. c #8C928F",
"|. c #A69A8F",
" X c #9AA488",
".X c #B0A296",
"XX c #A9B293",
"oX c #96A4AC",
"OX c #9FB2BA",
"+X c #A3B3BC",
"@X c #ABB5AE",
"#X c #BFC2B0",
"$X c #CED6B7",
"%X c #CDD5BB",
"&X c #CED4BC",
"*X c #D6DAC8",
"=X c #DDE6C5",
"-X c #E1E7CA",
";X c #ECFACD",
":X c #EDF2D5",
">X c #F2FAD4",
/* pixels */
"                                                                                                    ",
"                                                                                                    ",
"                                                                                                    ",
"                                                                                                    ",
"                                                                                                    ",
"                                                .                                                   ",
"                                        . . O : w : * . .                                           ",
"                                      . o ( 1.<.<.4.>.( * .                                         ",
"                                    . : 2.d./ V V m ! =.,.u .                                       ",
"                                  . *  .} j.oX+XOXOXm.B ` 1.r .                                     ",
"                                  . 2 H oXoXw.M M 9.}.+Xw.N X..                                     ",
"                                  O e b.'.V -.W.!.5.( w.].a >.*                                     ",
"                                . w $.g ' (.E.T.T.L./.2.( ) 4.r .                                   ",
"                                . j 3.' _ ) [ W.T.~.[ ] ` ) 4.! .                                   ",
"                                . ( ( M.%X%X`.) Q.(  X&X%Xh.) ) .                                   ",
"                                .  .} =X;X;X:Xt.%._.;X;X=X$XN O.o                                   ",
"                                . _ t.*Xt.$X:Xd.%.{.>XXXf.%XN $.O                                   ",
"                                . N Z #XXX-X@XN 2.y.-X-X%X{./ $.o                                   ",
"                            . . + h %.| c.c.Z g $.g %.).h.N <.=.O                                   ",
"                        . . + l c e i ] %.h 1./ f :.U.6.2.( u ` ; $ X                               ",
"                          . l q.l * B f h X.Q.,.j Y./.5.) f _ : 8 i.I @ .                           ",
"                        . . l e.t B 2 t } r [ 5.Q.3.h y ..3 w Z 9 B.A.&.$                           ",
"                        X X 3 e.4 a % = a t v M f t w.c C ; * ] s A.S.B.0 .                         ",
"                        X 8.z q.4 m % q - - ; p t t 2 % & q % ` d B.S.A.9 .                         ",
"                      X #.H.d q.t B : & * % ; - : : : & & & r / 6 B.A.&.# .                         ",
"                    X T J.J.W c 3 3 Z 2 t x 3 3 2 < < * 4 y  .x D P K U G.S .                       ",
"                  . # F.J.J.p.+ q.{.x | ' g y m a a f j X.%.C {.k.. . l D C < .                     ",
"                . b G.T T d @ X < a.n.F N 5.W.Y.~.I.W.Q.f G x.e.+ X   < [..X[.7                     ",
"                . 3 g.[.q..   . . . p F 2 =.T.L.R.R.R.I.j x 3 + 7 X   X x.|.y.<                     ",
"                  . X G.b .   . b k.p A $.!.R.R.R.R.L.^.2.( x x.e..   . @.x.. .                     ",
"                    . x.c .     @ u.z.+.y *.T.R.T.T.R.U.w +.u.+.+     . G u..                       ",
"                    . +.7 .     . . ; M y >.^.T.T.T.T.I.! f t < .     . 8 z .                       ",
"                  . < c 2 .     . 3 c  .<.P.R.T.T.R.T.K.^ g < O .     X 8.s.#                       ",
"                  . 2 0.l .       z `.a *.o.o.P.P.P.K./.O.t G c .     X i.V.6 X .                   ",
"              . + 2 c 0.3 .       X n.u.u >.:.;.;.:.*.[ w G 0.7.< .   X Q Z.i.R 8 .                 ",
"            . + S S c S l .     X 1 s k.g.M h ~ ) h m C 3 0.0.G + . X 1 r.L n U r.z .               ",
"            . 3 < . . . l +     . E V.P #.G.x.g.k.n.[.v.l 0.0.0.3 . . k @ . . . @ z .               ",
"            . . .       . .     . P D.C.Q 6 b q.e.q.x + v 0.q.q.l . . . .       . .                 ",
"                                  6 Z.D.N.@ . X . . . . 3 0.c 3 3 .                                 ",
"                                  X i.D.Y X           . X 3 C e.. .                                 ",
"                                . X 9 Y 8 X .           < D n D X                                   ",
"                                . 7 < @ 6 1 .           + n p.n .                                   ",
"                                . 1 , z X @ .         . 8 L J X                                     ",
"                                  . + c . .           X L Z.N.@                                     ",
"                                    + c .             X P C.Z.5                                     ",
"                                    + c .             X 8 i.Q # . .                                 ",
"                                  . 2 S .               X k k.l.j.w..                               ",
"                                . < S S < .             . l m.}.].j.+                               ",
"                                . . . . . .               . + > + . .                               ",
"                                                                                                    "
};
