/* XPM */
static char *c8dcb4d72cc34ae5c180cd8700f8d42dhp1VRrtlTgVkwHbW[] = {
/* columns rows colors chars-per-pixel */
"50 50 233 2 ",
"   c None",
".  c #020B00",
"X  c #0A0C0C",
"o  c #090703",
"O  c #1D0C0B",
"+  c #170807",
"@  c #041301",
"#  c #0B1504",
"$  c #0B1C02",
"%  c #091906",
"&  c #13140D",
"*  c #121E0C",
"=  c #191508",
"-  c #0C1813",
";  c #1B1513",
":  c #151C14",
">  c #1A1A13",
",  c #131B1A",
"<  c #191B1C",
"1  c #141615",
"2  c #100F14",
"3  c #250C09",
"4  c #25160A",
"5  c #321607",
"6  c #2C1614",
"7  c #231C16",
"8  c #221D1B",
"9  c #291716",
"0  c #331C1A",
"q  c #361B13",
"w  c #0C2005",
"e  c #182809",
"r  c #1A380B",
"t  c #1B2213",
"y  c #1A221A",
"u  c #1D2F15",
"i  c #1F3715",
"p  c #262907",
"a  c #382A02",
"s  c #222315",
"d  c #28221B",
"f  c #272A18",
"g  c #35241C",
"h  c #2B321E",
"j  c #293B17",
"k  c #393B14",
"l  c #303A08",
"z  c #231F23",
"x  c #341E21",
"c  c #1B2222",
"v  c #242A25",
"b  c #2C262D",
"n  c #2D2C2A",
"m  c #272826",
"M  c #372927",
"N  c #293728",
"B  c #32352D",
"V  c #37382A",
"C  c #2D3533",
"Z  c #393435",
"A  c #393736",
"S  c #242F31",
"D  c #4E1C14",
"F  c #4A2819",
"G  c #532919",
"H  c #4D3A0F",
"J  c #622F1C",
"K  c #402A29",
"L  c #45362E",
"P  c #563128",
"I  c #423C3D",
"U  c #463C39",
"Y  c #58393A",
"T  c #613E29",
"R  c #6C342E",
"E  c #2B4C0A",
"W  c #2C4318",
"Q  c #38491D",
"!  c #375619",
"~  c #334F0C",
"^  c #376A08",
"/  c #3A691B",
"(  c #39472B",
")  c #385324",
"_  c #3B433D",
"`  c #374433",
"'  c #2D472C",
"]  c #3F6431",
"[  c #525D19",
"{  c #426D1C",
"}  c #487619",
"|  c #425C2B",
" . c #43433B",
".. c #48463B",
"X. c #58423C",
"o. c #495B35",
"O. c #53563C",
"+. c #4B562D",
"@. c #684534",
"#. c #7C4B35",
"$. c #62442C",
"%. c #4A6928",
"&. c #556D2A",
"*. c #4C7422",
"=. c #4B7726",
"-. c #54742C",
";. c #557A29",
":. c #4A6937",
">. c #566537",
",. c #5F7A3C",
"<. c #587538",
"1. c #4F7135",
"2. c #67783B",
"3. c #657C2E",
"4. c #3D3F43",
"5. c #4D3D47",
"6. c #6A3A45",
"7. c #3E4343",
"8. c #3F4749",
"9. c #434344",
"0. c #454249",
"q. c #4C4C4C",
"w. c #454B4A",
"e. c #554A46",
"r. c #4E534C",
"t. c #4A554C",
"y. c #555749",
"u. c #555D54",
"i. c #595A59",
"p. c #4F5356",
"a. c #694748",
"s. c #784A45",
"d. c #7C5947",
"f. c #625B56",
"g. c #735253",
"h. c #775357",
"j. c #7F4E52",
"k. c #586947",
"l. c #557543",
"z. c #657B4A",
"x. c #666659",
"c. c #6A6A66",
"v. c #726B68",
"b. c #657367",
"n. c #74746D",
"m. c #787C6B",
"M. c #797B75",
"N. c #697171",
"B. c #8C5846",
"V. c #935D47",
"C. c #9B534C",
"Z. c #97594B",
"A. c #845252",
"S. c #89575B",
"D. c #955758",
"F. c #9D4F42",
"G. c #A0574A",
"H. c #A15D56",
"J. c #B05E52",
"K. c #86695D",
"L. c #9E6051",
"P. c #A36457",
"I. c #8C5B67",
"U. c #837B73",
"Y. c #8D756D",
"T. c #A77878",
"R. c #B77877",
"E. c #AE766E",
"W. c #C27B79",
"Q. c #54851D",
"!. c #5E981D",
"~. c #4C801C",
"^. c #669A1A",
"/. c #60940C",
"(. c #6BA117",
"). c #5C8D2C",
"_. c #588526",
"`. c #5E9222",
"'. c #5E9529",
"]. c #5D8636",
"[. c #5E9031",
"{. c #62892A",
"}. c #639A22",
"|. c #6A952C",
" X c #649B2C",
".X c #6A9B2A",
"XX c #639628",
"oX c #68873A",
"OX c #6B9233",
"+X c #689636",
"@X c #72933C",
"#X c #6C9346",
"$X c #6F8854",
"%X c #7C8278",
"&X c #698064",
"*X c #95897D",
"=X c #BB857C",
"-X c #A48479",
";X c #96B074",
":X c #7D7F82",
">X c #7A8581",
",X c #828482",
"<X c #888B87",
"1X c #998C86",
"2X c #94938A",
"3X c #919293",
"4X c #999799",
"5X c #8D958C",
"6X c #B09693",
"7X c #9AA09E",
"8X c #A9A698",
"9X c #A6B28C",
"0X c #9DA6A3",
"qX c #AAACAB",
"wX c #BAACA5",
"eX c #ABBAA9",
"rX c #B5B4A8",
"tX c #ABB8B4",
"yX c #B8B4B3",
"uX c #C48382",
"iX c #BFC2BC",
"pX c #ADC0A0",
"aX c #CCD7B6",
"sX c #D7EABD",
"dX c #C8C8C6",
"fX c #C5D6CC",
"gX c #DAE8C6",
"hX c #E2EACD",
"jX c #EBF7D5",
"kX c #EAEED3",
"lX c #E8E5E6",
"zX c #F8F9F9",
"xX c #E9F6EF",
/* pixels */
"                                                                                                    ",
"                                                                                                    ",
"                                                                                                    ",
"                                                                                                    ",
"                                                                                                    ",
"                                            %Xy.t.w.N.                                              ",
"                                        A . $ e e e w @ h                                           ",
"                                    :X, f >.l.<.%.<.%.! j @ 9.                                      ",
"                                  p.X % $X;X;X;.*.*.*.-.%.Q $ N                                     ",
"                                N.c >Xb.Q ,._.Q.} } =.*.*.<.) $ c.                                  ",
"                                c i.tXfXeX) ~ ].[.)._.~.*.-.l.i t                                   ",
"                                S y v B &X$XE #X+X X'.'.).{ -.| # 2X                                ",
"                                : V k.o.) E -.+X`.}.}.}. XQ.} %.e  .                                ",
"                                * h j ) W ! <.+X|.}.^.!.`. XQ.} j &                                 ",
"                                & f 8XgXgX;X~ oX|.}.}..X X+X_.*.o.o B y A                           ",
"                                & <XjXaXhXjX,.-.OX|.^.`. X+X_.-.o.= f e.U ;                         ",
"                                7 rXhX+.9XjXz.-.+X|.XX X XXX_.*.>.= K.-X-XX.M                       ",
"                                7 U.kXaXgXsXQ oXOX|.!.!.'.XX{.;.&.p d.=X6XK.3                       ",
"                                ; t &XeXpXk.! oX{.^.(./.!. X'.} 1.p d.E.=XA.6                       ",
"                              i.> r.N ` j @ ) #X|.^./.^..XXX).;.<.k $.=XuXE.q v.                    ",
"                              n X - y B N ' r ! +X XXXOX@X#X2.&.+.k @.=XW.R.a.O                     ",
"                                m X 1 y N @ W r oXoX3.[ l a a a a 5 G P.R.uXT.0 x.                  ",
"                                  n + ; ; o t f >.H a J #.B.Z.Z.V.#.J D E.=XT.M e.                  ",
"                                    e.e.  Z 8 f 5 T V.H.C.G.P.Z.Z.P.Z.R J T.Y.0 c.                  ",
"                                          m Z 6 F V.G.J.C.C.s.B.C.H.C.Z.G Y.X.3 yX                  ",
"                                        S < A + d.L.F.F.C.D P F s.Z.H.D.D g 4 U.                    ",
"                                *Xr.N $ u N f 6 T B.P.D.R s.wXe.3 s.D.D.5 M 2X                      ",
"                                > # j | z.W p p g @.@.P 5 a.wXL 4 q A.A.3 1X                        ",
"                                # o.-.{.@X{.,.z.O.f s V L ..U.U s o Y Y 4 dX                        ",
"                                * | *.{.|.{.! W N ` ` V s e.f.M M y.d d ..                          ",
"                              <X* o.-.OX{.E j y.u.q. . ...rXwX1XK e.o . ,X                          ",
"                              %X% k.{ ).OX~ r V m m n.m...2X8Xe.3 ; y - qX                          ",
"                              %X$ ] *.^ Q.OX#Xz.h <XM.y.M U.f.; 8 y.n.1 dX                          ",
"                              5Xw :./ ^ +XOX].W k.v.> d O M V c.d 3X9.n                             ",
"                                % W 1.;.@XoX,.r x.> d + a.g.0 f.n <Xm N.                            ",
"                                r.* o.2.2.2.Q w f A M 0 j.S.Y O 8 q.1 yX                            ",
"                                  t f k p p . : _ n 7 g.D.D.a.O ; X q.lX                            ",
"                                  B = O.x.y.> _ 7.m m Y A.S.h.; 8 m dXzX                            ",
"                                  y x.8Xn o Z w.w.7.m 9 S.j.M o z qXzX                              ",
"                                  , f.4Xn 1 0.4.w.4. .7 L 6 M ; I lX                                ",
"                                  N.o Z q.< b 0.0.9.I  .d & & X ,XzX                                ",
"                                    7XU X 2 z b 5.U U n & v c.3XlX                                  ",
"                                      lXb q.4XI 9 + O + B tXzXzX                                    ",
"                                        Z Z n.M 9 g.Y + r.xX                                        ",
"                                        yX .> ; 0 Y I.a.8 tX                                        ",
"                                          iXiXrXe.3 s.I.9 M.                                        ",
"                                      3X_ B A u.n.0 6.I.x v.                                        ",
"                                    <X, _ u.t.N : + 6.I.9 n.                                        ",
"                                    7.7.4XtX0X7X<Xi.M M ; qX                                        ",
"                                    9.< C S m C S m o & c.                                          "
};
