/* XPM */
static char *c10d2fd53a384bf8df76086b387f3d1fDXhiP1TfiTPsjNhv[] = {
/* columns rows colors chars-per-pixel */
"50 50 239 2 ",
"   c None",
".  c #050403",
"X  c #0B0204",
"o  c #020B01",
"O  c #0C0C0B",
"+  c #0B0B07",
"@  c #140B04",
"#  c #140B0C",
"$  c #1B0C0C",
"%  c #190706",
"&  c #041502",
"*  c #0A1403",
"=  c #0C1A02",
"-  c #0B130A",
";  c #091905",
":  c #11140D",
">  c #161909",
",  c #140D10",
"<  c #190E14",
"1  c #0E1110",
"2  c #151413",
"3  c #1B1413",
"4  c #1B1A15",
"5  c #141419",
"6  c #1D1C1C",
"7  c #191717",
"8  c #0F0F11",
"9  c #210B0D",
"0  c #2C0D0A",
"q  c #24120D",
"w  c #291909",
"e  c #32170A",
"r  c #270F11",
"t  c #211213",
"y  c #231A14",
"u  c #241B1B",
"i  c #2B1817",
"p  c #341513",
"a  c #331C1C",
"s  c #3D1314",
"d  c #3F0F1D",
"f  c #172507",
"g  c #1D221B",
"h  c #1C2715",
"j  c #0D2000",
"k  c #262409",
"l  c #362C09",
"z  c #273B0A",
"x  c #393809",
"c  c #24221C",
"v  c #292817",
"b  c #34231B",
"n  c #352616",
"m  c #283A19",
"M  c #34361A",
"N  c #1D1F23",
"B  c #251B20",
"V  c #2C1D24",
"C  c #3A1B21",
"Z  c #1F2221",
"A  c #232423",
"S  c #2C2323",
"D  c #292429",
"F  c #2C2B2B",
"G  c #272D23",
"H  c #322C2C",
"J  c #3B2D2A",
"K  c #352725",
"L  c #293223",
"P  c #29362A",
"I  c #353629",
"U  c #343435",
"Y  c #3B3333",
"T  c #353C35",
"R  c #3C3C35",
"E  c #363739",
"W  c #3B3B3C",
"Q  c #383739",
"!  c #2D3030",
"~  c #421918",
"^  c #46271B",
"/  c #5C2619",
"(  c #463C1A",
")  c #443C0E",
"_  c #432423",
"`  c #472B29",
"'  c #592B27",
"]  c #473228",
"[  c #56352B",
"{  c #433535",
"}  c #413638",
"|  c #443B3C",
" . c #4A3A38",
".. c #5D3535",
"X. c #5B3B37",
"o. c #432F31",
"O. c #6A332C",
"+. c #633B3A",
"@. c #6A3737",
"#. c #703533",
"$. c #793539",
"%. c #6C2C34",
"&. c #2D441C",
"*. c #32481D",
"=. c #354304",
"-. c #394629",
";. c #3C423D",
":. c #394734",
">. c #374E2A",
",. c #494D15",
"<. c #4B7C1C",
"1. c #49731A",
"2. c #4B7419",
"3. c #584D28",
"4. c #42592E",
"5. c #43433C",
"6. c #4B413C",
"7. c #584238",
"8. c #495637",
"9. c #545B38",
"0. c #4B4D24",
"q. c #68473C",
"w. c #695536",
"e. c #4B6B2D",
"r. c #486E23",
"t. c #4A7624",
"y. c #4B722D",
"u. c #4A7B20",
"i. c #53782A",
"p. c #4B6C35",
"a. c #4A6637",
"s. c #536B3C",
"d. c #537333",
"f. c #5E7332",
"g. c #566125",
"h. c #617A39",
"j. c #3F3F41",
"k. c #433D44",
"l. c #4B3F49",
"z. c #5C3C41",
"x. c #6A3A41",
"c. c #7F3F4F",
"v. c #3F4042",
"b. c #434342",
"n. c #4B4545",
"m. c #454944",
"M. c #4B4A45",
"N. c #49484A",
"B. c #5B4E4D",
"V. c #544847",
"C. c #4A5644",
"Z. c #595748",
"A. c #595856",
"S. c #654546",
"D. c #784C49",
"F. c #67564C",
"G. c #635D5C",
"H. c #665757",
"J. c #785954",
"K. c #715E4F",
"L. c #566745",
"P. c #5D625B",
"I. c #58714A",
"U. c #68695D",
"Y. c #6A7D56",
"T. c #776851",
"R. c #6E5D62",
"E. c #6B6565",
"W. c #6B6A64",
"Q. c #696769",
"!. c #756363",
"~. c #7A6866",
"^. c #79746B",
"/. c #757572",
"(. c #7C7677",
"). c #716D71",
"_. c #803B3E",
"`. c #88544E",
"'. c #825C5B",
"]. c #895B57",
"[. c #945A56",
"{. c #965A57",
"}. c #A25956",
"|. c #94645C",
" X c #98745E",
".X c #876551",
"XX c #A0675C",
"oX c #856162",
"OX c #956863",
"+X c #867A79",
"@X c #8F7467",
"#X c #A36E64",
"$X c #A7736A",
"%X c #B8796E",
"&X c #AD7D74",
"*X c #BC7D74",
"=X c #B67D77",
"-X c #53811C",
";X c #57891A",
":X c #5F951E",
">X c #50850F",
",X c #61941E",
"<X c #598625",
"1X c #5F9422",
"2X c #649524",
"3X c #639A23",
"4X c #699C24",
"5X c #65952A",
"6X c #669A29",
"7X c #69992B",
"8X c #668937",
"9X c #6A9635",
"0X c #749237",
"qX c #6D8C33",
"wX c #69894A",
"eX c #75944B",
"rX c #7D8276",
"tX c #86AE4D",
"yX c #84847C",
"uX c #82816F",
"iX c #B2836D",
"pX c #BB8274",
"aX c #AC8972",
"sX c #99C063",
"dX c #807E80",
"fX c #858483",
"gX c #8A8788",
"hX c #938A89",
"jX c #99928B",
"kX c #999A98",
"lX c #8F8D8C",
"zX c #B68681",
"xX c #A6978E",
"cX c #ACA497",
"vX c #AAABA4",
"bX c #A5A2A2",
"nX c #B1B6AE",
"mX c #C0C1BB",
"MX c #D5D5D5",
/* pixels */
"                                                                                                    ",
"                                                                                                    ",
"                                                                                                    ",
"                                                                                                    ",
"                                                                                                    ",
"                                          8.h > & o ; h C.                                          ",
"                                        = = &.*.a.4.4.&.j = Z.                                      ",
"                                      = z wXeX8Xr.i.d.e.s.&.; T                                     ",
"                                    = z eXsXtX<X1.1.t.r.d.s.>.& A.                                  ",
"                                  ;.f h.tX7X;X>X;X;X-X<.t.y.p.&.h                                   ",
"                                  = *.i.-X>X:X3X3X3X,X:X<Xt.y.a.&                                   ",
"                                  & e.1.-X2X3X3X3X4X4X4X5X<Xt.p.f P.                                ",
"                                C.f d.1.>X3X:X6X3X6X5X5X6X<X<.y.m L                                 ",
"                                G m d.<.;X4X2X1X6X5X2X2X5X5X<.t.-.*                                 ",
"                                h &.e.i.5X2X2X7X5X5X5X4X4X5X<.y.4.*                                 ",
"                                - 4.e.2.9X9XqXqX0X0X0X0X2X5Xu.y.8.: vX                              ",
"                                ; >.i.i.eXg.x l ( ( ) ,.qX9Xt.p.C.: kX                              ",
"                                > *.r.<Xf.x T.aX..+. X3.=.8Xd.a.:.o m.mX                            ",
"                                > -.y.8Xg.3.aX&X#X&XiXiX=.f.9.f h 7 : + yX                          ",
"                            U.I @ M p.wXg.w.iX*X#X#X*XiX,.9.k I ;.m.;.7 - : A                       ",
"                          y q ] n v p.wXx .XpX%X/ |.*X=Xw.M c 5.T m.;.W F + A                       ",
"                        b ^ J.].].w m s.l  XpX%X/ $X*X=X7.K D b.N.;.b.m.E . W                       ",
"                      !.e `.[.{.`.' > k e  X%X*X/ |.=X&Xb D D k.E N.b.b.F . b.                      ",
"                      7.~ [.}.}.}.' w ] e J.zX=Xq.OXzXJ.% , W N.N.b.b.n.H X bX                      ",
"                      X.s [.}.}.{.' ` ] i a J.J.] q.J.b 3 7 m.v.b.n.b.n.H X V.                      ",
"                    W.q p @.{.[.`.s ~ ` ` H.F.a F.Z.b ^.B.4 u n.M.k.n.n.B n.# Q.                    ",
"                    O 6.+X] e ^ e _ ..' ` 9 ~.F.~.+X . .i ` $ J 6.W | } S (.B.3                     ",
"                  c g U R @ y J % X.@.x.x.z.r K B.@X% _ ..+...p y c 4 4 H.+X~.3 3                   ",
"                n.F kXvXfXg rXvXt _ @.$.#.@.@.s  .J.d %.%.$.#.+.{ . 3 # S } { E.6.S                 ",
"                V.H /.vX/.: vXnX, i @.#.$.%.#.' ] F.d c.$.$.$.x.i O jXhXy | hX+XR S                 ",
"                  } 3 hXb.|   MX5 , ^ O._.$.#.[ I H.C x.#.O.@._ $ @     U.c hXc H                   ",
"                    t (.Y G.  MXN ! n ^ O.O.@.[ M Z.a S.@.@._ a Y :     gXc yX3                     ",
"                  +XX V.K n.    E A Z.v e [ X.[ J F.b 7.[ n k Z.R :     fX6 W.O /.                  ",
"                  !.9 V.S u     A.- v 9.0.k n n 6.F.w k k M -.v > c     A.1 A 1 E                   ",
"                  { a !.B.$     U.L U.v L.L.-.= 8.U.f 9.Y.9.k T.H.3     F g b.Z U                   ",
"              B.u $ K !.B.#     T : lX-.-.L.I.m Z.^.h I.Y.4.3.cX .K     Q A m.A + U dX              ",
"            n.u  .R.H.H.V.@     O o M.yXL -.C.-.Z.uXv 8.h -.xXF.$ S     Q 6 b.Q E 6 + Q.            ",
"            4 | Y t i S { y M.  U 2 c R rXC.G > V.jX4 T /.cXK.n F.t G.  3 A F A 7 W D O             ",
"            2 D 3 B.+Xn.3 u Y   | 7 N.D F W.+XZ. .+XH lX(.J ^ '.!.o.{ E., 7 2 E E . 6 O             ",
"            Q.2 }       n.# G.  A H k.l.Q 4 c y % $ 3 u # o.].|.oXa H.hX, + lX    U + E             ",
"                                G 3 V D 5.L & :.6.V.A.fX5.i ].{.J.r xX  +XfX        fX              ",
"                                P.. | Y g & P           W.% D.OXz.%                                 ",
"                                kXO { J H g :.          5 # ` +.a X |                               ",
"                                  Z J H.J # M.        lXO u q q t u u                               ",
"                                  A.#  .C 9  .        gX< B X u 3 u u                               ",
"                                  kXt z.'.S.C           u X 2 ! . 2 G.                              ",
"                                  +Xp D.OX+.a             A.- ! 2 A.                                ",
"                              ).U S 0 `.|.[ J             fX- P 4                                   ",
"                              7 N.H._ '.oXp H.            /.7 F 7 (.                                ",
"                            kXO Q.fXa X...0 hX            U 8 j.N O (.                              "
};
