/* XPM */
static char *xpm_[] = {
/* columns rows colors chars-per-pixel */
"64 64 250 2 ",
"   c #0A0908",
".  c #180807",
"X  c #140C0B",
"o  c #0A1207",
"O  c #1D170A",
"+  c #0A0915",
"@  c #160C14",
"#  c #0E1617",
"$  c #181617",
"%  c #230B0C",
"&  c #261715",
"*  c #2F1311",
"=  c #192507",
"-  c #1B220B",
";  c #1B2115",
":  c #29260A",
">  c #352219",
",  c #293013",
"<  c #0E1627",
"1  c #141422",
"2  c #2E2F2D",
"3  c #3A2927",
"4  c #39372A",
"5  c #393938",
"6  c #422D17",
"7  c #473728",
"8  c #4A342C",
"9  c #433B2C",
"0  c #57352D",
"q  c #512D30",
"w  c #483535",
"e  c #573937",
"r  c #69302D",
"t  c #6F362D",
"y  c #683836",
"u  c #783636",
"i  c #374812",
"p  c #39442B",
"a  c #364230",
"s  c #67551E",
"d  c #577A0A",
"f  c #4E6B14",
"g  c #5B7914",
"h  c #647918",
"j  c #4A4629",
"k  c #484834",
"l  c #584537",
"z  c #555231",
"x  c #66473A",
"c  c #6E4B38",
"v  c #735738",
"b  c #687028",
"n  c #303C46",
"m  c #493A46",
"M  c #563B4C",
"N  c #7C3A44",
"B  c #5A3F62",
"V  c #36414C",
"C  c #365453",
"Z  c #345F62",
"A  c #38696A",
"S  c #494349",
"D  c #594748",
"F  c #544F51",
"G  c #445758",
"H  c #654945",
"J  c #784A48",
"K  c #6B5546",
"L  c #634A59",
"P  c #6E5455",
"I  c #765556",
"U  c #75664B",
"Y  c #495865",
"T  c #644A65",
"R  c #6D5964",
"E  c #775967",
"W  c #843B3B",
"Q  c #963A3A",
"!  c #B43B3B",
"~  c #AC4E1E",
"^  c #914E35",
"/  c #855737",
"(  c #B04B36",
")  c #986333",
"_  c #B67A2A",
"`  c #8A3B46",
"'  c #AF3E43",
"]  c #86484A",
"[  c #894E4F",
"{  c #96484D",
"}  c #88584B",
"|  c #994A53",
" . c #875654",
".. c #965558",
"X. c #AC4B4A",
"o. c #B54C4A",
"O. c #B75147",
"+. c #AA4C53",
"@. c #A85455",
"#. c #B45152",
"$. c #846359",
"%. c #8B7151",
"&. c #AD735C",
"*. c #985D6D",
"=. c #A65764",
"-. c #B65863",
";. c #966E6D",
":. c #B46567",
">. c #A87272",
",. c #C4564C",
"<. c #D26B59",
"1. c #D96B59",
"2. c #EA675D",
"3. c #E56C5D",
"4. c #EC6B5D",
"5. c #F0695E",
"6. c #E4725C",
"7. c #E9725E",
"8. c #CA6C6A",
"9. c #D86E68",
"0. c #C9756C",
"q. c #D97569",
"w. c #C67973",
"e. c #D97371",
"r. c #EC6D64",
"t. c #E86C69",
"y. c #F16B64",
"u. c #F26A68",
"i. c #E37364",
"p. c #EC7166",
"a. c #E3736A",
"s. c #ED7169",
"d. c #5E8111",
"f. c #638C07",
"g. c #638D0B",
"h. c #699507",
"j. c #66920B",
"k. c #6A950C",
"l. c #6D9A0C",
"z. c #759B0E",
"x. c #719D0D",
"c. c #658816",
"v. c #6A8B1D",
"b. c #679113",
"n. c #6B9513",
"m. c #6D9A13",
"M. c #6C931A",
"N. c #6D9919",
"B. c #729D14",
"V. c #769819",
"C. c #739D1B",
"Z. c #75A20F",
"A. c #78A60F",
"S. c #6FA210",
"D. c #75A215",
"F. c #79A515",
"G. c #7BA915",
"H. c #76A21B",
"J. c #79A51C",
"K. c #77A819",
"L. c #7DAA1C",
"P. c #7DAA1E",
"I. c #6C8D23",
"U. c #738D25",
"Y. c #739424",
"T. c #749D21",
"R. c #729028",
"E. c #779729",
"W. c #77A121",
"Q. c #7AA522",
"!. c #7EA921",
"~. c #7EA923",
"^. c #7DA62A",
"/. c #7EA92A",
"(. c #96841B",
"). c #81A818",
"_. c #81AC1D",
"`. c #93852A",
"'. c #B38A2E",
"]. c #82A523",
"[. c #81AD24",
"{. c #87AB2A",
"}. c #82AC2B",
"|. c #84B023",
" X c #89B626",
".X c #86B12A",
"XX c #88B42C",
"oX c #85AF30",
"OX c #C28B2D",
"+X c #AE8E54",
"@X c #9B8173",
"#X c #B78969",
"$X c #B18E6D",
"%X c #AC8C7B",
"&X c #B99679",
"*X c #C3926C",
"=X c #D78F7A",
"-X c #C69675",
";X c #C9A379",
":X c #D3A47A",
">X c #937287",
",X c #A4718A",
"<X c #D17D83",
"1X c #9B8892",
"2X c #AF8E8F",
"3X c #BC9987",
"4X c #A79EA4",
"5X c #A998A7",
"6X c #B499B0",
"7X c #B6A7B9",
"8X c #C99B87",
"9X c #D1918E",
"0X c #E2999C",
"qX c #C9A488",
"wX c #D5AC88",
"eX c #CCA796",
"rX c #D5AB95",
"tX c #DAB499",
"yX c #C59AA9",
"uX c #D298A8",
"iX c #D8B0AD",
"pX c #C9A7B9",
"aX c #D8ABB9",
"sX c #E8B6AB",
"dX c #DFC3AC",
"fX c #EAC8A8",
"gX c #F1CCAC",
"hX c #F3D2AD",
"jX c #EBC9B5",
"kX c #F7CAB6",
"lX c #F6D4B4",
"zX c #B8ABC7",
"xX c #B7B2C9",
"cX c #B9B6D6",
"vX c #B4BCE2",
"bX c #C9ACC7",
"nX c #C9B8CC",
"mX c #D4B8C8",
"MX c #E2BCC3",
"NX c #BCC6D8",
"BX c #B7C4E4",
"VX c #D6C2CB",
"CX c #C6C6D8",
"ZX c #D7D0D8",
"AX c #EDCDCA",
"SX c #F6D4C6",
"DX c #F8DBD3",
"FX c #E0DFEF",
"GX c #DAEAF7",
"HX c #EFE4F0",
/* pixels */
"n.M.H./..XD.B.k.k.N.~.~.[.J.P.P._.J.P.P.l.B.m.D.D.~.B.H.J.}./.N.b.b.C.[.oXB.B.n.k.m.Q.[.[.J.).P.~.J.J.P.h.B.m.D.H.P.D.H.Q.}.[.N.",
"n.W.W.}./.j.j.k.B.C.~.}.[.D.L.L.|.G.L.K.l.B.l.B.B.J.m.B.P.|.~.m.N.W.T.}.}.j.j.l.B.C.J..X[.D.P.K.|.K._.F.l.x.B.B.m.F.m.m.W.XXQ.N.",
"H.Q.C.C.C.H.H.J.B.B.C.}.~.P.B.x.L._.G.G.Z.l.Z.G.B.J.D.D.D.G.[.m.J.W.C.C.H.C.D.~.B.B.H.|.~.~.B.l._.L.L.G.Z.Z.x.F.B.J.D.Z.D.].}.m.",
"/./.^.T.C.Q.C.W.D.F.~.~.~.~.x.h.G.G.A.A.G.G.A.D.D.F.F.D.D.F.L.F.[./.^.T.C.H.H.Q.B.H.~.~.~.P.l.l.G.G.A.G.G.F.G.D.D.D.F.F.z.F._.D.",
".X~.H.B.B./.^.^.C.P.~.J.J.C.k.h.D.x.Z.A.A.l.h.h.D.l.l.Z.D.G.P.~..X~.H.n.C.}.^.^.H.~.P.J.Q.D.k.k.A.Z.l.G.A.l.l.h.F.x.x.Z.G.J.].F.",
"~.~.H.b.b.W.^.C.n.F.J.B.J.C.P.~.|.Z.Z.A.Z.x.h.l.P.x.l.A.).K.B.H.Q.~.H.j.n.W.W.C.m.F.J.m.J.H.~.~._.x.Z.G.Z.l.h.h.K.m.h.Z._.].B.S.",
"H.~.oX^.T.~.H.l.m.[./.m.n.g.B.F.K.x.F.x.x.G.B.x.H.m.B.J._.G.D.Z.J.~.oX^.T.~.H.n.n.~./.m.n.g.B.B.G.x.F.l.Z.G.Z.D.J.B.z.G._.].V.Z.",
"n.C.^././.}.J.F.H.[.}.W.C.g.B.B.F.). XB.x.F.l.l.m.B.D.J.K.L._.G.m.C.^././.}.J.F.D..X}.Q.C.g.B.B.G.L. XD.x.D.h.m.m.B.B.F.A.].[.L.",
"k.n.b.C.W.Q.C.Q.H.J.J.N.C.C.W.C.B.P.L.J.J.D.B.n.n.J.~.H.D.|.[.~.m.n.g.N.W.Q.W.Q.H.J.H.N.C.N.W.C.D.P.L.J.J.D.m.m.m.J.~.D.l.{..XL.",
"B.B.g.m.Q.Q.C.^.Q.~.J.H.}.Q.C.n.n.}.~.D.J.H.[.m.n.H.P.F.J.[.J.B.B.C.g.m.H.Q.C.^.Q.~.Q.C./.Q.C.n.n.}.~.m.J.F.[.N.k.H.~.F.L..XJ.l.",
"Q.Q.~.H.Q.Q.C./.^.~.k.Q.oX}.W.J.~..Xm.m.m.B..XW.I.Y.I.M.V.Y.b.v.I.I.E.I.I.Y.C.].^.}.n.Q.oXoXW.H.~..Xm.D.m.k.}.J.H.Q.H.F.).{.V.D.",
"~.~./.Q.J.T.C.W.C.Q.W.}.Q.Q./.C.n.Q.n.g.k.n.C.d.k 4 9 9 9 9 7 7 7 7 8 9 9 j V.C.C.W.J.oXQ.~./.C.n.H.m.f.n.m.C.j.C.J.B.h.l.M.j.m.",
"~.}.^.C.W.Q.K.P.N.Q./.}.^.Q.^.N.b.C.m.g.v.c.c.b l x y y y t t t t t u x y l U.U.c.R.^././.Q.^.m.n.C.m.g.m.C.m.h.N.H.B.B.D.].E.J.",
"H.Q.C.n.H.W.H.~.H./.^.T./.H.H.Q.H.C.~.I.w 8 0 y >.w.w.8.q.9.9.9.9.q.0.w.w.&.0 q w l ^.W./.W.W.Q.W.H.Q.B.H.D.H.Q.H.H.D.l.B.].}.F.",
"Q.~.C.m.N.n.M.T.T.Q.Q.C.Q.n.H./.~.T.E.b e u u ^ 0.e.e.a.p.p.r.t.p.r.a.9.e.8.u u y x I.I.Q.m.Q.~.Q.W..XH.N.m.Q.}.J.~.[.F.Q.].{.Q.",
"~.[.B.D.b.g.b.^.T.C.C.J.C.B.W.m.H.T.0 e  .+.9.6.q.q.<.6.4.p.1.6.3.4.r.a.e.a.9.<.+.[ e k N.N.W.N.H./.Q.H.H.J.H.H.D.~.[.[.].T.W.J.",
"J.XX}.B.C.m.C.}.N.N.W.N.N.H.H.m.C.Y.8 r ..,.t.3.3.3.6.7.4.4.3.6.7.2.2.r.6.6.6.3.,.` w a b.C.Q.n.C.~.m.H.H.J.B.n.k.J.m.F.H.n.V.Q.",
"n.J.~.C.}.Q.H.Q.H.^./.m.j.m.P.~.m.v.w y @.-.t.y.4.2.4.5.5.y.u.s.p.y.y.y.i.3.6.6.,.+.m k b.B.J.Q.m.B.m.B.l.B.B.l.j.D.h.S.J.V.C.C.",
"g.m.J.~.|.m.J.J.H./.~.N.l.l.F.[.H.v.8 y 0.9.r.y.y.5.4.r.7.r.y.t.3.r.y.r.6.6.6.6.9.:.e k k.l.F.[.J.D.P.J.F.m.J.D.~.K.B.G.F.).J.l.",
"n.k.m.P.P.F.~.H.C./.Q.H.l.j.l.L.L.c.7 t e.a.t.r.2.y.u.t.i.a.r.s.a.p.r.r.q.6.6.6.9.8.0 j n.h.x._.G.D.J.L.[.J._.G.|.|.P.G.x.z.z.m.",
"N.m.m.l.j.D.P.Q.Q././.H.l.f.k.H.T.b 0 u 8.t.t.3.7.p.p.9.0.0.e.a.q.q.t.t.a.q.6.6.i.:.0 e c.c.h.F.L.D.l.F._.P._.L.D.F.K.G.x.x.h.h.",
"H.H.H.n.m.H.l.~.Q.M.~.P.D.l.D.T.a w r W <.t.i.i.p.a.q.*X8X9X9X9X9X=Xe.t.9.a.7.6.1.<.u q w k n.L.[.F.x.D.J.L.L.L.l.Z.D.G.A.G.Z.l.",
"Q.C.B.D.D.D.j.H.m.g.C.J.~.~.~.Y.w m ..@.O.,.1.6.p.a.w.=XSXSXSXDXDXsX0X9.9.t.2.1.,.O.X. .e k ~.~.[.P.D.J._.J.Z.L.l.D.G.G.G.|.G.D.",
"~.J.B.J.k.m.l.B.H.H.Q.H.H.|.~.v.4 q @.#.O.( 1.<.0.0.>.eXDXDXAXAXDXMX9X<X9.1.1.<.( o.@.[ 3 p ^.H.D.D.D.D.L.G.l.K.A.A.D.G.G.).L.J.",
"Q.W.J.[.H.B.J.l.C.Q.Q.C.B.F.H.g X * | +.O.( O.( O.:.aXiXHXMX=.>.DXDXaX0X-.o.o.O.( ,.o.` X - N.m.h.B.m.l.J.D.x.G.F.A.S.A.K.)._.K.",
"C.C.H.~.P.D.H.m.N.C.^.W.C.B.N.d   * { X.X.O.O.,.#.:.aXaXMXuX*.>.MXmXnXyX=.-.X.X.o.O.#.]   = b.j.j.B.D.x.L.F.x.F.).K.A.x.l._.[.m.",
"/.H.Q.~.D.J.~.J.b.C.H.Q.~.Q.b.d o * ..| X.O.o.-.*.>.aXaX,X=... .*.>XxX7X*.=.@.@.X.o.+.]   = g.j.j.D.J.L.L.G.F.x.G._.K.L.F.).D.j.",
"H.Q.H.H.B.[.[.J.g.n.N.}.~.C.n.c.o $ J [ +.+.-.-.,X,XbXzX>X>X,X,X>X>XxXzX,X*.;.:.@.@.{ H   = c.H.H.B.B.F.F.G.F.l.G.L.L.L.B.B.j.N.",
"T.~.Q.C.k.B.D.~.~.H.n.Q.Q.W.Y.g   . 8 y ..-.uXaXpXzXvXcXbXbXbXaXbXzXnXnXzXbXbX0X@.] r >   = v.V.n.k.m.D.L._.[.F.L.L.L.P.B.h.h.V.",
"^./.~.Q.C.P.J.H.Q.Q.Q.Q.~.I.k 2 X X w 0 ..:.0XbXcXvXvXvXvXcXbXmXmXbXvXcXvXbXbXyX=. .0 3   O y j g.f.h.D.[..X X|._.K.K.~.~.V.k.H.",
"/.N.Q.~.P.~.H.J.}./.^.H..XE.4 3 > > w e J *.yX7XcXvXBXBXBXBXCXnXmXmXCXvXvXzX6X5X .J 0 7 * > 3 4 g.j.B.D.~.[.|.|.P.D.B.~.}.{.V.N.",
"W.b.W.~.J.D.B.J.}.Q.~.[..Xv.o > #X#XI L e e M T zXvXFXGXGXGXGXHXHXHXFXFXcX6XB M 0 e H / &X&.X : C.D.m.H.D.H.H.J.J.J.C.Q.P.[.Q.m.",
"N.b.C.[.[.D.B.m.M.N.~.[.[.c.  > #X#XJ T D 5 m T 5XbXVXVXCXNXCXVXmXmXZXCX7X5XB n k l x / :X&.  - Q.J.J.F.l.B.B.H.H.P.D.H.H.[.].m.",
"b.W.W.}.[.g.j.k.B.B.~.}.[.c.  > -X%Xm m L K F L R E  .K j 9 m m m F R R R R B T F z 7 x *X#X@ - Q.L.L.L.l.l.l.B.B.H.m.m.Q..X~.m.",
"J.W.C.T.H.C.C.~.B.B.C.[.P.M.: , >.;.m m U K K P E  .c J x x H H D D L P E E I J U v 7 e &.%.; , K._.G.G.A.Z.l.F.x.J.D.m.F.L._.S.",
"}.oX/.T.C.Q.C.~.C.F.~.~.~.P.h.d $ $ 5 D &X&XU U 3X%X0 x &XqX-X9X8X1Xm D 5X1XI  .&X$X7 3 X : c.k.G.G.A.G.G.D.G.Z.D.F.K.K.D.F.L.D.",
"/.~.J.N.C.}././.C._._.J.J.C.l.d = ; 3 e -X*X%.%.eX%X4 l 8XrXrXwXeX9X8 S 7X4XU %.;X+X5 2 : , g.h.F.x.Z.F.Z.x.l.h.D.m.m.D.F.F.).F.",
"[.Q.H.n.n.W.W.C.M.G.L.n.J.C.~.P.~.d . 6 -X-X;X:XDXiX& 6 fXkXkXkXkXeX% 3 ZXDXqXqX;X$X@ $ M.C.~.~.|.l.Z.F.Z.l.h.h.P.m.l.D.[.).z.B.",
"C./.}.Q.C.Q.C.n.k.[.[.n.n.g.B.D.F.g.: 6 +X$X*XwXDXVXw x fXhXSXkXkXrX8 H AXAXeX-X$X$., , b.g.B.F.G.x.F.l.Z.G.B.D.J.m.l.J.|.).D.B.",
"l.C.^./.}.}.F.F.F.}.}.W.C.g.C.B.J.).[.h O 4 &XeXSXSXdXfXhXhXSXkXhXgXfXsXSXkXrX%X& : E.C.N.g.V.B.F.L. XD.l.A.l.l.l.C.D.J.D.)._.P.",
"n.n.g.N.H.Q.Q.Q.H.J.Q.N.C.C.W.C.B.P.L.c.X & 2X8XjXjXlXhXhXlXjXgXhXlXhXgXsXsX-X&.. - N.N.C.N.T.C.D.P.P.J.G.B.B.m.m.Q.~.K.m.|.|.~.",
"C.C.j.B.Q.W.C.^.Q.~.J.C.^.Q.C.n.n.}.Q.c.+ O v } -XtXjXlXlXgX:XtXjXgXhXfX0X9X/ c   - N.Q.}.W.C.n.n.~.~.B.J.J.[.N.n.C.~.J.K.|.G.m.",
"J.Q.[.H.W.Q.C.^./.~.n.Q.oXoXW.W.P..XM.f # & ^ ) -X3XtXdXfXfX:X:XfXfXtXtX8X#X) s O ; f v.}.oXT.J.~..XB.B.m.m..XJ.H.J.H.H.{._.Z.B.",
"Q.~.}.Q.Q.Q.C.H.C.Q.W..XW.~.~.C.n.C.f ; 2 l +XOX^ H w D 3XwX:X:X8X&Xk D ..) '.`.j 2 + , T.^.}.B.k.Q.n.g.k.n.N.n.C.Q.C.j.l.k.h.l.",
"[.oX^.C.C.Q.J.J.N.^.^.}./.W.^.Y.v.b $ $ 2 z OXOX~ J L R 1X%X$X#X$X@XB B ` ( OX(.7 4 < ; U.E.}.C.b.C.N.g.C.m.m.j.m.C.m.B.B.).J.F.",
"C.W.N.n.C.W.J.~.W./.^.T.}.H.Q.E.K K w a p f '.OX~ @.6X5Xw 8 l 7 8 D 5X6X{ ( '.(.i p 5 S D K E.T.H.H.~.m.C.B.Q.J.J.J.C.n.M.G.].C.",
"Q.[.B.B.N.b.n.W.T.Q.Q.C.Q.M.R.R.}  .l z i s '._ ~ ( 9X5XT S 5 5 G R 6X9XO.~ _ `.i k K K $.} R.].Q.H..XH.C.m.Q.}.Q.~.~.J.J.L.[.[.",
"~.~.D.D.n.b.b./.V.n.C.K.C.v.K $.sXfXqX%Xk j c v ! ' +.:.yX1XF Y 7X5X@.X.( ( / s j z 3XqXfXiXJ K T.}.W.J.H.D.J.H.D.P.[.}.~.D.H.P.",
"J.}.}.B.C.m.C.}.N.N.C.C.n.Y.H $.jXlXtX3X8 3 0 J ( X.! @.iX4XV Y zX6X+.! ! ^ y M 3 l qXwXfXiX[ v V.Q.n.H.H.J.B.n.k.J.C.J.H.h.B.J.",
"n.J./.H.}.P.H.Q.H.^.^.m.k.v.H $.jXkXkXyX%     * u Q ' =.pX4Xn Y zXyXX.! Q t .     3 jXlXhXtXJ J N.B.m.C.m.B.B.k.k.D.h.m.H.D.B.H.",
"k.n.~.~.[.B.J.Q.T./.~.C.l.v.U U eXtXsX2X.   $ $ r u N ] >X>Xn V >X>X] W r q 1 $ + > eXiXtXqX} b C.B.P.J.J.l.P.F.[.P.x.K.F.F.F.l.",
"n.k.m.J.J.B.[.H.C.}.Q.D.k.j.n.E.c J ^ y . # Y G + . . . X # + + 1 $ . . . % Y F + & J ] c v M.J.P.D.F._.[.F._.K._.[.P.G.x.Z.x.k.",
"B.B.m.l.k.D.P.J.Q.}.}.J.m.j.h.m.v v v l + 1 Y C 1 + $ # # # + < < < < # o $ Y G + @ H K v b b.L.).D.x.F.~.P.|.K.D.K.K.J.x.z.h.h.",
"C.H.B.m.B.D.l.~.W.N.Q.J.F.l.x.L.].C.z.g.o 1 n n n n G A A A C V A A A C 4 w S 4 + - Y._.B.m.z._.[.K.x.D.J.P.L.G.l.Z.S.G.G.F.Z.h.",
"Q.C.B.B.D.D.j.H.C.g.C.H.~.[.[.[.~.~.F.c.o $ w M y M C C C C n n C A C G m e e q   = M.P.~.|.~.~._.P.D.J._.L.Z.K.l.A.J.G.G._.G.Z.",
"Q.Q.H.J.k.m.l.B.C.W.Q.H.J.[.[.F.B.F.D.c.. * { | ' N % + o o   + + +   O J { | N . - V.C.L.~.|.J.F.F.B.D.L.F.l.G.Z.F.G.G.G._.L.J.",
"Q.J.J.[.H.C.F.n.C.Q.Q.H.N.J.H.l.k.B.m.d : 6 u ` ` u : - - ; ; ; 1 ; - > J N ` y : i Y.T.C.C.J.l.h.B.m.h.F.D.x.G.F.D.S.K.D._.P.H.",
"V.C.J.[.P.D.D.m.N.T.^.Q.N.B.m.g.h.m.D.l.G.d .   . : n.h.k.W.W.M.M.M.T.c.X . . - c.Y.W.Q.C.B.m.j.h.m.D.B.L.D.Z.G.).G.K.l.S._.L.m.",
"/.W.Q.J.B.P.[.J.b.C.C.~.~.~.h.k.j.D.J.~.).b.: - = , H.L.F.~.C.n.Q.W.Q.v.= - - , g.C.C.~.~.Q.j.j.k.B.H._.L.K.D.x.G._.G.P.C._.F.j.",
"C.W.Q.F.B.[.}.J.j.n.n./.Q.C.m.Q.D.D.B.J.G.F.D.j.l.G.L.P.B.n.n.m.N.^.W.H.M.Q.Q.V.b.n.N./.Q.H.m.Q.H.C.B.F.G.K.G.l.G.L.L.P.B.m.l.N.",
"N.Q.Q.H.k.B.F.Q.Q.H.N.F.J.~.J.J.l.j.m.B.L._.L.J.L.P._.~.B.j.g.T.C.Q.Q.C.l.D.F.~.~.H.N.H.Q.Q.H.J.k.k.m.D.K.[._.J.K.P.~.~.B.h.h.V.",
"}.^.Q.~.D.P.J.J./.T.Q.~.Q.Q.D.H.h.g.j.D.|..X X[.).G.G.[.[.H.n.C.^.^.Q.~.x.[.H.F./.W.W.Q.Q.J.J.B.h.f.k.D.[. X X|.[.K.K./.[.C.n.C.",
"/.C.W.[.~.P.C.J.}.~./.H..X.X~.m.h.h.m.H.~.[.[.|.J.D.l.[.}.}.V.C.^.C.W.[.~.[.H.J..XQ.~.H..X XP.m.j.h.B.H.P.~.[.|.P.D.B.~.{.].V.M.",
"T.b.W.~.J.B.B.~.oXQ./.[..X~.J.J.~.D.l.D.D.J.J.~.J.H.D.~.Q.}.^.N.C.n.Q.~.D.m.B.P.XX~./.|..X~.J.J.~.B.l.H.C.F.J.P.J.J.D.~.^.}.~.N."
};
