/* XPM */
static char *xpm_[] = {
/* columns rows colors chars-per-pixel */
"64 64 242 2 ",
"   c #0C0302",
".  c #090B05",
"X  c #150905",
"o  c #0B1209",
"O  c #181507",
"+  c #1D0D11",
"@  c #151310",
"#  c #260D07",
"$  c #2A160A",
"%  c #351709",
"&  c #2F1014",
"*  c #321A16",
"=  c #292D0E",
"-  c #352C0B",
";  c #141826",
":  c #251625",
">  c #382725",
",  c #312B2C",
"<  c #373826",
"1  c #3B3537",
"2  c #51300D",
"3  c #472717",
"4  c #58341A",
"5  c #63310C",
"6  c #60331A",
"7  c #492D29",
"8  c #4D2C2C",
"9  c #502C28",
"0  c #4C3828",
"q  c #563729",
"w  c #4A2D37",
"e  c #532E33",
"r  c #413531",
"t  c #43323C",
"y  c #483938",
"u  c #583435",
"i  c #683D29",
"p  c #632D35",
"a  c #702A31",
"s  c #653C34",
"d  c #6A3A39",
"f  c #763839",
"g  c #3C452B",
"h  c #364239",
"j  c #504713",
"k  c #674A0E",
"l  c #6C4818",
"z  c #74451C",
"x  c #53740B",
"c  c #5B7618",
"v  c #656719",
"b  c #677A1B",
"n  c #51492D",
"m  c #4B5C2C",
"M  c #57592E",
"N  c #484536",
"B  c #555A37",
"V  c #68452A",
"C  c #784929",
"Z  c #62582D",
"A  c #7B552A",
"S  c #694537",
"D  c #7A4737",
"F  c #795835",
"G  c #586534",
"H  c #696B2C",
"J  c #6B722F",
"K  c #3A3644",
"L  c #483043",
"P  c #553A44",
"I  c #6B3A47",
"U  c #7B3C43",
"Y  c #3E4A4C",
"T  c #3E5572",
"R  c #544E52",
"E  c #7B4244",
"W  c #774748",
"Q  c #704B51",
"!  c #6B6D56",
"~  c #4C5B6F",
"^  c #745965",
"/  c #5A6564",
"(  c #726D6E",
")  c #87373D",
"_  c #8C5216",
"`  c #956F0E",
"'  c #A5771A",
"]  c #89512D",
"[  c #B74D3D",
"{  c #AD523E",
"}  c #B2513E",
"|  c #986F2E",
" . c #AE7E26",
".. c #C54B3E",
"X. c #843C40",
"o. c #A43D48",
"O. c #904C4E",
"+. c #98494D",
"@. c #8B5458",
"#. c #985557",
"$. c #AB4B46",
"%. c #B84C46",
"&. c #B44C4C",
"*. c #AD5144",
"=. c #A5524C",
"-. c #AC524C",
";. c #B25144",
":. c #B4564B",
">. c #AD4E51",
",. c #BA4751",
"<. c #B54D52",
"1. c #A95456",
"2. c #B35454",
"3. c #996E49",
"4. c #AA6E55",
"5. c #8D5A65",
"6. c #A95E63",
"7. c #91736E",
"8. c #B46969",
"9. c #AC7273",
"0. c #CF584C",
"q. c #E35D54",
"w. c #C96B5C",
"e. c #D26254",
"r. c #D4665A",
"t. c #E86D59",
"y. c #EB6D5C",
"u. c #F16B5C",
"i. c #E57256",
"p. c #E4725B",
"a. c #E9715B",
"s. c #D16D6C",
"d. c #CB7569",
"f. c #DB7465",
"g. c #DA7369",
"h. c #C57A71",
"j. c #E66D67",
"k. c #EA6E62",
"l. c #F26B64",
"z. c #E47264",
"x. c #EA7163",
"c. c #E77268",
"v. c #E87372",
"b. c #5E820D",
"n. c #5F8312",
"m. c #638E06",
"M. c #638D0B",
"N. c #689507",
"B. c #66920B",
"V. c #6A950C",
"C. c #6D9A0C",
"Z. c #759B0E",
"A. c #719D0D",
"S. c #658D12",
"D. c #63851A",
"F. c #678A18",
"G. c #6B9513",
"H. c #6B9317",
"J. c #6E9A13",
"K. c #6D9919",
"L. c #729D14",
"P. c #769919",
"I. c #739D1B",
"U. c #75A20E",
"Y. c #78A60F",
"T. c #6FA210",
"R. c #75A215",
"E. c #79A515",
"W. c #7CA915",
"Q. c #76A21B",
"!. c #79A51C",
"~. c #77A819",
"^. c #7DAA1C",
"/. c #7DAA1E",
"(. c #6A8724",
"). c #739127",
"_. c #759526",
"`. c #759E20",
"'. c #77A121",
"]. c #7AA522",
"[. c #7EA921",
"{. c #7EA923",
"}. c #7DA62A",
"|. c #7EA92A",
" X c #B9960E",
".X c #81A818",
"XX c #81AD1D",
"oX c #978232",
"OX c #B2892A",
"+X c #82A523",
"@X c #81AD24",
"#X c #87AB2A",
"$X c #82AC2B",
"%X c #84B023",
"&X c #89B627",
"*X c #86B12A",
"=X c #89B42C",
"-X c #86AB30",
";X c #86B130",
":X c #C39907",
">X c #C39711",
",X c #C7913A",
"<X c #AD8F55",
"1X c #AFA85B",
"2X c #B58874",
"3X c #D39C69",
"4X c #CB9978",
"5X c #D2A672",
"6X c #D3A57A",
"7X c #E1A666",
"8X c #616681",
"9X c #8D6D82",
"0X c #877886",
"qX c #A87D8B",
"wX c #8B8492",
"eX c #938795",
"rX c #B0908F",
"tX c #B9A391",
"yX c #9C98A5",
"uX c #AB98A7",
"iX c #B4A9AD",
"pX c #B9ACBA",
"aX c #D1928E",
"sX c #D69899",
"dX c #CFA48B",
"fX c #D6A696",
"gX c #E2B698",
"hX c #D4ACAC",
"jX c #D9B9B6",
"kX c #EBBBAD",
"lX c #F0CFB5",
"zX c #F6CABC",
"xX c #BBB1C1",
"cX c #CBB9C8",
"vX c #D9C8D8",
"bX c #F1D3C4",
"nX c #F0D4C8",
"mX c #ECDCDE",
"MX c #F1DDE9",
"NX c #FBE2E4",
"BX c #EDE6F6",
"VX c #F4E9F7",
/* pixels */
"G.H.Q.|.$XR.L.V.G.K.{.@X@XE.@X^.%XE.R.^.C.L.L.R.R.^.L.Q.].$X{.J.H.H.I.$X$XR.J.G.V.K.].@X@XE.XX^.XXQ.E.~.C.J.L.R.Q.^.R.'.].$X@XK.",
"H.'.Q.$X@XM.B.C.J.I.{.$X{.Q.E.^.%XW.%X~.C.J.C.L.L.Q.J.L.E.*X{.J.H.'.'.|.$XB.B.G.L.I.].$X@XE.~.^.@X^.XX^.C.A.C.L.J.E.C.J.'.*X{.K.",
"Q.].I.`.`.Q.L.].L.L.I.$X{.{.L.L.^.XXW.W.R.U.U.E.L.!.R.R.R.~.%XL.Q.].I.I.'.L.R.^.L.L.Q.$X{.{.L.J.XXXX^.W.Y.C.A.E.L.E.R.R.E..X$XG.",
"|.|.}.`.I.].Q.'.R.E.{.{.{.^.A.N.W.W.Y.Y.W.E.Y.R.R.E.E.R.E.E.^.R.@X|.}.`.I.].Q.{.R.Q.^.^.{.{.C.V.W.E.Y.W.W.W.W.R.R.Q.E.E.Z.!.@XR.",
"*X{.Q.K.L.|.|.}.Q.^.{.I.!.Q.V.N.E.C.U.E.Y.C.N.N.R.C.A.R.E.E.!.{.$X{.Q.K.I.}.}.}.Q.^.XXQ.{.L.V.B.Y.C.A.E.Y.C.N.N.R.L.A.U.E..X+XR.",
"{.{.Q.G.G.].].I.H.E.E.L.Q.I.^.^.%XA.U.Y.U.A.N.C.^.J.V.E.XXW.L.Q.].{.Q.G.G.'.].I.G.~.!.L.Q.Q.{.^.%XU.U.W.U.C.N.C.~.C.V.U.XX+XL.T.",
"Q.{.|.}.I.].Q.J.J.@X$XK.C.b.L.E.W.A.E.A.U.W.L.Z.E.J.L.~.XXW.R.U.E.}.|.}.'.{.I.G.G.{.{.K.H.M.L.R.W.A.E.C.U.W.A.L.Q.L.A.E.XXXXP.R.",
"G.I.|.|.|.$X!.E.Q.@X$X].I.M.I.L.E.W.&XL.A.E.V.A.J.I.R.R.E.^.XXW.J.I.}.|.}.*XR.E.L.*X-X].Q.m.I.L.E.^.&XU.A.E.C.C.L.L.E.E.Z.+X@X^.",
"V.G.B.I.'.}.Q.Q.Q.!.'.K.I.I.Q.I.R.^.^.W.!.R.A.G.J.!.^.Q.U.%X*X{.J.J.S.K.].].Q.{.Q.Q.Q.K.I.K.'.I.R.^.^.~.E.R.G.J.J.!.!.R.R.#X$X^.",
"K.I.B.K.'.].K.}.].{.Q.Q.|.{.I.G.G.$X@XK.!.Q.@XH.D.(.).H.H._.(.D.D.D.c D.(._.K.}.{.].].'.}.].I.G.H.@X{.J.!.E.@XI.V.Q.^.E.W.#X!.C.",
"^.].].Q.].].`.}.|.{.G.].-X$X'.Q.{.*XK.R.J.J.*X).r r 1 r r r r r r < < r 1 G I.$X}.$XG.].-X-XQ.Q.{.*XR.R.G.G.@X!.Q.{.I.E.XX+XI.L.",
"{.{.$X].Q.'.Q.'.I.].Q.;X}.{.|.I.G.!.G.M.D.b F.b S S f d f d d f f W d d u n (.).K.].'.*X{.{.|.P.G.].C.b.G.J.I.V.L.'.R.V.A.K.G.C.",
"{.$X$XI.Q.'.!.^.H.].|.$X].].}.K.V.I.L.c q 9 9 d 8.h.g.j.g.g.d.d.g.g.g.w.#.W 8 M J.].$X$X}.`.|.K.G.K.K.M.L.I.J.B.K.Q.L.L.P.+X`.E.",
"Q.].K.H.Q.].Q.{.Q.|.}.`.|.Q.Q.'.Q.H.).b S d f f d.g.l.l.y.y.z.f.k.t.y.r.:.3.p Z (._.|.`.$X`.'.'.Q.Q.{.L.Q.I.Q.].Q.Q.R.V.L.+X#XQ.",
"].@XL.L.K.G.H.`.'.{.].Q.].J.'.{.{._.y u @.#.4X8.g.z.y.u.u.x.z.z.t.t.x.c.f.h.#.Q e Z ].I.'.H.{.{.].I.*XQ.I.J.].$X!.{.XXE.`.+X-X{.",
"].].R.L.G.b.H.}.`.K.I.Q.I.I.Q.K.I.}.y u 6.8.d.d.f.p.u.u.u.y.z.f.r.a.p.c.t.r.2.@.w B I.`.I.L.Q.I.Q.$X].Q.Q.R.Q.R.R.|.@X@X#X`.].Q.",
"].=X$XI.I.J.I.}.K.K.`.I.K.I.Q.G.I.`.u a h.s.g.g.f.i.y.u.u.y.z.p.i.i.k.z.l.v.j.1.L m K.K.G.~.].J.K.$XJ.R.Q.Q.L.G.V.E.U.~.I.G.P.Q.",
"G.E.@XI.|.{.Q.{.Q.}.$XJ.B.J.'.{.(.b S X.s.v.z.j.a.i.t.a.y.x.k.a.i.p.z.z.v.j.l.s.^ / (.D.B.K.Q.{.L.L.J.L.J.L.L.C.V.L.B.J.^.P.P.I.",
"M.J.].^.@XL.E.].I.}.{.I.C.C.E.{.1 y @.1.j.l.y.p.i.i.a.t.x.k.k.x.i.p.k.j.j.j.x.aXhX8X1 n C.C.R.{.R.I./.E.E.L.!.R.@X~.R.W.E.XXE.J.",
"G.V.J.^.^.R.{.Q.I.$X'.Q.C.m.C.'.N L @.1.j.l.u.t.i.i.p.p.k.k.k.k.p.a.j.j.j.v.sXsXuXeXR B D.n.T.~.^.R.R.@X@XE.XX^.@X@X^.^.A.Z.A.C.",
"K.J.J.G.B.R.^.].].$X$XQ.C.m.V.P.N P O.2.j.l.l.u.p.i.p.z.c.j.j.k.y.y.y.t.z.aXnXjX#.5./ R R m B.~.XXR.L.E.^.^.XX^.R.E.E.^.A.Z.N.N.",
"Q.Q.Q.C.K.E.C.{.'.H.].{.R.A.L.I.N w #.<.r.q.q.t.p.p.z.z.j.z.z.k.k.t.t.i.w.4XNXkX#.7.wX0X8X! c _.@XE.C.R.E.^.^.^.C.A.U.W.E.W.U.N.",
"!.Q.K.R.R.R.B.Q.I.M.I.].!.@X{.}.N e +.>.0.0.u.u.j.g.g.g.j.c.z.z.c.a.c.e.*.9.MXjX#.rXBXBXBXyX1 G {.!.R.^.@X~.R.W.C.E.E.W.W.%XW.E.",
"@X'.L.E.V.L.C.K.Q.Q.'.Q.!.@X@XP.N e +.$.....0.0.r.w.r.r.r.r.e.e.r.e.e.0.$.8.jXsXqXiXBXBXBXyXK G R.E.R.R.^.E.A.E.Y.R.E.W.E.XX^.~.",
"'.Q.!.$XR.I.E.G.I.$X`.Q.L.!.Q.S.q u #.2.%.[ [ [ ;.;.&.&.%.%.} [ %.;.;.[ *.>.1.9.pXcXVXVXBXuXK B V.J.J.C.R.R.A.W.W.Y.T.Y.~..XXXR.",
"I.I.!.{.^.Q.Q.J.J.I.|.'.P.L.L.S.q u O.=.} [ } ;.;.&.&.,.%.;.{ } } { ;.&.&.<.2.6.qXxXVXMXvXyXK m B.L.R.A.XXE.A.E.XX~.Y.C.C.%XXXJ.",
"$XQ.].!.R.E.@XQ.M.Q.I.{.@XQ.V.S.0 u O.+.-.;.*.:.:.&.<.<.&.;.{ { *.-.-.2.,.,.<.+.I 9XVXvXxX8XL m B.R.Q.XX{.W.E.A.W.XXE.^.E.XXE.B.",
"I.].].Q.R.}.@X!.B.H.H.$X@XP.H.`.N e U O.=.-.>.-.$.2.<.<.&.*.{ *.-.=.=.1.2.,.o.@.9XuXvXxX0X( G (.R.R.L.E.E.W.E.C.W.^.^.^.L.V.G.K.",
"`.{.].I.G.L.Q.@X].Q.K.].!.].Q.I.n 7 e u +.1.1.-.>.-.1.>.1.=.=.*.>.1.#.#.6.$.U 5.xXxXxX0Xt B !.!.G.B.J.R.^.@XXXE.~.^.^.{.L.N.N.P.",
"}.}.{.].L.^.E.Q.{.'.'.].{.Q.Q.H.j 7 S d W W U E U W W W I O.W X.U U W U U I I Q 0X0X0X! G (.Q.I.B.m.V.R.@X&X&X@X@XW.~.^.{.P.V.Q.",
"$XI.'.].@X@XQ.'.$X].}.Q.*X=X{.G.j 4 E D e 8 8 8 e t 1 L w e e u 7 8 8 8 L L L L L t t M &X=X@XV.m.B.L.R.{.@X*X@X^.R.L.{.$X#XP.J.",
"`.S.Q.@XQ.R.L.E.$X|.{.@X*X{.!.Q.b v V i s d i i s S s u 9 9 d u 9 8 P P ^ R : , P u R G @X@X^.~.^.R.J.Q.L.Q.E.].!.E.I.].{.@X].J.",
"H.H.I.{.@XL.L.G.H.L.{.@X@X^.{.!.{.P.j 2 C A A A C ] ] z 6 4 ] C 4 u W ^ rX(   : W Q Q ! XXE.{.!.@XE.!.E.C.L.J.R.Q.!.~.Q.Q.#X{.J.",
"H.'.'.$X@XB.B.J.L.I.].*X@XQ.!.^.%XP.- = 4 l A F A C z z | 3.9.3.5 f 9.qXcXeX  > 7.5.S H {.E.E.^.@X^.{.^.C.A.A.R.L.Q.J.J.Q.&X^.K.",
"R.].I.`.Q.I.I.!.L.H.I.@X^.XXU.A.^.I.o o 7 0 D O.A C 2 C 4XdXdX2X5 f aXhXMXuX  w sX2XD H {.{.L.A.XX^.W.W.W.C.C.E.L.R.R.R.R..X{.T.",
"$X|.|.'.I.].'.{.Q.E.{.{.{.{.C.N.W.R.x j 0 4 ) ] _ C 5 V 4X4XtX4X3.<XkXkXmXjX7.rXkXfX3.).@X!.A.N.W.W.Y.W.W.R.W.Y.R.E.Q.~.R.E.^.R.",
"|.|.Q.K.I.|.|.].Q.^.XX!.].R.V.V.E.A.U.L.q q ] ] ] ] 5 _ aXdX6X6X5X5XlXlXbXnXnXbXlXlX1XQ.^.I.V.B.Y.U.A.E.Y.C.N.N.R.C.J.Q.E.E..XQ.",
"@X{.Q.C.G.].'.I.H.E.E.J.Q.I.{.^.*XA.U.U.b v - 3 3 3 6 i ] 3.3X7X5X7XgXgXlXbXlXhX2X<X+XG.Q.I.{.^.%XC.Y.E.U.A.N.C.^.G.C.R.XX.XE.Z.",
"Q.|.$X}.`.].L.G.G.{.$XJ.H.m.L.E.E.A.E.C.A.H.O . X O C f 2 l 3X7X7X5X6XfXzXzXzXdXS H $XK.L.M.L.Q.W.T.E.C.C.W.L.L.R.L.A.E.XX.XR.L.",
"C.K.}.|.$X$XE.E.R.$X*X].I.M.I.L.R.XX&XZ.A.V.- - Z M V 0 0 5 ] | dX4X4.1.8.9.9.7.(.).$XQ.I.M.L.L.E.{.&XA.U.Y.C.C.J.Q.R.^.L.XX@X!.",
"G.G.M.J.!.{.I.{.I.'.Q.I.I.I.'.I.L.^.^.Q.^.H.j k OX' j < 2 2 2 C dXaXU ) ) f ] O.~.Q.'.K.I.K.'.I.K.^.{.R.!.R.J.J.K.Q.{.~.J.*X%X^.",
"I.L.B.L.'.].I.}.].{.{.I.{.'.I.G.J.$XXXH.v k v  X:X>X` | l _ | OXdXiXeX9.W W J ).{.].Q.].|.{.I.G.J.*X{.L.!.E.@XJ.G.Q.].E.~.*XE.T.",
"'.{.{.Q.'.}.`.}.|.{.G.'.-X$X`.'.^.*XJ.H.4 k  X X:X:X>X ._ _ ,X1XiXpXiXrXI F !.$X|.{.G.].$X;X'.Q.{.*XL.L.J.J.$X].Q.].Q.Q.XXXXZ.R.",
"].|.$X].!.].I.I.I.{.Q.;X].|.{.I.J.!.H.b.$ % ` ` :X:X>X .% 2 A A ! / y P W Q M G K.].'.*X'.|.|.Q.G.!.G.m.G.G.L.G.I.!.K.G.A.V.V.G.",
"{.$X|.K.I.].!.!.K.}.|.$X|.'.{.L.V.I.Q.x O # k ` :X:XOX| X O g N n < . * @.W L B K.{.|.|.}.].|.K.G.I.J.M.L.K.K.B.K.Q.J.L.P.!..XQ.",
"Q.].K.H.I.'.E.|.Q.|.|.`.$X`.Q.'.Q.I.{.S.O % ' ' ` ' | _ X o h R tXtXeX7.* > h B I.|.}.`.|.Q.Q.].Q.I.{.L.I.I.E.].Q.Q.Q.G.L.E.+XQ.",
"].{.J.R.K.G.H.].`.].!.I.'.K.'.@X].'.#XF.O $ OXOX_ ] ] S X @ Y / lXbXbXtX  @ 1 B Q.].].'.].G.!.{.].Q.$XQ.I.J.].$X].{.{.!.].^.@X@X",
"].@XR.R.K.b.G.}.I.H.I.'.I.L.`.L.Q.$X!.S.O O A | OX| * * > 1 L R fXgXfX9.  @ 1 G `.H.K.Q.I.I.Q.K.Q.$X'.!.'.E.R.Q.R.^.@X$X{.L.E.!.",
"^.*X$XL.I.J.I.$XK.K.I.I.H.Q.I.J.R.{.K.S.O X S F <XoXO @ K K Y R tXdXfX9.. @ 1 m I.H.K.I.J.Q.Q.J.I.{.H.R.Q.!.L.C.V.E.R.Q.Q.V.L.!.",
"G.Q.|.Q.$X^.R.].`.$X{.J.V.L.!.{.J.K.J.L.c x O = = = o ; T T T Y > , , < , g (.).Q.}.$XG.B.J.^.{.J.L.J.I.J.L.L.G.V.I.V.J.!.L.L.~.",
"B.J.].{.$XL.Q.Q.I.$X].I.C.C.E.@XE.Q.!.~.E.b.o . . . . ; 8X8X~ R .   X @ g g ^.^.Q.$X@XI.J.C.E.@XR.L.^.E.E.C.!.R.@X~.L.~.E.W.E.C.",
"G.B.J.^.E.Q.@XQ.I.$X'.Q.C.B.C.^.^.R.E.XX@XR.G.n.n.c X : I I @.O.) ) f n o = {.~.I.}.Q.E.C.m.C.^.^.R.E.@X%XE.@XW.@X@X^.W.A.Z.Z.B.",
"L.L.J.C.V.R.^.{.].$X$X!.C.m.N.E.^.R.A.E.XXXX%X!.Q.S.# & p f ) $.o.o.o.p o = W.!.].$X{.Q.C.m.V.W.^.E.J.W.^.^.@X~.R.W.R.^.A.Z.N.N.",
"I.Q.I.J.L.R.A.{.'.K.].!.R.L.A.~.@XE.L.R.W.^.^.^.C.G.D.c & + # & % % & - c M.R.^.'.K.{.!.R.C.L.^.@XE.C.R.E.^.^.W.C.T.T.^.W.W.U.N.",
"].I.L.R.L.R.m.Q.I.M.I.!.{.{.@X@X{.^.E.E.^.~.U.E.C.Y.E.S.@ o X o X X # = R.L.V.I.I.M.I.'.^.@X{.@X@X{.R.E.@X^.R.!.C.Y.E.~..XXXW.U.",
"{.'.I.!.V.L.A.K.Q.'.I.!.!.*X@XE.L.Q.R.E.^.E.L.E.U.R.E.Q.F.F.D.D.D.D.D.F.G.L.C.L.I.'.'.Q.{.@X@X!.R.E.R.R.^.E.A.W.U.R.W.^.E.XX^.E.",
"{.'.!.@XI.Q.E.G.K.}.].Q.K.Q.!.G.V.L.L.N.E.R.A.^.W.R.E.R.R.{.{.Q.Q.'.!.@XQ.R.E.G.I.].'.Q.K.Q.Q.C.C.L.C.C.R.R.A.W.W.R.R.~.R.^.~.Q.",
"I.I.Q.@X^.R.R.L.K.I.}.!.K.L.J.B.B.L.R.C.^.R.C.E.^.W.E.C.L.@X{.K.I.I.'.^.XXI.L.J.K.I.}.].I.L.J.B.B.J.L.L.XXE.A.W..XW.~.C.T.%X^.J.",
"|.'.{.!.R.E.@XQ.G.I.Q.].@X!.V.B.B.R.R.{.^.E.E.A.W.XXE.^.E.{.Q.G.{.'.].{.Q.E.@XQ.S.Q.I.].{.].B.B.B.L.Q.^.^.~.E.C.W.XXW.^.I.XXE.B.",
"I.'.'.R.Q.@X@X!.M.H.H.$X{.Q.J.!.R.R.I.E.W.W.^.C.W.XX^.^.L.J.H.J.I.'.Q.Q.I.@X@X!.B.H.K.$X].Q.J.].Q.L.L.E.W.~.W.C.W.^.^.^.L.C.C.K.",
"I.].].I.V.L.Q.{.{.Q.K.!.'.@XQ.!.C.V.J.L.^.XXXXE.W.^.%X^.L.B.M.`.`.{.'.I.C.L.Q.@X].'.K.Q.].].Q.!.C.V.J.L.~.@XXXE.!.^./.$XL.N.B.I.",
"$X|.{.{.R.^.Q.!.{.'.'.].].!.Q.I.B.m.V.R.@X&X*X@X^.W.W.{.@XL.G.I.}.{.{.{.L.XXQ.Q.{.].].].{.].R.R.V.m.V.R.%X*X&X%X^.W.!.}.$XP.V.I.",
"$XI.'.@X+X^.Q.Q.$X].{.Q.$X=X^.L.m.B.I.!.^.@X$X*X^.Q.T.{.$X$X`.P.}.I.|.{.{.{.Q.E.*X].|.R.*X=X{.G.m.V.L.Q.{.@X%X@X^.~.L.{.#X#XP.K.",
"`.S.`.{.!.L.L.'.-X$X$X$X*X{.E.^.^.R.J.R.R.R.R.{.!.R.L.{.].$X}.K.I.S.`.{.E.L.L.XX=X^.|.@X*X{.^.R.@XL.C.Q.Q.R.R.{.].R.L.@X}.$X].K."
};
