/* XPM */
static char *_36cbbcdffee405eec9dc9f6e515f76cvdUwXewGbxdV2nph[] = {
/* columns rows colors chars-per-pixel */
"50 50 229 2 ",
"   c None",
".  c #010300",
"X  c #0C0100",
"o  c #010A01",
"O  c #0A0A0B",
"+  c #070808",
"@  c #140605",
"#  c #1B0906",
"$  c #011300",
"%  c #011A00",
"&  c #081B0A",
"*  c #191609",
"=  c #0A0C13",
"-  c #160B15",
";  c #071417",
":  c #1D1313",
">  c #1D1B1D",
",  c #171716",
"<  c #27170A",
"1  c #230C14",
"2  c #241515",
"3  c #2B1413",
"4  c #23141C",
"5  c #241C1C",
"6  c #2B1A19",
"7  c #321D1D",
"8  c #371915",
"9  c #2B1008",
"0  c #0B2300",
"q  c #0C2606",
"w  c #162709",
"e  c #0A3102",
"r  c #1B201E",
"t  c #192518",
"y  c #1D320D",
"u  c #232805",
"i  c #362B05",
"p  c #24370B",
"a  c #3D3805",
"s  c #262719",
"d  c #352B19",
"f  c #2B3916",
"g  c #2B3417",
"h  c #333B18",
"j  c #131C25",
"k  c #1D1425",
"l  c #281726",
"z  c #331D23",
"x  c #1B2927",
"c  c #262B26",
"v  c #282B24",
"b  c #2C2329",
"n  c #262927",
"m  c #332B24",
"M  c #322A2C",
"N  c #382827",
"B  c #2C3A26",
"V  c #34322C",
"C  c #383829",
"Z  c #2A2731",
"A  c #372B35",
"S  c #2A3635",
"D  c #3D3233",
"F  c #3D363D",
"G  c #3B3C3B",
"H  c #363936",
"J  c #421613",
"K  c #532418",
"L  c #483A18",
"P  c #61201A",
"I  c #47372B",
"U  c #483A3A",
"Y  c #583B3B",
"T  c #4D2D2B",
"R  c #6A3428",
"E  c #673E37",
"W  c #652E27",
"Q  c #184312",
"!  c #294513",
"~  c #334C1B",
"^  c #324D0E",
"/  c #3A6A04",
"(  c #396D19",
")  c #2E4724",
"_  c #344221",
"`  c #3D5223",
"'  c #385B23",
"]  c #374638",
"[  c #2E4B34",
"{  c #3D7729",
"}  c #41541C",
"|  c #4B7518",
" . c #50771C",
".. c #4B6E1E",
"X. c #45472B",
"o. c #57422D",
"O. c #455D26",
"+. c #41413C",
"@. c #464734",
"#. c #594239",
"$. c #485938",
"%. c #555E2F",
"&. c #754A3A",
"*. c #6C4B3E",
"=. c #4C6D24",
"-. c #4A6929",
";. c #55682E",
":. c #4A7529",
">. c #507523",
",. c #517B23",
"<. c #5A7A2C",
"1. c #4E6A34",
"2. c #536C33",
"3. c #536B3B",
"4. c #5C7536",
"5. c #657B36",
"6. c #333C42",
"7. c #423E41",
"8. c #4F3840",
"9. c #4F3C4E",
"0. c #3D4649",
"q. c #3F4952",
"w. c #424243",
"e. c #494645",
"r. c #5A4947",
"t. c #595649",
"y. c #584E53",
"u. c #495455",
"i. c #5B5C59",
"p. c #565653",
"a. c #4B504A",
"s. c #674948",
"d. c #7C4E4C",
"f. c #77554C",
"g. c #775757",
"h. c #6E5453",
"j. c #5B7845",
"k. c #52694C",
"l. c #637545",
"z. c #646557",
"x. c #697355",
"c. c #61604B",
"v. c #5A506B",
"b. c #7F5F62",
"n. c #536963",
"m. c #656869",
"M. c #736A65",
"N. c #666B74",
"B. c #787973",
"V. c #894E3D",
"C. c #8A5746",
"Z. c #9C5A4B",
"A. c #945649",
"S. c #855B54",
"D. c #995D5A",
"F. c #9A5A55",
"G. c #944A47",
"H. c #A05C4D",
"J. c #A55553",
"K. c #A95B5B",
"L. c #8B6459",
"P. c #98665E",
"I. c #906147",
"U. c #A3604F",
"Y. c #856367",
"T. c #887C77",
"R. c #977674",
"E. c #996E69",
"W. c #AA7C77",
"Q. c #AD786F",
"!. c #5D951D",
"~. c #649A1C",
"^. c #618D1E",
"/. c #5C8929",
"(. c #5D9525",
"). c #5F9A24",
"_. c #548A34",
"`. c #638B2B",
"'. c #649725",
"]. c #659B23",
"[. c #63942A",
"{. c #639A2B",
"}. c #689A2B",
"|. c #6A9626",
" X c #63833B",
".X c #638935",
"XX c #659233",
"oX c #669934",
"OX c #6D933C",
"+X c #6A9937",
"@X c #74933E",
"#X c #72873A",
"$X c #698944",
"%X c #769347",
"&X c #6E8A52",
"*X c #6D9340",
"=X c #6E8670",
"-X c #8F9E77",
";X c #B6837B",
":X c #A7807B",
">X c #8EAF6A",
",X c #677882",
"<X c #878887",
"1X c #80908F",
"2X c #999A9D",
"3X c #9B928E",
"4X c #BD8B81",
"5X c #B48583",
"6X c #A69A92",
"7X c #9FA893",
"8X c #A3B793",
"9X c #A59FA1",
"0X c #BAACAA",
"qX c #B9B4A3",
"wX c #ADBBB0",
"eX c #C6A8A6",
"rX c #ACC4B1",
"tX c #CED2B7",
"yX c #B0BDC5",
"uX c #BAC3CB",
"iX c #BCD9D5",
"pX c #CCD2CD",
"aX c #D8E3C6",
"sX c #E3E8D1",
"dX c #ECF3D6",
"fX c #EAEDD2",
"gX c #DDEEF8",
"hX c #F7F9F9",
"jX c #EFF3EC",
/* pixels */
"                                                                                                    ",
"                                                                                                    ",
"                                                                                                    ",
"                                                                                                    ",
"                                                                                                    ",
"                                                . . o o                                             ",
"                                            o . $ 0 o o . r                                         ",
"                                          . o % 3.2.3.j.f t ; ;                                     ",
"                                          o 3.2...>.<.>X8Xy & o H                                   ",
"                                        o j.=.,.|  .|  Xj.[ n.u.S G                                 ",
"                                      o 2.=.,.[.[.`.$X' ) rXiXn.c r                                 ",
"                                      4.>./.{.[.(.+X$X! =X=X[ S . .                                 ",
"                                  . o 2.,.[.}.!.].|.OX4.~ ) $.k.. o                                 ",
"                                . . 3.:.XX}.!.].].^.`. X~ ` ~ ) . .                                 ",
"                          . . o . $ 1.,.oX(.).].].|.@X! -XaXaX8Xo .                                 ",
"                        X X X X . 1.=./.oX{.(.{.'.XX<.;.dXsXaXjX  o                                 ",
"                      X X # 5XL.u 2.=./.{.{.(.{.[.@X4.l.dXqXX.sX  .                                 ",
"                      @ 8 5X;XL.u 2. .`.'.].(.'.}.`.5.` aXsXtXdX  .                                 ",
"                      3 g.W.;Xf.p 1.>.`.'.~.~.~.~.}.OXO.$.wXrX=X. .                                 ",
"                    @ 9 E.4X4Xo.f 3.<.`.|.].~.~.!.'.OX' 0 B ] B . . .                               ",
"                    9 *.;XQ.;X*.X.$.;.5.#X@XOXXX+XXX-.y C V H s . . +                               ",
"                  X 8 E.;X4XP.K 9 d L a i a O.4.$X$Xp _ . . X X . .                                 ",
"                  D N :X;XQ.K R V.C.A.I.C.&.L i L 3.y t . o X X .                                   ",
"                  D 6 R.W.R R Z.Z.Z.H.Z.Z.F.F.S.#.< s t c c O .                                     ",
"                    : U R.K A.H.U.A.Z.V.A.J.J.F.D.T 2 H r                                           ",
"                    <X4 7 J A.F.A.&.K W P G.J.K.F.d.# H t x                                         ",
"                    uX2XD 8 C.D.f.3 Y eXf.E F.D.P.s.< s B y $ o s                                   ",
"                      jX9X# d.S.7 : U 0Xg.9 K &.E 8 s u p &X` 0 o $                                 ",
"                      hXpX6 Y Y @ 5 U T.#.I o.< d t.x.l. XOX/.^ e o                                 ",
"                        jXy.2 7 p.V m z.r.* C X.C B f O.<.OXoX( e $                                 ",
"                        hX<XO O e.v 3X0XqXt.B @.a.i.z.h ^  XXX:.e % /                               ",
"                          wX; x , * e.6X6X@.B.B.v v C g } *X_.{ Q $ /                               ",
"                          pXx N.m.s : t.T.m a.B.<Xg l.&X%X/./ { Q % /                               ",
"                          gX6.q.<X: M.N I # > > z.x.! $X*XXX( ( Q $ /                               ",
"                            ,Xj <XD y.N s.h.: > 2 c.f 3.%X%X,.:.e $                                 ",
"                            uXj y.4 1 T S.g.z D D m * _ l.;.$X-.$ 0                                 ",
"                              u.+ 5 # f.L.S.s.z M U c o g g h f o                                   ",
"                              uXn > 2 #.S.L.U l b e.G , @.z.$.w q                                   ",
"                                yXj - z g.Y.6 M 7.6.w.+.O s 7Xx.&                                   ",
"                                  u.= A 4 U b 7.w.w.w.+., v <X] t                                   ",
"                                  1X= , - b F w.e.w.7.M > u.S ; x                                   ",
"                                    m.N.Z - F F H e.V 5 O = 0.                                      ",
"                                          9.+ - : 5 N 3Xi.,                                         ",
"                                          v.1 8.s.N d M.+.S                                         ",
"                                          l 9.Y.r.2 : s G                                           ",
"                                        A - g.d.1 y.M.                                              ",
"                                        k l Y.s.3 B.z.H S 0.D                                       ",
"                                          4 b.s.@ 5 n p.n.w.: D                                     ",
"                                          - N N i.<X2Xm.u.  G G                                     ",
"                                          > - - n n S n M n r H                                     "
};
