/* XPM */
static char *xpm_[] = {
/* columns rows colors chars-per-pixel */
"64 64 251 2 ",
"   c #0E0A06",
".  c #150C09",
"X  c #1B0B0B",
"o  c #0E160F",
"O  c #171608",
"+  c #191B0A",
"@  c #160D12",
"#  c #191718",
"$  c #27180B",
"%  c #36180B",
"&  c #2E0D11",
"*  c #251916",
"=  c #1B2807",
"-  c #25290A",
";  c #38230C",
":  c #262418",
">  c #352819",
",  c #362E28",
"<  c #39382B",
"1  c #3A3A35",
"2  c #313438",
"3  c #45180E",
"4  c #59390C",
"5  c #4C2D1B",
"6  c #542B13",
"7  c #493318",
"8  c #583618",
"9  c #6C3A12",
"0  c #61341C",
"q  c #641E24",
"w  c #472B25",
"e  c #532E28",
"r  c #48362A",
"t  c #53332D",
"y  c #573929",
"u  c #4A2C38",
"i  c #5B2D37",
"p  c #4C3534",
"a  c #433D32",
"s  c #473838",
"d  c #553435",
"f  c #5B3434",
"g  c #533B33",
"h  c #553839",
"j  c #66302A",
"k  c #753429",
"l  c #652C35",
"z  c #663835",
"x  c #763737",
"c  c #3B422C",
"v  c #2E4238",
"b  c #364334",
"n  c #58420C",
"m  c #4D451C",
"M  c #74481D",
"N  c #5A790F",
"B  c #617F17",
"V  c #484427",
"C  c #55452B",
"Z  c #434231",
"A  c #4A4637",
"S  c #574735",
"D  c #4C5230",
"F  c #6A462A",
"G  c #774B2A",
"H  c #7D512B",
"J  c #6C4938",
"K  c #744A38",
"L  c #685738",
"P  c #755338",
"I  c #383D43",
"U  c #572F42",
"Y  c #493441",
"T  c #583848",
"R  c #6F3A47",
"E  c #374B4B",
"W  c #4A4445",
"Q  c #51565E",
"!  c #7A4B48",
"~  c #685748",
"^  c #6E504F",
"/  c #6F5B55",
"(  c #775A55",
")  c #4B5A62",
"_  c #595A65",
"`  c #893635",
"'  c #9D590C",
"]  c #884D1C",
"[  c #87521D",
"{  c #935615",
"}  c #A45C0C",
"|  c #996317",
" . c #B97E13",
".. c #874C27",
"X. c #924B28",
"o. c #85532A",
"O. c #8F4F36",
"+. c #AD4B3C",
"@. c #BA4A3D",
"#. c #8E7C24",
"$. c #987829",
"%. c #957838",
"&. c #A97C28",
"*. c #C64A3E",
"=. c #893B48",
"-. c #963D48",
";. c #923F55",
":. c #864A49",
">. c #95494F",
",. c #9B4C4B",
"<. c #875647",
"1. c #98504E",
"2. c #894955",
"3. c #994A56",
"4. c #8C5354",
"5. c #935152",
"6. c #9A5357",
"7. c #AA4D47",
"8. c #B64B46",
"9. c #B34E4B",
"0. c #A85349",
"q. c #B35245",
"w. c #B85348",
"e. c #BB534B",
"r. c #A54D55",
"t. c #B34D54",
"y. c #A65256",
"u. c #B75457",
"i. c #974C64",
"p. c #9C7664",
"a. c #B66E68",
"s. c #AD7468",
"d. c #B97266",
"f. c #B1746D",
"g. c #C1544B",
"h. c #CA5554",
"j. c #DA6B5C",
"k. c #CD7257",
"l. c #D7775B",
"z. c #DD755C",
"x. c #E46D5C",
"c. c #EA6858",
"v. c #EB6C5C",
"b. c #F26B5F",
"n. c #E4725B",
"m. c #E97259",
"M. c #C76A66",
"N. c #D86B66",
"B. c #CE756D",
"V. c #DC7465",
"C. c #D57671",
"Z. c #E46D64",
"A. c #EC6C63",
"S. c #E26A6A",
"D. c #EB6D6B",
"F. c #F26A64",
"G. c #F26D6C",
"H. c #E47163",
"J. c #EA7161",
"K. c #E6706B",
"L. c #F27064",
"P. c #E76C71",
"I. c #E57473",
"U. c #5D820D",
"Y. c #5F8312",
"T. c #638D0B",
"R. c #648D08",
"E. c #689507",
"W. c #66920B",
"Q. c #6A950C",
"!. c #6D9A0C",
"~. c #759B0E",
"^. c #719D0D",
"/. c #658B13",
"(. c #6A8E15",
"). c #66851A",
"_. c #6A8D1A",
"`. c #72871F",
"'. c #679113",
"]. c #6B9513",
"[. c #6D9A13",
"{. c #6D931B",
"}. c #6D9919",
"|. c #729D14",
" X c #72951D",
".X c #769919",
"XX c #739D1B",
"oX c #75A20E",
"OX c #78A60F",
"+X c #6FA210",
"@X c #75A215",
"#X c #79A515",
"$X c #7CA915",
"%X c #76A21B",
"&X c #79A51C",
"*X c #77A819",
"=X c #7DAA1C",
"-X c #7DAA1E",
";X c #6B8722",
":X c #6F9021",
">X c #739622",
",X c #769C22",
"<X c #7A9E29",
"1X c #77A121",
"2X c #7AA522",
"3X c #7EA921",
"4X c #7EA923",
"5X c #7CA62A",
"6X c #7EA92A",
"7X c #9D9416",
"8X c #BC9A06",
"9X c #A98618",
"0X c #B88A16",
"qX c #AD9015",
"wX c #81A818",
"eX c #81AD1D",
"rX c #B8A30C",
"tX c #B0A214",
"yX c #93822D",
"uX c #A78828",
"iX c #B58627",
"pX c #B18C2F",
"aX c #82A523",
"sX c #81AD24",
"dX c #86AA2A",
"fX c #82AD2B",
"gX c #84B123",
"hX c #89B626",
"jX c #86B12A",
"kX c #89B42C",
"lX c #83AB31",
"zX c #86B130",
"xX c #C39A06",
"cX c #C99316",
"vX c #C09327",
"bX c #9E8275",
"nX c #A4836B",
"mX c #AD8977",
"MX c #B99377",
"NX c #CF896D",
"BX c #BD9383",
"VX c #A9B391",
"CX c #C59B8B",
"ZX c #CFAB9D",
"AX c #CEAFA5",
"SX c #D7B6A8",
"DX c #E7B6AD",
"FX c #DFC1B2",
"GX c #E9C5B7",
"HX c #F3C7B9",
"JX c #F3CEC2",
/* pixels */
"].{.%X6XfX@X|.Q.Q.}.2XsXsX*X-X=XeX*X-X=X[.[.[.%X#X-X@X%X&XfX2X}.].].}.fXjX@X[.[.Q.}.2X4XsX#X=XwX4X#X2X*X!.|.[.|.%X-X#X%X1XfXaX}.",
"].1X1XfXfXW.W.Q.|.XX2XjX4X&X=X=XgX$X=X-X!.^.!.[.[.&X[.[.=XjX4X[.].<X1XjX6XW.W.[.[.XX&XjXfX#X-X*XsX$XeX=X!.^.!.|.|.#X[.[.1XkX5X}.",
"%X2X}.XXXX%X%X&X|.|.,XsX2X=X|.^.$XeXwX*X#X!.OX#X|.&X@X@X@X*X-X[.%X2X,X}.1XXX|.-X|.|.%XjX4X4X|.|.=X=X=X$XOX^.^.@X|.#X%XoX|.eXsX[.",
"6X6X5X1XXX2XXX2X@X#X4X4X4X=X|.E.$X$XOXOX$XOXOX#X@X@X#X#XOX*XeX&X4X6X5X,XXX%X%X4XXX%X=X4X4X-X!.E.$X$XOX$X$XOX$X@X|.#X#X#X~.=X4X@X",
"fX4X&X[.|.5X5X2X%X4X4X%X2X|.!.W.#X!.oXOXOX!.!.E.@X!.!.oX#X#X&X4XjX4X%X[.XX6X5X5X%X4X4X&X2X@XE.W.$X^.^.$XOX!.!.E.@X^.^.oX=XwXaX#X",
"4X4X%X'.'.5X5XXX].#X#X|.&XXXeX-XgX^.oXOXoX!.E.!.-X|.!.oXwX-X@X%X2X4X%X'.].1X2XXX[.#X#X[.&X%X4X3X=XOXoX#XoX!.E.!.*X|.E.oXwXaXXX+X",
"%X4XlX5XXX4X|.].[.4XsX[.[.U.|.%X=X^.#X^.^.$X|.^.#X[.[.*XeX$X@XoX#X6XlX5X1X4XXX[.].4X6X[.].T.|.%X*XoX#X!.oX*X^.|.#X|.|.#XeXwX|.@X",
"[.XX6X6X6XfX-X#X%XfXfX2XXXT.|.|.#XwXhX^.^.#XQ.^.[.XX@X&X#X=XeX$X[.XX5X5X5XfX#X@X@XfXjX2XXXT.[.|.#XwXhXoX^.#X!.!.|.XX|.$X~.aXsX=X",
"Q.].W.XX1X5X%X2X%X&X2X}.XX|.2X}.|.-X4X&X#X@X|.].].&X-X%X|.sXjX-X[.].T.[.1X5X%X1X%X%X1X}.XX}.1X%X|.-X4X#X#X%X[.[.[.&X%X#XoXdXjX-X",
"|.XXT.[.2X2X}.5X2X-X&X%X5X2X%X/.].fX4X@X&X%XsX].'. X,X}..X5X{._._.{.U._.>X>X:X5X5X%X2X%X6X4XXX].[.sX4X[.&X#X4X[.Q.XX4X#X*XdX&X!.",
"2X2X4X1X1X2XXX5X5XfX].2XlXfX2X&X4XjX+X@X[.[.jX1X>XD Z Z Z Z a a Z Z Z 1 Z a D <X6X4X[.1XlXlX%X%X4XfX|.@X[.].fX&X%X2X%X#XeXaXXX|.",
"4X4X6X2X&X%X%X1X|.2XXXkX5X2X6XXX].&X].U.]./.{./.;XS h h f f f z z f z f l f S `._.,X:XkX2X4X6X%X].2X[.R.'.[.XXQ.|.2X@XE.^.}.].!.",
"4XfX5XXX1X1X*X-X}.2X6X6X4X2X5X}.'.XX[.T.}.V V 7 C p.mXa.a.B.N.M.M.j.M.M.M.M.s.y y C C 5X5X1X6X}.].XX[.T.[.XX[.W.}.%X|.|..XaX<X@X",
"%X2X}.].%X1X%X4X%X6X6X,X6XXX%X2X%XXX2X{.`.C e y k d.B.V.H.F.v.x.n.x.A.G.K.I.M.x j d g ;X<XXX%X1X%X%X4X[.%X|.%X4X%X%X@X!.|.aXaX&X",
"&X4XXX|.}.].'.1X,X4X2X%X2X].1X4X4X1X5XV z :.r.M.N.S.K.A.F.F.L.n.z.V.J.A.A.I.C.a.a.6.4.S D /.2X5X2X1XjX%X%X[.%X6X&X4XeX#X2XdXzX2X",
"2XsX|.@X]./.'.5X>X}.|.%XXXXX&X}.,XfX>Xy l t.h.N.n.D.A.F.F.b.m.n.z.z.z.x.F.H.V.C.B.y.6.g r _.1X}.%X6X2X%X%X%X%X&X%X4XsXsX2X.X,X-X",
"2XkXfXXXXX[.XXfX[.}.1X}.}.%X%X[.XX4X(.y l M.P.S.J.H.H.J.A.n.n.z.z.l.l.m.L.x.x.n.N.C.f.j y  X%X[.}.4X[.%X%X&X|.].Q.%X[.#X%X]..X2X",
"[.&X4XXXfX&X%X2X%X5X6X[.W.[.&XsX[.{.).y x N.P.Z.V.V.H.H.J.n.z.n.z.NXz.b.b.n.x.m.G.D.N.x j ).>X4X|.|.[.|.[.|.|.!.Q.@XQ.+X&X.X.XXX",
"T.[.&X4XgX[.#X2X%X6X4XXX!.!.#XsX XV C :.y.N.G.Z.H.z.V.n.n.n.n.x.m.z.m.m.c.m.c.c.c.c.N.0.<.S C <X#X|.&X*X#X[.&X@X4X*X|.$X#XwX#X[.",
"].Q.[.-X#X&X4X%XXX6X1X%X!.W.!.-XXXA d 2.t.S.F.A.x.z.n.n.x.m.A.v.m.m.c.L.v.m.m.m.x.A.K.t.>.d a ,XeX@X#XsXsX#XeX$XsXgX-X$X^.^.^.!.",
"}.[.[.Q.].@X4X2X2XfX6X%X!.R.E.*X%XZ p 5.u.S.F.F.v.v.J.x.A.v.F.v.L.b.F.F.c.m.m.n.n.A.Z.e.3.f a |.-X@X^.#X-X-XeX=X#X#X#X$X^.~.E.E.",
"%X%X%X[.[.@XQ.4X1X{.2X-X@X^.oX-X2XA d 6.u.S.A.F.c.v.A.J.J.b.F.b.A.F.b.b.x.m.m.k.NXz.j.8.,.f Z XXsX#X|.@X#X=X=X=X!.^.@X$X#X$XoX!.",
"2X%X|.@X@X@XQ.%XXXT.XX2X2XsX-XsX,Xr i 3.t.e.g.x.J.J.n.V.H.A.G.G.G.F.F.A.A.n.z.k.k.w.g.g.3.f Z <XsX-X@X&XsX$X|.=X!.#X#X$X*XgX$X@X",
"4X1X[.&XQ.@X!.[.%X%X%X%X&XsX4X%X}.A U r.t.9.w.j.x.j.V.S.S.D.G.P.D.G.A.Z.H.j.l.k.k.8.9.t.5.g a {.|.#X|.@X=X*X^.$XOX@X#X$X$XeX=X#X",
"2X%X&XsX%X|.#X].XX2X2XXX|.&X%X]./.g l 3.t.t.8.g.g.w.g.N.P.P.P.I.C.C.V.V.N.e.w.w.w.9.9.y.4.h r /.Q.^.|.Q.#X@X^.=X#XOX+XOXOXwXeX%X",
"XXXX%X4X-X%X%X[.}.%X2X5X[.%X|./.N d U 2.>.t.8.w.8.@.g.N.N.B.M.f.s.s.a.B.M.e.@.w.8.9.0.<.! d a )./.|.|.^.-X#X^.#XwX*XOX^.+XeXeX[.",
"6X%X2X4X@X#XsX%X/.XXXX4X4X&XT.D c Y u i z ,.q.0.q.q.q.9.0.K z S S C G 7.e.8.e.g.9.t.,.k h u r S V ].&X=X=X*X#X^.$XeX*X=X#XeX#XW.",
"%X%X2X%X%X4XsX&XW.].}.6X4X%X/.< 2 s Y s f <.0.+.7.q.0.0.4.g c c c V V <.r.8.8.h.7.9.1.f r d p , a _.|.#X$X$X#X^.*XwX=X=X|.[.W.}.",
"XX6X2XXXQ.|.%X4X4X%X}.2X2X&X{.+ * nXBXY T ( 1.+.+.w.<.K g 1 v c c V r A z 1.8.*.@.+.<.y g mXp.* + U.Q.@X-XsXeX#X=X-XeX4X|.E.E.XX",
"6X5X4X2X@X-X#X&X4X1X1X2X2X1X/.o * MXNXT U ( O.+.+.+.O.x h A A y y y y T T 5.9.+.7.5.( d z MXBX* O N Q.@XsXhXhXsXeX*X*X4X2X.XQ.%X",
"6XXX2X4X2X4X%X%X6X2X5X%XjXhX{.O $ MXNXT Y U i i x r.y.,.1.5.6.r.0.1.6.i.i.6.1.x l U s t y NXMX* O U.[.#X-XsXsXjX-X|.|.4XfXsX.X[.",
"1X/.%X4X&X@X|.&XjX5X4XsXjXsX{.- : nXnXh U u t i i :.4.3.3.3.i.y.r.7.i.i.i.i.! t u p p r C nXp.; - '.!.%X|.%X#X2X&X#X@X2X2XdX2X[.",
"}.'.%X4XsX|.|.[.].|.2XsXsX#X-X}.).> & e i P F 8 7 y g g d i l U i f f U U h d 5 y J J 6 7 $ : )..X.X*X=X!.|.[.%X%X&X@X%X%XsXaX}.",
"].1X1X6XsXW.W.Q.|.XX2XjXsX&X&X-X.X- $ w 5 F G 4 V y p r a s s d p t r g p r 8 6 8 J J 7 > + - }.sX-XeX=X!.!.^.@X[.&X[.[.%XjX4X[.",
"%X2XXX1X%XXXXX4XXX|.XXsX2XeX^.^.eX.X/.O O r g J K K K G G K P ~ K ! J P G ......G 8 a X + )./.!.eXwX*X$XOX^.!.#X@X&X@X+X&XwXgX+X",
"fX6X5X,XXX2X1X2XXX&X=X4XsX2X!.!.$X*XQ.= + , , ~ K O.o...] o.o.o.o.P G H ] ......J r , o = XX!.E.$X$XOXOX$X#X$XOX@X#X%X*X@X~.-X*X",
"6X4X2X[.XX6X6X2XXXeXeX&X2X|.Q.W.#XoX^.].U.O X w y G o...[ X.X.X.X...o.[ ] ....8 7 o + Y.{.|.Q.W.*X^.^.$XoX!.E.E.#X!.[.@X#X#XwX#X",
"6X4X%X[.W.5X2XXX].=X#X].&X%XsX-XeX^.OXOX/.+ X r e F G G o...X.X.X...[ ] H G J 5 >   = Y.%X%X-X4XgX^.oX$XoX^.Q.E.-X[.Q.@XeXwX^.|.",
"%X5XfX2X,X4X|.[.!.4XsX}.].T.|.@X#X^.#X!.].S 2 .   . $ w 8 M ] ] ] [ G 8 w $ X   @ , A /.[.T.|.#X*XoX#X!.^.$X@X@X%X[.|.&XeXwX#X|.",
"[.XX5X5X5XfX#X@X@XfXdX5XXXT.}.XX&XwXhXT.B A 1 @   O $ w e G ] ..] M H e w $ O   + 1 W ;X{.U.}.%X#XwXhX|.!.OX!.!.[.%X@X&X|.eXeX=X",
"Q.'.T.[.2X2X%X&X%X&X2X}.XX}.2X|.|.4X<X: o b Z 1 C $.$.8 e 8 8 8 0 k q q k $.$.m > s 1 # : /.1X}.|.-X4X*X#X%X|.[.[.&X4X*X[.eXgX-X",
"XX%XW.XX1X5XXX5X2X4X&X%X5X2XXX'.].lXVX: o v s t j 9XuX4 8 8 4 4 9 9 k q 0 iX9XF r 1 I # # )./.].].sX4X[.&X#XsX[.].XX4X&X*XjX#X+X",
"%X-X4X%X2X2XXX5X6X6X].2XlXfX1X&X X- : I 2 c s z G iX&.$ $ yXqXqX0XqX$.% $ 9X0Xk i 1 v E 2 $ -  XsXjX|.|.[.[.fX&X%X&X%X%XsXeX|.|.",
"2X4XfX2X%X2XXX1X}.4X%XzX2X6X4X>XB > : Y W 1 s x ` &.$.% - 7XrX8XxXrX7X; % #.&.` =.r < Z g > > ).(.1X].T.].].[.].XX2XXXW.~.E.Q.[.",
"4X6X5X}.XX2X-X%X}.2X5XfX5X2X5XL ~ ZXAXBXbX: & 2.=.3 ; $.9XtXrXxXxX8XrXuX$.3 3 -.;.X * f.CXAXAX~ L >X|.T.}.XX[.W.[.%X[.|.|.wXwX.X",
"%X2XXX{.,X%X&X4X1X6X5X,X6XXX>X~ / FXHXSXBX# X =.>.& % &.iX8XrXxX8X8X8XqX$.% 3 ` =.X # BXDXGXFX<.P >X2X[.%X[.%X4X&X%X%X].}.#XaX&X",
"2X4X[.@X|.].].1X1X2X1X%X2X[.>X~ / GXJXHXSX* X j k 6 4 [ } 0X0XcXcXxXxX' [ 8 7 k k X * AXDXJXGX:.K >XfX2XXX[.-XfX1X4X4X2X&X=XsX4X",
"2XsX+X*X[.Y._.5X}.}.}.%X%X}.5X~ / AXDXDXZX* @ l k 6 4 { } 0XcX0XcXcX .{ [ 4 4 J f . : AXDXDXDX<.P <X2X&X%X@X%X&X%X-X4XfX4X@X%X-X",
"-XjXfX|.XX[.XX6X[.}.XXXX[.XXXX{.`.( O.:.^ I I _ ^ w n uXiX} } } ' { | iXiX4 e _ Q v c J :.<.<.`..X4X].%X&X&X|.[.Q.#X|.%X&XQ.|.=X",
"].%X6X%XsX-XXX4X1X5X2X[.Q.|.2X4X{.L L ! ~ Y I ) ) 1 m yX&.' } ' } } | %.%.y < ) ) v 1 L P H P <X|.XX[.|.].|.|.Q.Q.XXQ.!.#X|.|.%X",
"W.].2X4XjX|.&X1X%X6X5XXX!.^.#XsX&X}.,X.X;X# # E E ) E - ; &.vXqX0XcX&.; : ) ) E v O + ).[.(..XsX&X|.&X#X#X!.=X#XsX*X|.=X#X#X#XQ.",
"].Q.[.-X&X|.sX%XXXfX2X@X!.T.!.-X=X@X=XeXXXo @ Y E _ / # * %.pXuXpXpX%.O # ) _ W s . O /.^.E.!.=X-X@X#XsXsX&XeX*XeXsX-X*X^.oX^.Q.",
"|.|.[.].Q.@X-X-X2XfXfX&X!.T.E.*X=X@X^.#X|.$ & R -.;.:.p s W d S C C D , g ! 4.3.=.& $ /.Q.R.Q.-X$X@X|.#X-X-XgX*X#XOX*X=X^.~.E.E.",
"XX%X|.[.@X@X!.4X%X[.5X&X@X|.^.$XsX&X^.@XQ.- % =.-.-.=.C Z W W A Z b b D C x =.3.=.% >  X@X^.oX*XsX#X!.@X#X-X=X$XQ.oX+X$X$XwX~.E.",
"2XXX|.@X|.@XE.%X}.T.XX%X4X4XsXsX2X=X#X&XwX{.N $ X & $ _.}.5X,X X>X:X'.'.).$ & & & N (.&X4X4X4XsXsX-X@X#XsX=X@X*X!.OX*X*XwXeX$XOX",
"4X2XXX&XQ.[.!.[.1X1X2X%X&XgXsX#X|.#X@X#XwX#XT.= O O - ].*XsX2X2X5X%X@X2XU.: # # : _.%X%X-XfXsX#X@X#X@X@X=X#X!.$XoX#X#X=X$XsX#X*X",
"2X2X=XsX@XXX@X].XX2X2X%X}.%X%X[.W.|.|.E.#X@X!.|.].Q.W.#X#X4X4X%X1X1X*X4X%X'.'.Y._.1X1X%XXX%X#X[.E.|.[.E.#XoXoX$X$X@X@X*X@XeX=X&X",
"|.XX&X2X=X@X@X|.}.,X5X2X}.@X[.T.Q.[.@X!.-X#X!.#X=X=X#X^.!.sX4X}.|.XX2X-X4X%X@X[.}.,X5X1XXX[.[.W.W.|.|.|.-X#X^.*X$X$X*X!.^.=X=X[.",
"5X5X2X&X&X&XsX&XW.}.1X4X4X2XQ.W.W.@X&X-X-X#X#X^.=XwX*X=X#X4X%X].4X1X1X2X%X*X4X%XW.XXXX4X4X1XW.W.Q.|.&XeX-X#X#X!.$XeX*X=X%XeX&XW.",
"XXXX2X#X|.sXsX&XW.].{.4X2X%X[.&X@X@X[.#X*X$X=X!.*XwX=X4X[.[.].[.XX2X2X%X|.-XjX&X'.].}.6X4XXX[.4X%X|.|.#X*X*X#X!.$X=X=X4X|.[.!.].",
",X2X2X%XQ.|.&X2X2XXX].&X&X2X-X&XQ.Q.!.@X=XeX=X&X=X=XeXsX|.W./.,X,X4X2XXX!.|.#X4X4X%X[.1X2X2X%X&X!.Q.[.@X*XsXeX#X*X-X4X4X@XQ.R.XX",
"5X5X2X4X@X-X&X&X2X2X2X2X4X&X@XXXQ.R.Q.@XsXhXjXgXwX*X$XsXsX@XW.,X4X2X2X&X%X-X%X&X6X1X1X2X2X&X&X|.W.R.E.@XgXjXhXjXeX*X*X6X6X|.Q.XX",
"fX|.2XsX=X2X%X2XfX2X5X&XjXkX4X[.R.Q.[.%X4XgXsXsX&X@X!.sXjXfXXXXX5X,X5X4X=XsX%X&XjX2X4X%XjXhX4X[.R.E.|.%X4XeXgXgX-X@X[.4XdXdX.X[.",
",X/.2X2X&X|.|.2XjXfXfXsXjX2X-X*X-X@X[.@X@X&X&X4X&X%X@X-X2XfX5X}.}.'.5X2X#X[.|.-XkX4X6XgXjX4X&X#XsX|.[.%XXX@X&X4X&X&X@XfX2XdX2X}."
};
