/* XPM */
static char *xpm_[] = {
/* columns rows colors chars-per-pixel */
"64 64 246 2 ",
"   c #0F0E0E",
".  c #180C08",
"X  c #161707",
"o  c #1A1514",
"O  c #270A09",
"+  c #26160A",
"@  c #331609",
"#  c #270E1A",
"$  c #271816",
"%  c #321B17",
"&  c #1A2608",
"*  c #1D2314",
"=  c #2B2B0D",
"-  c #141827",
";  c #352E2A",
":  c #3C3A37",
">  c #59380B",
",  c #582F14",
"<  c #4A341B",
"1  c #573A18",
"2  c #693616",
"3  c #4B2D2D",
"4  c #542E2B",
"5  c #4B362B",
"6  c #583626",
"7  c #472A34",
"8  c #582D35",
"9  c #4C3233",
"0  c #433E32",
"q  c #483739",
"w  c #5D3535",
"e  c #563835",
"r  c #55323B",
"t  c #5C353A",
"y  c #69342F",
"u  c #623435",
"i  c #633939",
"p  c #793838",
"a  c #3C4833",
"s  c #554616",
"d  c #62490A",
"f  c #745015",
"g  c #5A7E0C",
"h  c #5C7916",
"j  c #637F14",
"k  c #4D4D2C",
"l  c #554928",
"z  c #434332",
"x  c #484838",
"c  c #57483A",
"v  c #475437",
"b  c #565638",
"n  c #6A4226",
"m  c #764A28",
"M  c #71542A",
"N  c #684634",
"B  c #794836",
"V  c #765638",
"C  c #5E6024",
"Z  c #72712B",
"A  c #3D3C46",
"S  c #492E42",
"D  c #4A3945",
"F  c #533747",
"G  c #693A47",
"H  c #753B43",
"J  c #3C4A51",
"K  c #484647",
"L  c #545549",
"P  c #4F4D52",
"I  c #594353",
"U  c #654647",
"Y  c #74454B",
"T  c #72544E",
"R  c #7C4655",
"E  c #505A76",
"W  c #516175",
"Q  c #716676",
"!  c #8F373E",
"~  c #834B14",
"^  c #945B17",
"/  c #937203",
"(  c #884B2A",
")  c #83522B",
"_  c #8B4E3A",
"`  c #B04F3E",
"'  c #B84D3E",
"]  c #AD533D",
"[  c #8E712F",
"{  c #AB7C2A",
"}  c #833B43",
"|  c #973942",
" . c #874649",
".. c #9B4A4C",
"X. c #8E5646",
"o. c #874C52",
"O. c #984C53",
"+. c #8C5254",
"@. c #885259",
"#. c #985356",
"$. c #AC4D45",
"%. c #B44C4D",
"&. c #B94D49",
"*. c #AA5348",
"=. c #B15244",
"-. c #B75448",
";. c #A34B51",
":. c #B34C51",
">. c #B94A52",
",. c #A55556",
"<. c #B25352",
"1. c #B75258",
"2. c #9C6C50",
"3. c #885964",
"4. c #A75D62",
"5. c #93666A",
"6. c #9C7977",
"7. c #BB6A64",
"8. c #AF726E",
"9. c #C9544A",
"0. c #D15348",
"q. c #D66C56",
"w. c #DD6B5B",
"e. c #E56558",
"r. c #E56C5B",
"t. c #EB6C5C",
"y. c #F26B5C",
"u. c #E67357",
"i. c #E4725B",
"p. c #EA715B",
"a. c #C96B64",
"s. c #DD6B65",
"d. c #DB6B69",
"f. c #C8776A",
"g. c #DA7468",
"h. c #CE7675",
"j. c #E76A65",
"k. c #EB6D62",
"l. c #EA6C6A",
"z. c #F16C65",
"x. c #E37263",
"c. c #EA7162",
"v. c #E47069",
"b. c #E37876",
"n. c #5D8110",
"m. c #638E06",
"M. c #638D0B",
"N. c #689507",
"B. c #66920B",
"V. c #6A950C",
"C. c #6D9A0C",
"Z. c #759B0E",
"A. c #719D0D",
"S. c #618214",
"D. c #658D13",
"F. c #688B18",
"G. c #6A8C1C",
"H. c #73891F",
"J. c #679113",
"K. c #6B9513",
"L. c #6E9A13",
"P. c #6C931B",
"I. c #6D9919",
"U. c #729D14",
"Y. c #75981B",
"T. c #739D1B",
"R. c #75A20E",
"E. c #78A60F",
"W. c #6FA210",
"Q. c #75A215",
"!. c #79A515",
"~. c #7BA915",
"^. c #76A21B",
"/. c #79A51C",
"(. c #77A819",
"). c #7DAA1C",
"_. c #7DA91E",
"`. c #6D8A23",
"'. c #6E9221",
"]. c #739423",
"[. c #759C21",
"{. c #769829",
"}. c #779231",
"|. c #77A121",
" X c #7AA522",
".X c #7EA921",
"XX c #7EA923",
"oX c #7CA62A",
"OX c #7EA92A",
"+X c #7DA230",
"@X c #B99505",
"#X c #AD8617",
"$X c #B59218",
"%X c #81A818",
"&X c #81AD1D",
"*X c #8D8037",
"=X c #B5852A",
"-X c #AD8432",
";X c #82A523",
":X c #81AD24",
">X c #87AA29",
",X c #82AD2B",
"<X c #84B023",
"1X c #89B626",
"2X c #86B12A",
"3X c #89B42C",
"4X c #83AD30",
"5X c #8AB335",
"6X c #C49B09",
"7X c #C49716",
"8X c #B28C50",
"9X c #B38E70",
"0X c #D2995D",
"qX c #CF9275",
"wX c #CA9B79",
"eX c #D8A669",
"rX c #C7A270",
"tX c #D3A577",
"yX c #8A7986",
"uX c #8E808D",
"iX c #968B97",
"pX c #B38E8E",
"aX c #A89CA9",
"sX c #B89BA8",
"dX c #B6A8B7",
"fX c #CD9C88",
"gX c #D29488",
"hX c #CA9A97",
"jX c #CFA58F",
"kX c #D1ADA2",
"lX c #D2B4AE",
"zX c #EAB7AE",
"xX c #B2C499",
"cX c #ECCBAB",
"vX c #EAC9B5",
"bX c #F5CABB",
"nX c #CEE2B4",
"mX c #BBB6C4",
"MX c #D0B8C3",
"NX c #CAC7D5",
"BX c #E8D2C4",
"VX c #F1D1CF",
"CX c #D6D3E4",
"ZX c #EADAE9",
"AX c #EDE7F5",
"SX c #F3E6F5",
/* pixels */
"K.P.^.OX2XQ.U.V.V.T.XX:X:X/.&X).).).).).C.Q.L.Q.Q.XXU.^.,XnX5XI.K.P.T.:X2X^.L.L.V.I. X:X:X/.&X).&X^./.~.N.L.L.Q.Q.).Q.^.^.,X:XI.",
"K.|.|.,X,XM.B.V.U.T.XX,XXXQ./.).<X~.).(.C.L.C.Q.U.^.L.U.:X5X,XP.K.|.[.,XOXB.B.L.U.T./.2X:X!./.).:X).).).A.A.U.Q.K.(.L.L. X3XoXI.",
"^. XI.T.^.^.T./.U.U.T.,XXX).U.A.&X&X~.!.!.R.R.Q.U./.Q.Q.Q.).:XL.^. X[.T.|.T.U.).U.U.^.:X:XXXU.L.&X&X).~.E.R.A.Q.U.!.Q.Q.!.&X:XL.",
",XOXoX|.T.|.^.|.U.!.XXXX:X/.U.N.~.~.E.!.!.E.E.!.!.Q.!.Q.Q.Q.&X(.:XoXoX[.T.^.^.XXT.^.).XXXX).C.N.~.!.!.E.~.!.!.!.Q.^.!.!.Z.T.:XQ.",
",XXX/.U.U.oXoXoX^.).).^./.^.V.N.!.C.R.E.E.C.C.N.Q.C.C.R.!.!.).XX,XXX^.L.T.oXOXoX^.XX&X^.XXQ.V.B.E.R.C.!.E.A.C.N.Q.A.A.Q.~.;X;XQ.",
"XXXX^.J.J.oXoXT.K././.U.^.T.&XXX<XA.R.E.R.C.N.N.).L.C.E.).).U.^. XXX^.J.J. X|.T.K.!./.U.^.T.:X).&XR.E.!.R.A.N.N.).L.N.Q.&X%XT.C.",
"^.XX4XoXT.XXT.C.L.:XOXL.K.m.U.Q.).C.!.A.A.~.U.Q.(.U.L./.&X~.R.R.Q.OX4XoX|.XX^.C.L.XX:XL.K.M.U.T.~.A.!.C.R.~.A.Q.Q.U.A.~.&X&XU.Q.",
"K.T.oXOXoX,X).Q.^.:X4X|.T.M.T.U.!.%X1XR.A.!.N.A.C.T.U./.Q.&X&X~.L.T.oXoXOX,X^.Q.U.,X4X XT.M.U.U.(.).1XR.C.!.N.L.L.^.Z.Z.%X;X:X).",
"V.K.V.T.T.oX^. X^.^.|.T.T.T.T.T.U.).XX)./.Q.U.K.K.XXXX!.A.:X<XXXL.K.M.L.^. X^. X^.^.^.I.T.U.|.T.T.).)././.T.L.L.L./.).Q.Q.>X,X).",
"L.T.M.L.|.oXT. XXXXX^.^.oXXXT.K.K.OXXXU./.^.XXT.V.^.[.P.T.oX].J.P.P.n.G.].].'.{.oX X XT.oXoXT.K.L.:XXXL.).!.:XL.B.^.XX!.).,X/.C.",
"XX XXX[. X X[.OXoX:XV.XX4X,X|./.XX3XL.U.C.L.2X^.^.oXb a 0 0 z 0 z z z 0 0 0 z z {.:XK. X4X4X[.^.XX,XL.Q.C.K.,X/.^. X/.Q.:X;XT.U.",
"XXXX,X X^.^.T. XT.|.[.4XoX X,XT.K./.K.M.K.K.T.V.P.H.k 5 w w u u w w w u u w e c S.].].+X|.XX,XT.K. XL.m.K.K.I.V.U.|.Q.N.A.L.K.C.",
"XX,XoXT.T. X/./.L. XOX,X X XoXI.V.T.U.M.U.T.U.B.k 5 X.X.7.7.a.a.a.7.a.a.a.a.a.8.N u e k {.|.oXL.K.T.L.M.U.T.L.V.I.^.U.U.U.;X]./.",
"^. XI.K.^.|.^.XX|.OXOX[.,XT.^.|.T.T. XT.T.L.Y.].c 4 X.*.q.r.c.z.x.x.p.k.z.k.s.f.p y t e }.'.^. X^.^. XU.^.U.^. X^.^.Q.C.Z.;X>X/.",
" XXXT.U.I.K.D.oX[.oX XT. XK.|.:XXX|.,X^.T.P.b e T +.f.d.c.c.r.u.x.i.i.z.y.k.c.g.a.7.#.o.t e '.,X X|.3XT.U.L. XOX/.XXXX!.|.;X>X:X",
" X:XQ.U.K.M.J.oXT.I.T.^.T.T.^.I.T.,XXX^.T.T.c r #.,.d.t.c.x.i.i.g.i.t.y.y.y.i.g.f.f.8.#.i 9 `.L.^.OX X^.^.^.^.!.^.XX:X:X:XY.oX^.",
" X3X,XT.T.L.T.OXI.[.T.I.I.^.^.L.T.XXK.^.!.[.x r 7.d.l.l.l.l.i.i.x.x.k.y.c.p.u.g.d.h.h.h.p 4 `.L.T.XXL.^.(./.U.K.V./.L.Q./.K.Y./.",
"V./.XXT.,XXX^. X^.OXoXL.B.L./.:XU.U.L.U.G.G.L I a.l.l.l.l.c.i.u.r.c.k.k.y.p.u.i.k.j.d.h.} t `.[.L.U.L.U.C.U.U.C.V.U.B.W.).Y.T.T.",
"B.L.|.).:XU././.^.OXXX^.C.C.!.:X^.Q./.^.b c yXsXb.l.l.v.v.c.i.u.c.k.k.k.p.p.u.u.t.r.l.d.,.@.c x P.U./.).Q.L.).Q.XX).U.~.!.%X!.L.",
"K.V.L.).).Q.:X^.I.OX|.^.C.B.C.).).Q.T.].x F aXsXgXb.d.v.x.p.p.u.c.k.c.p.p.u.u.u.r.y.l.l.1.#.F : ].Q.Q.:X:X/.).~.:X:X).~.A.Z.A.L.",
"T.L.L.C.B.Q.). X X,XOX^.C.m.V.!.).^.v J P W 5.5.zXbXb.v.r.p.c.r.k.k.k.k.i.i.i.u.y.y.y.y.1.#.t : ].Q.C.!.).).&X).Q.!.!.).A.A.N.N.",
"T.^.T.L.L.^.C.XX^.P. XXXQ.A.U.).|.P.L P Q Q 3.4.VXVXgXa.r.t.r.k.x.x.v.v.x.x.i.i.u.y.e.e.1.#.t q {.!.U.Q./.).).).C.A.Q.~.E.~.A.C.",
" X^.L.Q.Q.Q.B.^.T.M.T. XXXXX:XoXb x dXCXCXCX6.2.BXVX8.=.w.c.t.k.x.x.k.v.g.x.x.r.e.e.0.0.%.#.8 q {./.!./.:X!.Q./.C.!.~.~.~.&X%XQ.",
"XX/.U./.V.L.C.U.^.^.^.^./.:X:XY.a K NXAXAXAX6.6.BXvX7.] q.r.w.w.w.w.d.d.s.s.s.s.e.e.0.9.=.O.w q G.Q.Q.Q.&X!.A.~.R.!.!.~.~.&X).(.",
" X^./.OXQ.T.!.K.T. XoXT.T.!.^.J.a P NXZXSXSXsXsX8.4.,.:.=.-.9.9.&.-.&.9.&.-.>.-.&.9.' ' =.,.u 9 S.L.L.C.!.Q.A.~.!.E.W.E.(.&X%X(.",
"T.T./.XX).Q.^.L.U.T.oX^.U.U.I.M.x J mXAXSXSXMXsX1.>.1.:.=.=.` ` ] ' =.%.&.>.%.-.` ' ' ' *.#.w 9 S.U.Q.A.&X!.A.!.~.~.E.A.C.&X&XI.",
"OX^. XXX^./.:X^.J.T.T.XXXX XB.D.J K aXmXZXZXQ R ;.>.>.>.:.<.*.*.] ] =.&.>.:.:.*.=.=.=.*.*.+.u 9 S.Q.^.&X).~.!.C.).&X~.).!.&X!.B.",
"^. X|.^.Q.XX:X/.M.K.K.,X:XT.L.^.k J iXdXCXZXyXR O.>.>.>.<.*.*.*.] ] =.%.:.>.:.*.$.$.-.<.O.+.t 5 G.U.U.!.~.!.!.A.!.&X(.).U.A.J.K.",
"T.OX XT.V.U.Q.XXXX^.I. X X/.^. XD.S.b I dXmXdXsXo.! ;.<.,.;.:.:.=.*.$.:.%.<.-.*.*.<.:.,.p t 4 0 S.B.U.Q.).:X&X!.).).:X).U.N.N.Y.",
"oXoXXX XT.)././.XX|.|. X X^.^.U.B.M.k K iXdXaXaXR H +.#.+.+...;.....#.#.O.#.O.;.O.O.+.+.8 4 5 5 S.m.N.Q.<X3X3X:X).~.(.).XXY.B.^.",
"OXT. XXXXXXX^.^.,X XOX^.3X3XXXL.B.B.P.`.K K G D S S 8 8 8 e 4 4 u e t r S F r 8 w 4 t t H B 6 1 g B.U.^./.:X:X:X).Q.U.oX,X>XY.L.",
"|.D.^.XX/.Q.U./.,XoXXX:X2XXX/.).XXQ.C.T.x D D D S 7 F D 7 q 3 5 9 9 3 3 q q q r 6 3 4 4 B B n s Y.Q.L.^.Q.^./.XX^.!.Q.oX/.:XXXI.",
"P.J.^.OX:XU.U.K.K.I.XX:X,X/.)./.:X!.).Y.b U F I # - Q yXT U 4 4 B B 6 , m m m B m m _ ) 1 6 H.Y.:X/././.C.U.L.^.^./.Q.^.^.>X;XI.",
"K.|.^.,X:XB.B.V.U.U.XX2X:X!.).).:X).:X!.T Y o.Y # o yXaX3.R u , _ X.2 f ~ ( ) ) ) ) f M < < P.~.:X%X&X~.C.R.A.U.U.(.L.L./.2X).L.",
"^. X[.T.^.T.U.XXY.U.T.,X/.:XA.A.&X&X~.!.C p 8.pX%   mXVXhXgXy 2 9XgX9X9Xm > m m B Y < < X X S.A.&X&X~.~.E.A.R.Q.U./.Q.U.Q.~.<XW.",
"2XOXOX[.T. X^.XXT.Q./.XX:X).C.C.~.!.Q.!.Z V fXfX9 ; lXZXkXgXM M 9XfXwXwXn , M B V V 6 < + & n.N.~.~.E.!.~.E.!.R.Q.Q.(.(.Q.Q.).Q.",
"OXXX/.I.T.,XoXoX^.).:X!.XXU.K.B.!.C.E.!.!.9XcXcXlXlXBXBXcXcXeXrXfXfXtXqXm 2 ~ ( ( ( y 5 j D.B.B.!.A.R.!.E.A.N.B.Q.C.L.Q.!.!.%X!.",
"OXXX^.L.K.|.|.T.K.).).K.!.T.XX).&XR.E.E.!.9XzXcXbXBXBXBXcXcXeXeXtXtX9XrXf 2 2 ! ( 2 n l ].T.:XXX&XA.E.!.E.N.N.C.).L.V.Q.:X%XQ.U.",
"^.oX,X X^.oXT.C.V.:X:XP.K.M.U.Q./.A.E.C.Q.;X[ T zXbXVXbXjXjXeXeXeX0Xm n m n @ O . + S.F.P.M.U.!.~.R.!.C.A.~.Q.Q./.L.C.).:X%XZ.U.",
"L.T.oXoXoX,X!.!.^.,X,X XT.M.T.U.(.).1XA.L.^.C M jXzXzXzXgXqXqXeX0X8Xn < N M @ + X . }. XT.M.U.U.(.).1XL.A.!.N.C.L.^.Q./.Q.%X&X:X",
"V.J.D.L.|.oX^./.^. X^.T.T.T.|.T.U.).)././.U.P.H.X.O.O... ._ wXfX) 2 > < 3 5 [ *Xs = K.L.T.T.|.T.U.).)././.U.U.L.L.|.XX(.L.<X<X).",
"I.^.V.L.|. XT.oX XXX^.^.oX XT.K.L.:XXXU./.!.:XK.V _ p H  .+.hXjXM d > > 2 d #X#Xf d F.[.oXXXT.K.K.,XXXU./.(.:XL.K.^.XX/.).<X(.L.",
" X).XX/. X XT.oXOXXXK.XX4X,X|.|.XX2XU.T.K.L.,X/.[.{.T H pXsXlXsX8X=X^ ~ =X$X6X6X@X#Xd l {.,X[.|.XX2XU.U.C.L.,X X^. XT.^.:X&XQ.U.",
" XXX,X X^. XT.|.T. X^.4XoX XXXT.L.^.K.m.V.L.T.V.P.`.V Y yXsXaXaX8X=X~ ~ =X7X6X6X@X$X> < `.oX,XU.V. XK.m.K.K.I.V.U. XT.B.V.V.B.C.",
"XX4XoXT.T. X)./.I.oXoX,XoXoXXXT.V.T.L.M.U.T.L.M.v c R R ; $ x L k l @ @ { $X6X@X/ f @ X F. XOXT.K.T.T.M.U.T.L.V.L.^.L.U.!.%XY./.",
"^. XI.K.[.^.(.XX^.OXoX[.,XT.T./.^.T.oXT.^.U.|.[.b q H Y % * c b z : . . [ =X7X@X#Xf + . `.T.^. X^.T.XXL.T.U.^. X^.^.^.K.Y.!.%X).",
" XXXU.U.I.J.K.|.[. X^.T.^.T.|.,X|.|.,X!.U.K.XX,Xv : $ $ pXlXlXlXL a   . n ) ^ ^ #X-X@ . F.K.^. X X^.,X^.T.L.XX,X XXX:X^.^.).,XXX",
" X:XU.Q.L.D.J.+XT.P.T.^.T.U.T.U.^.,XOX^.^.!.T.[.a a .   kXBXzXzXL K o . y m ^ ^ #X-X@ X j T.|.U.T.,X|./.^.Q.^.^.Q.XXXX,X:XQ././.",
"/.,X,XQ.T.U.T.,XI.P.T.T.L.T.T.L.^.XXL.^.^./.U.K.v :   . 9XhXjXhXI A A ; % @ [ 8X[ V + X g ^.^.L.T.XXK.^.^./.U.K.V.(.U.^.^.N.U.).",
"L.^.OXT.,X).T. X^.OXOXL.V.U./.XXL.L.L.U.L.U.U.V.k a o o 6.pXpX9XK A A A # o Z *Xl c $ X g U./.XXU.U.L.U.L.U.U.C.V.U.B.L.^.Q.U.^.",
"V.L.XXXX,XU./.|.^.OXoXT.A.A.!.:X/.Q.(.).Q.C./.Q.XX|.a ; $ $ + $ J W E E -   X X X & h G.K.C.!.:X/.U.XX/./.C.).Q.:X).A.).!.~.Q.C.",
"K.V.L./.).U.:X^.T.,X^.Q.C.M.L.)./.Q.(.&X<X!.:X/.).(.a ; $ O . + P W E E -   X X X & G.Q.C.m.C.).).Q.!.&X<XQ.&X/.:X:X).~.A.Z.A.C.",
"U.U.U.V.V.Q./.). X,X,X/.C.m.N.~.).Q.A.Q.&X).&X).(.W.& X c | | | +.o.p G # . h '.K.].oX(.V.m.N.~.).Q.C./.).).<X).Q.E.(.(.A.A.N.N.",
"T.T.U.L.U.Q.C.XX|.I.oX/.Q.L.C.).<X/.A.!.~.).).).C.V.= & w ..| ! ..B p 8 % $ j XX^.K.|.(.Q.L.Q.).:X!.A.R./.).).~.C.A.Q.(.!.~.A.N.",
"XXT.U.Q.U.Q.B.^.I.B.T.^.).XX:X:XXX/.Q.).).).U.!.C.Q.L.D.= O O O O . . O h D.B.^.I.B.|.|.).:X:X:X:X).Q.).&X).Q.~.C.!.!.~.%X&X%XE.",
"oX^.T./.V.U.C.U.^.|. X^.^.<X<X/.Q.Q.Q.Q.).~.A.).Q.Q.!.Q.= $ X + X X X o n.L.L.L.[.^.|.^.).:X:X/.Q.Q.Q.Q.).!.C.(.R.E.!.).~.&X).(.",
" X|./.:XQ.^.Q.K.T.|. X^.I.^.^.L.V.U.U.N./.Q.C.~.~.!.Q.!.[.xX+XG.P.G.P.[.I.Q.^.L.T. X|.T.T.^.^.K.N.U.L.N.Q.Q.A.~.~.!.W.(.Q.&X).(.",
"T.T./.:X).Q.Q.U.I.|.oX XI.Q.L.m.B.U.Q.C.~.Q.A.!.).~.Q.C.U.5X,XI.T.I. XXX).^.U.C.I.|.oX XT.U.L.V.B.U.Q.U.).!.R.~.~.~.(.V.A.&X).I.",
",X|.XX^.^./.XX^.D.T.T.XXXX XV.V.N.Q./.XX)./.!.A.~.&X/.).Q.XX^.K.XX|. X/.Q./.XX/.B.I.^.XXXX XB.V.B.U.^.).).).!.C.(.&X~.).^.&XQ.B.",
"T.|.|.Q.Q.:X2X/.B.K.P.XXXX^.I.^.Q.U.U.!.~.).~.C.!.&X).).U.L.K.L.T.|. X^.T.XX:X/.J.L.P.OX XT.L./.^.Q.Q.Q.(.!.!.C.~.&X).XXU.L.C.I.",
"T.oX|.^.K.U.!.;XXX|.I././.XX/./.C.V.L.T.).&X&X!.~.).).:XU.V.M.[.T.oXXXT.C.U./.).XX^.P.^. X X^./.C.V.L.Q.).:X&X/.(.XXXXXXU.V.B.Y.",
">XoXoX/.!.).T./.oX|.|./. X/.^.T.V.m.N.U.:X1X2X:X&X~.~.XX:XQ.D.[.oXoX X/.^.)./.^.XX|. X X X/./.U.B.m.V.Q.&X3X1X<XXX~.(.OX:XY.V.T.",
",XT.|.:X:X/.^.T.:XoXOX^.2X3XXXC.B.B.U.^.XX:X:X,X/.Q.R.XX:X,XY.T.oXT.oX:X/.:X!.|.,XoXXX(.2X3X).L.m.B.U.^.).:X<X:X).Q.U.XX>X,XY.L.",
"[.M.|.XX/.U.U.|.3X:XOX:X2XXX/.).).U.C.Q.^.(.(.XX/.^.Q.).oX,XoXT.T.M.|.XX/.U.U.).3XXXoX:X1XXX/./.:XQ.K.Q.T.Q./.XX/.(.Q.XXoX>X XI."
};
