/* XPM */
static char *f3b6647fd62449ee85a2e935978a7557KTTPpRhaXK79BleV[] = {
/* columns rows colors chars-per-pixel */
"50 50 82 1 ",
"  c #9D472E",
". c #9E492D",
"X c #9F4D33",
"o c #A14D34",
"O c #A34F39",
"+ c #A25036",
"@ c #A35139",
"# c #A8573F",
"$ c #A55741",
"% c #A85C45",
"& c #AA5F49",
"* c #A96047",
"= c #AB614D",
"- c #AD6652",
"; c #AE6A54",
": c #B16B56",
"> c #B16C59",
", c #B3715D",
"< c #B47462",
"1 c #B67965",
"2 c #B87C67",
"3 c #B77B69",
"4 c #BA7D6C",
"5 c #BB816E",
"6 c #BD8474",
"7 c #BF8476",
"8 c #BD8777",
"9 c #BC8977",
"0 c #BE8778",
"q c #BF8879",
"w c #BE8A7A",
"e c #C08475",
"r c #C08A77",
"t c #C08978",
"y c #C18D7B",
"u c #C38B7C",
"i c #C28E7C",
"p c #C2927F",
"a c #C38F81",
"s c #C29081",
"d c #C49083",
"f c #C39484",
"g c #C39485",
"h c #C59484",
"j c #C49485",
"k c #C79A86",
"l c #C59689",
"z c #C7978A",
"x c #C8978A",
"c c #C7998C",
"v c #C7988D",
"b c #C9998C",
"n c #C99B8C",
"m c #C89C8C",
"M c #CB9C8F",
"N c #C79C90",
"B c #CB9D92",
"V c #CC9D91",
"C c #CAA191",
"Z c #CCA193",
"A c #C8A394",
"S c #CAA295",
"D c #CDA195",
"F c #CDA59A",
"G c #CDA89C",
"H c #CFAA9E",
"J c #D0A69B",
"K c #D0AA9E",
"L c #CFABA1",
"P c #CFAEA1",
"I c #D1AAA0",
"U c #D3ADA2",
"Y c #D1AFA3",
"T c #D2B1A5",
"R c #D4B2A9",
"E c #D5B3A9",
"W c #D6B6AB",
"Q c #D2B4AC",
"! c #D7B7AC",
"~ c #D7BAAD",
"^ c #D7B8B0",
"/ c #D8B8B0",
/* pixels */
"q<<<1A<<<<<<<<ts1<<<<<<<A3<<<<<<<<H<<<<<<<<<H,<<<<",
":@@@@i@O@@@@@@:1@@@@@@@@y%@@@@@@@@jo@@@@@@@@j+@@@@",
"s4445K44444444dn44444444H644444444T344434444E44444",
"U>:::;>::1B:::::>::a6>:::>::>D,>:::>:::K:::::>:::H",
"V@@@@@@@@*y@@@@@@@@4:@@@@@@@@s@@@@@@@@@M@@@@@@@@+j",
"~66666666yI66666666Zg66656666U666666666W666656665E",
"1===-z===*====36&=======z:========V%========B*====",
">@@@@y@@@@@@@@:1@@@@@@@@y%@@@@@@@@jo@@@@@@@@j@@@@@",
"x6660P6e666666xB66666666Ku66666666E66666666eT66666",
"Z$$$$$$$$-i$$$$$$$$5>$$$$$$$$g%$$$$$$$$B$$$$$$$$@c",
"M@@@@@@@@*u@@@@@@@@4:@@@@@@@@p#@@@@@@@@n+@@@@@@@+x",
"!66666666iI66666666Cj66666666U966666666Q666666666T",
">@@@@y@@@@@@@@;1@@@@@@@@t%@@@@@@@@jX@@@@@@@@j+@@@@",
":@@@@y@@@@@@@@:1@@@@@@@@y%@@@@@@@@jo@@@@@@@@j+@@@@",
"M066qH6666q666zN666q0666Hq666u6666U6666q6666U6666t",
"nXooooooo$rXooooXoo1-XooXXoooy@ooooXooXcXoooXoooXj",
"M@@@@@@+@%y@@@@@@@@2>@@@@@@@@p@@@@@@@@@n+@@@@@@@+z",
"!qqqqaqqqsHqqqqiqqqCzqqqsqqqqHqqqqs9qqqEqqqqsqqq9U",
"-XXX+9XXXXoXXX;,XXXXXoXX9@XooXoXoog XXoXXooosXXXXX",
":O@+@i@@@@@+@@:1@@@@@@@@i%@@@@O@@@jo@@@@@@@@j@@@@@",
"FaiisIiaisciiicAiiijjaiiHjiiinaiiiUiiiicaiiaUiiiic",
"Moooooooo%roooXoooo1;oooooooop@ooooXoookXoooooooXj",
"V@@@@@@@@&y@@@@@@@@4:@@@@@@@@s@@@@@@@@@n@@@@@@@@+z",
"^zjjjAzjjcIjjjccjjjFBjjjCzjjjUzjjjAgjjzTjjjgAzjjgT",
":o++@yoo+++ooo;1o++oooooy$o++oooo+jo++o+o++ojo++oo",
":@@@@i@+@@@@@@:1@@@@@@@@i%@@@@@@@@jo@@@@@@@@j+@@@@",
"EncnnUcccMFnccDFcccDBcccUMcccHccccUzcccKncccUnccnH",
"B@+++++@@&y@@O@++O@4;@@@@+@@@p@@@@++@@@Mo@@@++@@oz",
"B@@@@@@@@*y@@@@@@@@4;@@@@@@@@s#@@@@@@@@M@@@@@@@@+c",
"!cccnLcccBHcncAFcccFAcccLMcccHcnccUccccUccccIcccnU",
">@@@@i@@@@@O@@>1@@@@@@@@i%@@@@@@@@jo@@@@@@@@j@@@@@",
":@@+#i@@@@@O@+;1@++++@@@y%@@@+@@@@jo@@@+++@Ojo@@@+",
"/ccccFnccBKcccBAcncHAcccFccccUcnccHccccEccccJccccU",
"M@@@@@@@@*i@@@@@@@@4:@+++@@@@d@@@@@@@@@M+++@@@@@+z",
"M+ooo++oo%q+o+o++oo2-oooo+o++i@oooo@o++nooo+oooooj",
"UjgjzPzjjcBgjjBAjjjMcgjjUcjjjAzjjjUjjjjAjjjgUjjjjA",
":@@@@y@@@@@@@@:1@@@@@@@@i%@@@@@@@@jo@@@@@@@@j+@@@@",
";ooo@toooooooo;1oooooooot$ooooooooj.oooooooogooooo",
"!aaaacaaazIaaadjaaaDnaaazsaaaUsaaaciiaaEaaaacaaaiU",
"M@@@@@@@@%yO@@@@@@@4:@@@@@@@@d@@@@@@@@@Mo@@@@@@@Oj",
"noooooooo$9ooooooXo1-oooooooXi@oooooooocXooooooooj",
"AtqttHtttuatuqcBtuuautuuKaquusqttuU0tutgquuqPquuqg",
":@@@@i@@@@@@@@:1@@@@@@@@t%@@@@@@@@jo@@@@@@@+jo@@@@",
"-oXo+toXXoXXXo-<oXXXXXoo9$oooXXXood ooXoXoXosXooXo",
"W6666q666iK6669q666Bz666q6666Uq666q6666T6666q6666U",
"B@@@@@@+@*i@@@@@@@@4;@@@@@@@@s#@@@@@@@@M+@@@@@@@+j",
"M@@@@@@OO&t@O@@@@@@3;@@@@@@@@d@@@@@@@@@co@@@@@@@Og",
"c6666H66660666jM66666666Kq66666666T666666666U66666",
":@@@@i@@@@@@@@:1@@@@@@@@u%@@@@@@@@jX@@@@@@@@j+@@@@",
",$$$%s$$$$$$$$,4$$$$$$$$s*$$$$$$$$c@$$$$$$$@c@$$$#"
};
