/* XPM */
static char *xpm_[] = {
/* columns rows colors chars-per-pixel */
"64 64 226 2 ",
"   c #15140F",
".  c #1A1914",
"X  c #181B17",
"o  c #231A16",
"O  c #1E260E",
"+  c #172516",
"@  c #1A321E",
"#  c #28340D",
"$  c #282A14",
"%  c #2D231B",
"&  c #32241C",
"*  c #372B1D",
"=  c #2B3516",
"-  c #363919",
";  c #182F20",
":  c #193823",
">  c #282624",
",  c #292B24",
"<  c #362A22",
"1  c #3C2C22",
"2  c #332E2C",
"3  c #3C3324",
"4  c #38322D",
"5  c #353434",
"6  c #383736",
"7  c #3B3A3A",
"8  c #701E2B",
"9  c #432C26",
"0  c #453125",
"q  c #473527",
"w  c #4A3D24",
"e  c #4C3529",
"r  c #4D392B",
"t  c #52372A",
"y  c #553A2C",
"u  c #5A3D2E",
"i  c #473A32",
"p  c #573E31",
"a  c #3D520D",
"s  c #364515",
"d  c #334B11",
"f  c #3B4C13",
"g  c #395617",
"h  c #3E601E",
"j  c #1D472A",
"k  c #1E512F",
"l  c #1F5230",
"z  c #28542A",
"x  c #345A25",
"c  c #304E30",
"v  c #235C36",
"b  c #295A36",
"n  c #38712E",
"m  c #236136",
"M  c #246339",
"N  c #2A6638",
"B  c #306B33",
"V  c #306C33",
"C  c #387736",
"Z  c #45481B",
"A  c #425614",
"S  c #435A12",
"D  c #4A5A1A",
"F  c #4F6E0C",
"G  c #57790F",
"H  c #4C6617",
"J  c #526B1B",
"K  c #576818",
"L  c #567316",
"P  c #5A7B14",
"I  c #59761B",
"U  c #5D7D1A",
"Y  c #626A1E",
"T  c #65771B",
"R  c #4A4323",
"E  c #494527",
"W  c #544628",
"Q  c #5D4C2D",
"!  c #585428",
"~  c #554233",
"^  c #5D4232",
"/  c #5D4B34",
"(  c #4C5137",
")  c #604D2C",
"_  c #64572B",
"`  c #634533",
"'  c #6A4735",
"]  c #644936",
"[  c #6A4935",
"{  c #664938",
"}  c #6C4C3A",
"|  c #704E37",
" . c #724D3A",
".. c #6C5433",
"X. c #6A5339",
"o. c #74523D",
"O. c #7A523E",
"+. c #765B38",
"@. c #5A6822",
"#. c #477A26",
"$. c #42792A",
"%. c #557122",
"&. c #437A33",
"*. c #676627",
"=. c #666C24",
"-. c #66632A",
";. c #6A7125",
":. c #6B7925",
">. c #7A6736",
",. c #7B3640",
"<. c #2A6E40",
"1. c #376B41",
"2. c #2B7442",
"3. c #2D7E49",
"4. c #377544",
"5. c #434343",
"6. c #5A5F40",
"7. c #645E41",
"8. c #765440",
"9. c #7D5641",
"0. c #7D5943",
"q. c #4B6A43",
"w. c #4A7146",
"e. c #7C6146",
"r. c #8A2C3C",
"t. c #815741",
"y. c #845A44",
"u. c #8B5D46",
"i. c #8A5F48",
"p. c #876049",
"a. c #8C624A",
"s. c #93654C",
"d. c #96684E",
"f. c #99694F",
"g. c #966A50",
"h. c #9C6C52",
"j. c #8F7451",
"k. c #A16E53",
"l. c #A47155",
"z. c #A87457",
"x. c #A77558",
"c. c #AA7658",
"v. c #AD795B",
"b. c #B37D5E",
"n. c #B57F60",
"m. c #D34E64",
"M. c #3C823B",
"N. c #5F860D",
"B. c #5E8515",
"V. c #62890B",
"C. c #628D0B",
"Z. c #6A9607",
"A. c #66920B",
"S. c #6A950D",
"D. c #6D9A0C",
"F. c #759B0E",
"G. c #719D0D",
"H. c #668C13",
"J. c #698C14",
"K. c #62821B",
"L. c #658518",
"P. c #658A1A",
"I. c #6B8C1E",
"U. c #6B9513",
"Y. c #6D9A13",
"T. c #659418",
"R. c #6D931B",
"E. c #6D9A19",
"W. c #729D15",
"Q. c #74981A",
"!. c #729D1B",
"~. c #75A20E",
"^. c #78A60F",
"/. c #6FA210",
"(. c #75A215",
"). c #79A515",
"_. c #7CA915",
"`. c #76A21B",
"'. c #79A51C",
"]. c #77A819",
"[. c #7DAA1C",
"{. c #7EAA1E",
"}. c #4C8329",
"|. c #558929",
" X c #578D29",
".X c #678922",
"XX c #718824",
"oX c #699725",
"OX c #739323",
"+X c #739C21",
"@X c #799B27",
"#X c #76A121",
"$X c #7AA522",
"%X c #7EA921",
"&X c #7EA923",
"*X c #71A02E",
"=X c #7DA62A",
"-X c #7EA92A",
";X c #2E814B",
":X c #31854D",
">X c #34864C",
",X c #348D51",
"<X c #369355",
"1X c #379958",
"2X c #399C5A",
"3X c #3BA35E",
"4X c #3CA760",
"5X c #3DAA62",
"6X c #45834F",
"7X c #458851",
"8X c #419658",
"9X c #81A818",
"0X c #81AC1D",
"qX c #82A523",
"wX c #82AD24",
"eX c #87AB2A",
"rX c #82AD2B",
"tX c #84B023",
"yX c #88B526",
"uX c #86B12A",
"iX c #89B42C",
"pX c #84AE30",
"aX c #86B130",
"sX c #B78061",
"dX c #BD8564",
"fX c #E77386",
/* pixels */
"U.R.`.-XeX(.Y.S.U.E.&XwXwX].0X{.tX].].{.G.W.Y.`.(.{.(.`.'.eX-XE.U.U.!.wXuX`.Y.U.S.E.$XwXwX_.0X{.wX`.].'.Y.Y.Y.(.(.{.(.+X$XeXwXE.",
"U.#X`.rXrXA.A.D.Y.!.$XuX&X(.{.'.tX_.0X].D.Y.D.W.W.`.Y.W.].uX&XY.U.@X#XrX-XA.A.D.W.!.$XeX&X].'.].0X[.0X_.Z.~.W.W.Y.].G.W.#XuX$XE.",
"'.$X!.+X!.`.!.'.W.W.`.rX{.&XW.G.[.0X_._.(.G.~.).W.'.W.(.).].wXY.`.$X+XE.`.!.`.'.W.W.`.wX&X{.W.W.[.0X[._.~.G.D.).W.].W.~.).0XeXY.",
"&X-X=X+X!.#X'.#X(.).$X&X&X$XG.Z._._.^.^._.^.^.).(.(.).).~.).{.].&X-X=X#X!.'.`.&XW.`.{.&X&X{.D.Z._._.^._._._._.(.W.].).).F.`.wX(.",
"rX&X'.Y.!.=X-X=X'.'.{.'.'.!.D.A.].D.~.^.U.F Z.A.(.G.D.(.C.s +X$X-X+X&.&.!.=Xs %.!.oX&.}.$XW.Z.A.)./.G._.^.Z.Z.Z.].D.F.~.).qXqX(.",
"&X&X`.T.U.$X$X!.U.).].W.'.!.{.0X&Xn M.D.%  .I 2.#.Y.B.d F Q w $.2.2.5XN T.OXy.o.H >X<X$.'.!.wX{.tXG.~.).^.G.Z.Z.'.Y.Z.~.0X0XW.D.",
"`.&X-X=X!.$X`.Y.Y.wX&XE.U.V.W.(.].n 3Xh o.a.4.<Xx A x <Xx K h.b 5X3.<XM #.! sXb.% 1.x E.U.C.W.W._.G.).D.G.[.G.(.).W.G.).0XqXW.(.",
"U.`.-X-X-XrX'.).`.rXrX$X!.C.!.W.(.W.v X b.a.@ d a 2.v 3X2.o.l.v 5X3X:X<X<.3 dXdXy.* %.#X`.C.!.W.).0XyX~.G.).Z.Y.Y.!.).).F.0XwX[.",
"S.U.A.!.#X=X`.$X!.'.#XE.!.!.#X!.(.[.&Xf sXl.` P V 1X;X5X~ dX/ ,X5X5X5X:X3.j dXdXn.W &.4.K.!.#X!.W.{.0X].'.W.Y.Y.Y.'.'.(.(.eXuX{.",
"E.!.C.W.$X#XE.=X$X{.'.'.=X$X`.S.Y.-X&Xf sXl.` ,X;X3X2X5Xw.p.sX7.<X5X5X:X2X3.} dXdX8.b C .X$X!.S.Y.wX$XY.'.).wXY.S.`.&X(._.eX'.D.",
"&X$X&X`.'.$X!.=X=X&XU.$XrXrX#X#X#X*XH o.dXl.^ k 3.3.5X5X5Xb x.0.1.5X5X5X,X<.< sXdXy.H =XaXpX+X#X$XiXW.(.Y.U.rX'.`.'.`.).0XqX!.W.",
"&X&X-X$X'.+X`.'.!.I H rX=X$XrXE.M.>X# o.dXs.` # N 3X5X5X1X5.sXdX0 5X5X3X;X5X% g.l.g.' pX$X$XrX!.U.#XY.C.S.U.!.S.W.$XW.D.D.Q.S.U.",
"&XrX=X!.!.$X'.{.F o.` = .X$X&XE.g @ g ^ s.u.` V.g N ,X3XE v.dXsX3 5X4X3XM 2.J ^ u.i.[ rX$X$XqXR.U.!.!.V.W.!.Y.A.E.!.W.(.(.qX@X].",
"`.$XE.P E ..:.@Xy.dXdXk.e U `.#XXXJ f o.k.d.y.} ! X k k } dXsX~ l m l j + f } dXk.i.1 +X@X+.8.-.'.!.&XY.`.!.`.XXXX].W.H.W.qXqX`.",
"$X&XY.W c.l.y.-.y.dXdXc.y.R B.=X;.} ^ e n.b.x.x.a.X.4   dXdXb.4 ; ; 4 X.8.8.n.k.n.t.Z R.>.n.n.i.;.$XrXf f K '._ ..XX}.>XoXeXrX&X",
"$X{.Y.i.dXdXdX} n.dXdXk.y.i.q K.+X-.b.' h.b.k.h.n.dXsX+.b.dXdXi. .y.h.dXn.h.g.v.c.=.E.:.s.dXdXdX] OXs b.sXv.=.OX*  .>X4.oXQ.#X'.",
"$XiXqXu.dXdXdX} dXdXdXi.y.u.' * P  X/ x.] w [ sXx.k.b.dXO.dXn.i.g.l.b.c.l.s.9.Q =.E.E.< dXdXdXdX^ 9 s.dXdXsX .q.* O.* P '.U.Q.'.",
"S.].$Xy.dXdXdX} dXdXn. .t.u.' t c j.e.s.v.! G 3 y.v.n.dXd. .8.n.dXdXdXv.^ =.L.R.`.=X=X1 dXdXdXdX` q s.dXdXb.u b S ^ ) D.{.Q.Q.!.",
"C.Y.+Xu.dXdXs.e dXdXc. .u.O.` t 0 ' & u.v.Y '.W.I s i.a.dXsXdXdXz.s.t.3 &XY.].'.`.rX*.dXdXdXdXb.`  .c.dXdXc.u.& D ` y.;.).9X'.D.",
"U.S.U.>.v.dX{ 0 i.dXh.t } y y  .O.u.u t.c.=.wX].wXR.1 5 ^ ] ] ^ ~ o.y.=.'.(.wX`.!.-X*.dXdXdXsXy. .O.sXdXdXa.a.& ` u.y.Y G.~.F.U.",
"E.Y.Y.Y d.g.r y.p n.o t y y  .s.k.dXc.e b N +X{.(.J.& ~ 2 o o 7 5.8.y.L.Z.W.$X#X$X-Xs dXdXdXsXo.u u.dXdXdX} y.o . e _ ].G.G.Z.Z.",
"`.'.(.D.T ~ E y. .^ u  .u ' g.dXdXdXdXu v n #X{.D.V.e i r.m.m.9 q v.| J.W.(.G.wX+X! e 9.dXdXO.* y u.dXdXb.u y o k X #.E.^._.~.Z.",
"$X`.E.(./.H b ] u. .u.u.` c.dXdXdXdX9.j m n T.].G.J.8.h.,.fXfX8  .v.| R.W.(.A.`.-.c.s.< dXdX] e [  .dXdXa.y y 9 k : v B E.0X0X(.",
"&X#X(.].T.M v p u.u.O. .b.dXdXs.9., : m m n U._.W.L.^ sXs.9 9 9.b.u. .Q.S.W.Y.J.+.dXsX9 z.sX9 u.u.q g.v.} y y W m k m  X].0X{.).",
"$X'.'.rX`.n N w.o.p.} ] [ { ` & & b v m m m n _._.D s.dX0.dXsXs.f.O.^ ;.!.).).Y v.dXdXt.u x.9 u.u.} ` 0.& y u b k : m }.Y._.{.(.",
"E.!.'.&X{.C 2X3X( W t.o.o.' e i b v l m m m V ).{.H.X.r 5 8.2 2 ` o X W wXW.'.J...sXk.o r 1 y.a.u.u.O.1 t q ( v m k m m T.0X0XE.",
"-X'.$X'.(.}.;X3X5X<Xq.q.w.q.4.3.<.m M M m C W.D._.[.S 6 5.5 5.5.2 5 A '.).].$X`.=.} h.; 7XX.o.y.u.u.i.o.y w.;Xm m m m oX).0X).A.",
"`.#X$X`.|.1X3X:X5X5X5X5X5X5X5X5X1X<X;XM m M T.D._.f $ 5 5.5.5.5.5.5 A -.T 0XeX'.f b 9 ; 5X7X7X( ` [ { X.6X4X2X<X;Xm m  XW.G.U.T.",
"!.&X#X!.#.n b 2X5X5X5X5X5X5X5X5X2X5X<X#.n C  X].].s ] 5 < 7 5 2 5.2 % ^ Y W.`.}.,X1X2X4X5X5X5X5X4X5X5X4X5X5X5X;X2.M m N P.Z.A.Q.",
"=X=X&X$X`.R.x 2X<X5X5X1X5X8X8X5Xw.( l ; &XoXV oXwXR.] y.l.i 8.g.4 ^ u.% !.0XoX}.j x 2.5X<X4X5X5X5X5X5X5X5X5X5X5X<Xn }.oX&XW.A.`.",
"-XE.&X&X&XB.b j v 5X:XM 3Xb q.5Xw.o.= L.&X|.m &.:.R.A f.dXb.sXdXu.} % U :._  X:X; OX&.2.;X4X,X<X4X5X5X5X5X5X,X1X3Xz U.=XeXeXQ.E.",
"#XH.'.&X].W.L P.x <X= U N s x { 0.p.Q H Q.:.( +.O., . a.dXdXdXdXg.X 5., i l.y.} @.J OXD 0 ` / 4.X.8X5XN 5Xv ,Xx N x Y.$X'.wX&XY.",
"R.A.`.rXwXW.W.U.P x I wXU _.K.9 ] y.4 - Z  .i.dXf., X a.dXdXn.v.f.. > ; i x.dXdXy.u R 2 > o.0.X.0.w.M h k S x R.f S (.`.'.wXwXE.",
"R.#X`.rXwXA.A.D.Y.Y.$XiXwX`._.'.K $ = 6 5 u 9.O.w R.a a.dXdXdXz.sXX , .X^ h.k.x.s.` 2 5 w y.t. .= $ P.].Z.D.D.W.Y.`.Y.Y.'.eX&XY.",
"`.$XE.+X`.!.!.&XW.Q.`.wX&X&XW.G.{.0XH.S   e A A P $XA a.dXdXsXk.dX0 3 +XU S A E e | Z %.K.R R a [.[._._.^.G.~.).W.].(.W.).9XwX/.",
"rX-X-X#X!.$X+X$X`.(.'.&X&X[.D.D._._.~.).L.V.D.~.(.E./ n.z.dXdXk.n.y.+._ !.$X`.R.P Z !.&X&XP.N.Z._._.^._._.).).~.(.(.].].W.~.{.(.",
"-X&X#XE.!.rX-X$X`.{.wX`.'.!.D.A.).D.~._.).Z.D.Z.(.T y.s.g.dXdXs.k.u.t.{ I.=X=X=X!.{.wX'.$X(.Z.A.].G.G._.~.Z.Z.A.).D.Y.(.).9X9X).",
"wX&X`.D.U.$X$X!.U.).).W.`.`.wX'.tXG.^.^.~.D.Z.D.'.;.o.4 } dXb.i r o.! X.*.#X#X!.Y.].).Y.'.!.&X0XtXG.~._.~.~.A.D.'.E.Z.(.wX9XF.W.",
"!.-XrX=X!.$X!.D.S.wXwXE.U.C.W.(.].~.(.Z.G.{.W.(.`.W.a 5 5 r > 5.> u D @X+X&XW.Y.U.&XrXU.Y.C.W.`._.D.].D.G.[.~.(.].W.W.].0X9X~.W.",
"Y.!.$X-X-XrX).(.`.rXrX$X!.C.!.W.].{.yX~.G.(.D.D.U.(.g 5 5.5 5.5.5.> = ;.=XeX].(.(.eXrX$X!.C.W.W.^.{.iX~.D.).Z.D.Y.!.(.`.(.0X0X{.",
"S.U.C.!.`.$X`.$X`.$X'.E.!.!.#X!.W.'.[.].'.W.W.W.E.E.O 5 5.5.5.2 5.5 < ^ @X-X`.$X`.$X`.E.!.E.#X!.W.{.&X).].(.G.Y.Y.$X&X].W.tXtX{.",
"!.!.A.E.#X$X!.=X$X$X#X'.=X$X!.U.W.wX&XW.'.).wXU.U.P.] ] 7 7 p y.5 2 ^ y.=.#XE.&X$X$X`.#XrX$X!.U.U.wX&XW.].'.wXE.U.!.$X].].wX].Y.",
"'.$X&X`.$X$X+X-X-X&XU.$XrXpX`.$X&XuXW.W.Y.Y.eX'.`.D y.sX~ i sXdXy.& u.u.=.$X`.$X-X&XU.$XrXpX+X'.wXuXW.W.U.Y.rX'.'.$X!.`.qX0X^.Y.",
"$X&XuX$X'.$X!.`.!.$X`.aX$X=X$X!.U.'.U.C.U.U.!.Z.U.3 l.v.sXsXdXdXdXu.l.u.o.:.#X'.!.$X'.aX$X=XrXW.U.'.U.C.U.U.!.U.W.$X!.A.F.S.S.D.",
"wXrX=X!.!.$X'.$X!.$X-XrX=X$X&XE.A.!.E.C.W.!.Y.A.f v.z.v.dXdXdXdXdXl.b.s.y.' $X$XY.$XrXrX$X$X-XE.U.!.Y.C.W.!.Y.A.E.`.W.E.).9XqXW.",
"!.#XE.U.+X`.].&X!.rX=X+X-X`.`.#X#X`.$XY.`.Y.`.K.) b.l.dXdXdXdXdXdXb.l.v.u.t.*.qX+X-X=X+XqX+X'.#X`.!.$XW.!.Y.`.'.].`.(.U.Y.).qX'.",
"$XwXW.(.!.T.U.$X+X$X'.!.$XE.#X&XOXI .XI W.Y.$X@.y.dXb.dXdXdXdXdXh.s.0.v.u.u._ XXXX' ` ` -.U.#X$X$X#XuX`.!.Y.&XeX$X$X&X$X'.{.wX$X",
"$XwXW.(.U.C.P.=X!.E.E.#X!.W.`.H.! { { } A a @.` dXz.sXdXdXdXb.[ y q e { u.u.0 t  .y.u.u.y.-.`.!.!.-X$X'.`.).`.`.(.&X{.rXwX(.'.'.",
"'.eXwX`.!.W.!.-XE.E.!.!.U.`.!.- b.dXdXdXO. .t.O.' u.dXdXdXsXt l.b.z.u. .t 9  .y.u.u.u.u.u.` Q.Y.!.&XU.`.'.'.W.U.S.].W.`.'.Z.W.'.",
"S.$X=X`.rX&XW.&X#X=X-XY.S.W.U ] l.k.dXk.u.u.u.u.u.O.z.dXb.a.b.dXdXdXz.y.e e y.t.u. .t.u.u.u.-.0XY.(.Y.W.Y.W.W.Z.S.W.A.Y.'.W.W.`.",
"A.U.&X&XwXW.'.'.!.rX$X!.G.D.s b.l.dXb.s.u.u.u.u.u.t.u.dXk.u.dXdXdXz.k.a.t ^ ' y.u.O. .u.u.u.+.XX].W.'.].].D.[.`.wX{.G.].).).).D.",
"U.S.Y.].'.W.wX`.!.rX#X).D.S O.s.dXdXk.u.u.a.a.u.u.y.y.b.f.s.dXdXdXb.l.h. .u u.u.u.t.t.' y.u.t.;.9X(.).wXwX).0X].wXwX{._.G.~.F.Z.",
"W.W.Y.S.S.(.'.{.#XrXrX'.Z.Z a.z.dXdX} t.u.u.u.u.u.O.t.u.O.u.dXdXb.v.v.a.u.1 y.} t Z R u. .y.u.' '.W.G.).&X{.tX].(.).].].G.F.Z.Z.",
"!.`.`.Y.W.(.D.&X#XE.$X'.W.u k.dXdXy L.*.' u.u.y. .t.u.u.u.O.b.z.u.0 z.' k.O.o t o P I.1 t.' u.t.*.'.F.F.].{.[._.D./.~.[._._.G.Z.",
"$X`.W.W.(.(.A.`.!.C.!.'.# x.z.l.! R.).).. 1 9 % O ` u.u.u. .[ ' ' W w z. .y.0 | e F !.I.Z t.} y.} OX).'.0X[.W._.Z._._._.9X0X[.(.",
"&X#X!.'.S.W.D.Y.!.#X#XI X.f.u.w T ).W.).o u.y.Z G $ u.u.u.0 O.u.u.# A u.t.t.} e y.f '.`.L...|  .y.T W.).0X).D._.~.(.).[.).0X].'.",
"#X$X'.wX`.!.(.U.!.$X$XH ] O.O.= N.W.G.d t.u.O.A ).J.e u.' w 1 t.* Q.A o.O.O.` w y.u J `.W.Q u.u.y.Y Y.Z.).(.G.[._.(./.].(.0X].(.",
"!.!.'.wX{.(.(.W.E.#X=X$X$ y.u. .a G.(.F ^ u.% W.{.).Z O.w E O.e Z !.A O.u.` H A  .R .X#XP W |  .} L.(.Y.{.).G._.9X_.].D./.tX{.Y.",
"rX#X#X'.(.].0X'.H.!.`.&XI.0 O.y.w L.].wXL u & Z.).0XS ] = Q.3 e I U R y.u H J.e * H.`.I.* y y * T G.].{.[.].).D._.0X_.[.!.0X).A.",
"!.#X'.`.).qXuX'.A.U.U.-X'.U w f.u P W.)._.G y d _.0X{.H D.Y.s R U * s.] J {.R.s P U.P e 0.` = K.(.W.W.).]._.).D._.[.[.{.W.W.G.T.",
"!.=X$X`.S.W.`.$X$X'.U.'.'.$Xs b._ C.Y.W.{.0XL P [.[.tX{.W.A.N.U +XD y.o.F (.).wX$X#Xs 0 1   L $XY.Z.Y.W.[.0X0X).{.].{.&XW.Z.A.Q.",
"qX-X$X$X).{.`.'.=X$X#X$X$XI O - C.C.A.W.wXyXuXwX[.).).wXwX!.A.+X=X=XH $ O T `.'.&X#X+XoXOXE.!.W.Z.C.Z.(.wXyXyXuX0X].].-XwXQ.U.!.",
"rXE.$XwXwX'.`.`.rX$X-X].eXuX{.D.A.Z.W.`.&XwXwXuX$XW.G.wXuXrX!.!.=X+X=X&X&X{.'.`.eX$X$X].uXiX$XD.A.Z.W.(.$XwXwXuX'.).(.&XeXeXQ.Y.",
"#XH.#X&X`.W.W.$XaXwX-XwXuXwX'.].&XW.D.(.(.].(.wX'.].(.'.$XrX=XE.E.H.#X&X).Y.(.'.iX&XrXwXuX{.'.].&XW.Y.`.`.(.).&X`.].`.$X=XeX$XE."
};
